<?xml version="1.0" encoding="UTF-8"?>
<!DOCTYPE svg PUBLIC "-//W3C//DTD SVG 1.1//EN" "http://www.w3.org/Graphics/SVG/1.1/DTD/svg11.dtd">
<!-- Creator: CorelDRAW 2017 -->
<svg xmlns="http://www.w3.org/2000/svg" xml:space="preserve" width="5.36263in" height="2.42948in" version="1.1" style="shape-rendering:geometricPrecision; text-rendering:geometricPrecision; image-rendering:optimizeQuality; fill-rule:evenodd; clip-rule:evenodd"
viewBox="0 0 290.58 131.64"
 xmlns:xlink="http://www.w3.org/1999/xlink">
 <defs>
  <style type="text/css">
   <![CDATA[
    .fil4 {fill:#FEFEFE}
    .fil3 {fill:#6B575E}
    .fil0 {fill:#886E77}
    .fil1 {fill:#FEFEFE;fill-rule:nonzero}
    .fil2 {fill:#FEFEFE;fill-rule:nonzero}
   ]]>
  </style>
 </defs>
 <g id="Layer_x0020_1">
  <metadata id="CorelCorpID_0Corel-Layer"/>
  <path class="fil0" d="M15.26 0l260.06 0c8.39,0 15.26,6.87 15.26,15.26l0 101.13c0,8.39 -6.87,15.26 -15.26,15.26l-260.06 0c-8.39,0 -15.26,-6.87 -15.26,-15.26l0 -101.13c0,-8.39 6.87,-15.26 15.26,-15.26z"/>
  <path class="fil1" d="M122.12 56.31l6.77 0 0 -31.31 -13.03 4.73 0 6.13 6.26 -2.26 0 22.7zm13.72 -0.09l0.04 0.09 21.94 0 0 -5.92 -9.63 0 -0.04 -0.09 3.71 -4.9c3.19,-4.26 4.86,-7.45 4.86,-10.9 0,-5.79 -4.73,-9.5 -10.82,-9.5 -3.45,0 -6.05,1.19 -7.84,2.47l0 6.35c2.3,-1.79 4.98,-2.77 7.2,-2.77 2.73,0 4.6,1.45 4.6,4.05 0,2.34 -1.53,4.6 -4.6,8.69l-9.41 12.44zm37.44 0.55c3.45,0 6.52,-1.45 8.52,-4.17 1.92,-2.64 2.81,-6.3 2.81,-11.71 0,-5.41 -0.89,-9.07 -2.81,-11.71 -2,-2.73 -5.07,-4.17 -8.52,-4.17 -3.41,0 -6.52,1.45 -8.52,4.17 -1.92,2.64 -2.81,6.3 -2.81,11.71 0,5.41 0.89,9.07 2.81,11.71 2,2.73 5.11,4.17 8.52,4.17zm0 -6.05c-1.36,0 -2.43,-0.72 -3.11,-1.66 -1.02,-1.45 -1.45,-3.92 -1.45,-8.14 0,-3.96 0.38,-6.69 1.45,-8.22 0.68,-0.98 1.75,-1.66 3.11,-1.66 1.41,0 2.43,0.68 3.11,1.66 1.11,1.58 1.45,4.26 1.45,8.14 0,4.34 -0.43,6.77 -1.45,8.22 -0.68,0.94 -1.7,1.66 -3.11,1.66zm23.64 0.64l5.03 0 0 -8.14 7.97 0 0 -4.69 -7.97 0 0 -8.14 -5.03 0 0 8.14 -7.97 0 0 4.69 7.97 0 0 8.14z"/>
  <path class="fil2" d="M116.54 107.68l18.19 0 0 -3.66 -14.14 0 0 -10.61 12.05 0 0 -3.54 -12.05 0 0 -9.37 13.76 0 0 -3.66 -17.8 0 0 30.84zm37.06 0l4.52 0 -8.39 -11.2 7.33 -9.75 -4.34 0 -2.21 3.02c-1.02,1.41 -2.21,3.07 -3.11,4.34l-0.09 0c-0.89,-1.28 -2.04,-2.85 -3.11,-4.3l-2.26 -3.07 -4.52 0 7.41 9.84 -8.39 11.12 4.34 0 3.07 -4.13c1.06,-1.45 2.39,-3.24 3.32,-4.56l0.09 0c0.94,1.32 2.17,3.02 3.24,4.47l3.11 4.22zm13.5 0.47c2.81,0 5.24,-1.19 6.43,-2.3l0.09 0c0.81,1.49 2.39,2.21 4.05,2.21 0.81,0 1.53,-0.17 2.04,-0.38l0 -3.19c-0.34,0.17 -0.81,0.3 -1.24,0.3 -1.15,0 -1.62,-0.94 -1.62,-2.21l0 -8.9c0,-2.6 -0.85,-4.39 -2.09,-5.49 -1.49,-1.36 -3.71,-1.92 -6.26,-1.92 -3.11,0 -5.37,0.81 -6.99,1.79l0 3.75c1.58,-1.15 3.79,-2.09 6.43,-2.09 1.79,0 3.07,0.43 3.88,1.15 0.81,0.77 1.19,1.92 1.19,3.45l0 1.75c-1.36,-0.34 -2.85,-0.55 -4.47,-0.55 -2.17,0 -4.3,0.38 -5.88,1.41 -1.66,1.06 -2.77,2.77 -2.77,5.11 0,2.04 0.85,3.62 2.21,4.64 1.41,1.06 3.28,1.49 4.98,1.49zm0.68 -3.41c-2.26,0 -4,-1.02 -4,-3.07 0,-2.47 2.56,-3.24 5.15,-3.24 1.32,0 2.94,0.21 4.09,0.55l0 3.92c-1.28,1.02 -3.24,1.83 -5.24,1.83zm45.02 2.94l3.83 0 0 -13.08c0,-2.85 -0.47,-4.73 -1.75,-6.13 -1.28,-1.45 -3.24,-2.21 -5.49,-2.21 -2.9,0 -5.45,1.24 -7.97,3.62 -1.28,-2.51 -3.83,-3.62 -6.43,-3.62 -2.9,0 -5.37,1.32 -7.11,3.07l-0.09 -0.04 0 -2.56 -3.83 0 0 20.96 3.83 0 0 -14.57c1.45,-1.75 3.92,-3.28 6.39,-3.28 1.19,0 2.34,0.34 3.19,1.32 0.72,0.85 0.98,1.87 0.98,4.13l0 12.39 3.83 0 0 -13.08c0,-0.51 0,-1.02 -0.04,-1.49 1.45,-1.7 3.96,-3.28 6.39,-3.28 1.11,0 2.39,0.34 3.19,1.28 0.77,0.89 1.06,2.17 1.06,4.17l0 12.39zm9.92 -1.19c2.17,1.11 5.11,1.66 7.79,1.66 4.47,0 8.82,-1.83 8.82,-6.69 0,-4.34 -3.32,-5.45 -7.33,-6.13 -3.11,-0.55 -6.09,-0.55 -6.09,-2.94 0,-1.87 1.87,-2.68 4.56,-2.68 2.43,0 5.32,0.68 7.67,2.04l0 -3.83c-2.09,-1.11 -4.98,-1.66 -7.5,-1.66 -4.86,0 -8.56,2.09 -8.6,6.43 0,4.13 3.15,5.32 7.16,6.01 3.24,0.55 6.26,0.6 6.26,3.11 0,2.04 -1.87,2.9 -4.77,2.9 -2.6,0 -5.58,-0.72 -7.97,-2.21l0 4z"/>
  <path class="fil3" d="M109.46 131.64l0 -131.64 -94.2 0c-8.39,0 -15.26,6.87 -15.26,15.26l0 101.13c0,8.39 6.87,15.26 15.26,15.26l94.2 0z"/>
  <g id="_975946608">
   <path class="fil4" d="M31.02 38.85c2.04,-0.45 4.11,-0.58 6.12,-0.83 4.11,-0.53 2.67,-0.73 5.33,0.69 2.88,1.54 8.39,0.08 11.87,-0.35 3.33,-0.41 9.47,-0.5 11.75,-2.43 2.35,-1.99 0.52,-1.58 4.85,-2.09 2.11,-0.24 4.31,-0.66 6.42,-0.71l7.12 57.15 -46.42 5.73 -7.05 -57.16zm-2.11 1.16l6.81 55.21c0.29,2.33 1.18,3.36 3.59,3.06l44.52 -5.49c2.67,-0.33 3.06,-1.21 2.74,-3.84l-6.77 -54.87c-0.62,-5 -2.91,-2.87 -11.44,-2.2l-0.24 -2.5c1.96,-0.59 6.9,-1.06 9.15,-1.28 3.15,-0.31 4.62,1.12 5,4.27l7.11 57.63c0.59,4.8 -2.18,5 -5.58,5.42l-45.55 5.62c-3.24,0.4 -4.61,-0.94 -5,-4.11l-7.15 -57.97c-0.37,-2.98 0.91,-4.57 3.86,-5.01 2.24,-0.33 7.14,-1.09 9.19,-0.99l0.37 2.49c-7.87,1.32 -11.17,-0.03 -10.6,4.57zm36.62 -12.9c0.51,3.23 1.11,6.45 -1.69,7.67 -1.23,0.53 -7.9,1.14 -9.78,1.37 -10.95,1.35 -11.81,2.86 -13.18,-6l24.64 -3.03zm-14.22 -1.95c4.39,-0.54 4.55,-1.02 5.38,0.7l-7.34 0.76c0.01,-1.14 0.75,-1.32 1.96,-1.47zm-14.76 78.37l51.23 -6.32c2.75,-2.21 4.41,-2.33 3.83,-7.47l-7.03 -56.95c-1.22,-10.05 -8.33,-6.39 -16.58,-5.82 -1.92,-2.66 -0.63,-2.42 -8.83,-1.31 -1.05,-2.52 -1.35,-2.26 -3.14,-3.35l-6.88 0.85c-1.51,1.52 -1.83,1.27 -2.23,4.02 -8.16,0.92 -7.13,0.37 -8.25,3.42 -7.79,1.39 -15.91,-0.31 -14.71,9.33l7.03 56.95c0.68,5.43 2.11,5.12 5.57,6.66z"/>
   <path class="fil4" d="M44.85 64.61l-1.54 0.41 0.17 1.11c0.77,1.05 2.32,2.39 3.77,2.75 1.47,-0.76 2.57,-2.7 3.59,-4.01 0.93,-1.19 3.29,-3.08 2.13,-4.85 -1.56,-0.3 -1.11,0.08 -2.08,1.03 -2.26,-1.3 -4.78,-0.45 -8.12,-0.06 -4.45,0.53 -3.6,2.05 -3.1,6.08 0.42,3.33 -0.12,6.19 3.52,6.01 2.77,-0.14 6.88,-0.52 8.69,-1.74 0.13,-0.63 0.34,-1.77 0.12,-2.67 -0.36,-1.46 -0.54,-1.23 -1.92,-1.14 -0.81,1.52 -0.01,-0.15 -0.29,1.18 -0.34,1.64 1.8,1.1 -7.39,2.19l-0.91 -7.36 7.37 -1.05c0.23,1.74 -0.96,2.72 -1.92,3.59l-2.08 -1.46z"/>
   <path class="fil4" d="M46.99 46.86l0.89 7.28 -7.3 0.92c-0.72,-0.97 -1.15,-6.37 -1.09,-7.47l7.02 -0.9c0.06,0 0.22,0.16 0.25,0.08 0.03,-0.08 0.15,0.06 0.23,0.1zm-9.73 0.88c0.85,6.85 0.27,9.8 2.97,9.65l8.28 -1.02c2.79,-0.46 1.74,-1.75 0.75,-9.77 -0.41,-3.31 -1.36,-2.29 -10.16,-1.2 -1.92,0.24 -2.07,0.41 -1.83,2.33z"/>
   <path class="fil4" d="M43.58 79.18l7.27 -0.89 0.97 7.4c-1.04,0.67 -6.25,1.14 -7.56,1.04 -0.26,-1.11 -1.19,-6.44 -0.69,-7.55zm-2.5 -1.71c-0.06,2.03 0.82,9.72 1.48,11.47 1.79,0.24 9.83,-0.49 11.18,-1.5l-0.14 -5.64c-0.22,-1.82 -0.26,-4.46 -1.12,-5.59 -1.79,-0.66 -9.42,0.53 -11.4,1.25z"/>
   <path class="fil4" d="M56.8 84.72c1.9,0.32 18.65,-1.75 20.19,-2.56l-0.23 -1.59c-2.1,-0.51 -8.41,0.72 -11.13,1.06 -5.89,0.73 -9.64,0.24 -8.83,3.09z"/>
   <path class="fil4" d="M52.78 51.88c1.75,0.3 18.55,-1.79 20.11,-2.54l-0.16 -1.43c-1.64,-0.78 -13.14,1.17 -16.67,1.56 -2.42,0.27 -4.08,-0.07 -3.28,2.41z"/>
   <path class="fil4" d="M56.71 68.91c5.08,-0.63 13.6,-1.43 18.32,-2.49l-0.19 -1.66c-1.99,-0.4 -15.48,1.6 -18.49,1.97 -2.44,0.3 -2.26,2.5 0.36,2.18z"/>
   <path class="fil4" d="M54.03 62.31l0.14 1.75c2.14,0.3 5.12,-0.39 7.46,-0.68 1.59,-0.2 6.9,-0.12 6.66,-1.95 -0.23,-1.8 -5.04,-0.5 -6.59,-0.31 -1.54,0.19 -6.85,0.62 -7.67,1.19z"/>
   <path class="fil4" d="M56.23 79.84c1.67,0.29 5.16,-0.15 6.71,-0.83 0.18,-2.63 -1.36,-1.84 -3.77,-1.55 -2.35,0.29 -3.71,-0.02 -2.93,2.37z"/>
   <path class="fil4" d="M52.19 47.03l3.89 -0.22c2.46,-0.34 2.22,-2.54 -0.62,-2.19 -2.8,0.35 -4,0.18 -3.27,2.41z"/>
  </g>
 </g>
</svg>
