<?xml version="1.0" encoding="UTF-8"?>
<!DOCTYPE svg PUBLIC "-//W3C//DTD SVG 1.1//EN" "http://www.w3.org/Graphics/SVG/1.1/DTD/svg11.dtd">
<!-- Creator: CorelDRAW 2017 -->
<svg xmlns="http://www.w3.org/2000/svg" xml:space="preserve" width="5.36263in" height="2.42948in" version="1.1" style="shape-rendering:geometricPrecision; text-rendering:geometricPrecision; image-rendering:optimizeQuality; fill-rule:evenodd; clip-rule:evenodd"
viewBox="0 0 501.73 227.3"
 xmlns:xlink="http://www.w3.org/1999/xlink">
 <defs>
  <style type="text/css">
   <![CDATA[
    .fil4 {fill:#FEFEFE}
    .fil3 {fill:#33A9C4}
    .fil0 {fill:#41C4E0}
    .fil1 {fill:#FEFEFE;fill-rule:nonzero}
    .fil2 {fill:#FEFEFE;fill-rule:nonzero}
   ]]>
  </style>
 </defs>
 <g id="Layer_x0020_1">
  <metadata id="CorelCorpID_0Corel-Layer"/>
  <path class="fil0" d="M26.34 0l449.04 0c14.49,0 26.34,11.86 26.34,26.34l0 174.61c0,14.49 -11.86,26.34 -26.34,26.34l-449.04 0c-14.49,0 -26.34,-11.86 -26.34,-26.34l0 -174.61c0,-14.49 11.86,-26.34 26.34,-26.34z"/>
  <path class="fil1" d="M202.08 96.74c4.75,2.37 11.01,3.67 16.19,3.67 11.22,0 18.92,-6.11 18.92,-16.26 0,-9.21 -6.33,-12.88 -14.17,-15.47 -6.26,-2.09 -11.08,-2.45 -11.08,-7.05 0,-3.45 2.81,-4.89 6.69,-4.89 4.03,0 10.43,1.58 15.97,5.04l0 -11.29c-4.53,-2.45 -10.79,-3.74 -15.9,-3.74 -10.93,0 -18.27,6.04 -18.27,15.75 0,9.06 6.47,12.59 13.67,14.96 6.69,2.16 11.58,2.59 11.58,7.41 0,3.88 -3.09,5.54 -7.27,5.54 -4.1,0 -10.72,-1.58 -16.33,-5.18l0 11.51zm67.98 -9.14l7.55 -10.72c2.59,-3.67 5.18,-7.48 7.63,-11.15l0.14 0.07c-0.07,3.74 -0.14,8.63 -0.14,12.95l0 20.86 11.44 0 0 -52.08 -10.86 0 -15.47 22.01 -15.47 -22.01 -11.01 0 0 52.08 11.01 0 0 -20.86c0,-4.32 -0.07,-9.21 -0.14,-12.95l0.14 -0.07c2.45,3.67 5.04,7.48 7.63,11.15l7.55 10.72zm35.75 9.14c4.75,2.37 11.01,3.67 16.19,3.67 11.22,0 18.92,-6.11 18.92,-16.26 0,-9.21 -6.33,-12.88 -14.17,-15.47 -6.26,-2.09 -11.08,-2.45 -11.08,-7.05 0,-3.45 2.81,-4.89 6.69,-4.89 4.03,0 10.43,1.58 15.97,5.04l0 -11.29c-4.53,-2.45 -10.79,-3.74 -15.9,-3.74 -10.93,0 -18.27,6.04 -18.27,15.75 0,9.06 6.47,12.59 13.67,14.96 6.69,2.16 11.58,2.59 11.58,7.41 0,3.88 -3.09,5.54 -7.27,5.54 -4.1,0 -10.72,-1.58 -16.33,-5.18l0 11.51z"/>
  <path class="fil2" d="M207.32 175.88l5.89 0 4.98 -12.26 19.79 0 4.92 12.26 6.19 0 -18.15 -43.94 -5.52 0 -18.09 43.94zm16.45 -26.22c1.52,-3.76 2.97,-7.47 4.31,-11.05l0.12 0c1.34,3.58 2.79,7.34 4.19,10.86l3.58 9.1 -15.78 0 3.58 -8.92zm30.41 26.22l5.46 0 0 -46.37 -5.46 0 0 46.37zm41.27 -13.35c0.12,-0.73 0.18,-1.82 0.18,-2.73 0,-9.35 -6.31,-14.45 -13.6,-14.45 -8.01,0 -14.87,6.19 -14.87,15.6 0,9.41 6.92,15.6 16.15,15.6 3.88,0 8.01,-1.09 10.68,-2.79l0 -5.83c-2.73,2.06 -6.19,3.7 -10.32,3.7 -5.89,0 -10.26,-3.22 -11.05,-9.1l22.82 0zm-13.54 -12.26c3.58,0 7.95,2 8.44,7.95l-17.6 0c0.97,-5.52 5.22,-7.95 9.17,-7.95zm21.49 25.61l5.46 0 0 -19.42c1.88,-3.22 4.73,-5.28 8.8,-5.28 0.67,0 1.4,0.06 2.12,0.24l0 -5.4c-0.67,-0.18 -1.34,-0.24 -1.94,-0.24 -3.52,0 -6.8,1.76 -8.86,4.67l-0.12 -0.06 0 -4.37 -5.46 0 0 29.86zm27.19 -2.12c1.94,2.25 4.61,2.79 6.8,2.79 2.06,0 4.19,-0.49 5.4,-1.09l0 -5.16c-1.15,0.73 -2.91,1.27 -4.49,1.27 -3.95,0 -4.49,-3.4 -4.49,-7.1l0 -13.54 8.98 0 0 -4.92 -8.98 0 0 -9.04 -5.46 0.91 0 8.13 -5.52 0 0 4.92 5.52 0 0 14.57c0,4.19 0.79,6.62 2.25,8.26zm18.27 0.42c3.1,1.58 7.28,2.37 11.11,2.37 6.37,0 12.56,-2.61 12.56,-9.53 0,-6.19 -4.73,-7.77 -10.44,-8.74 -4.43,-0.79 -8.68,-0.79 -8.68,-4.19 0,-2.67 2.67,-3.82 6.49,-3.82 3.46,0 7.59,0.97 10.93,2.91l0 -5.46c-2.97,-1.58 -7.1,-2.37 -10.68,-2.37 -6.92,0 -12.2,2.97 -12.26,9.17 0,5.89 4.49,7.59 10.2,8.56 4.61,0.79 8.92,0.85 8.92,4.43 0,2.91 -2.67,4.13 -6.8,4.13 -3.7,0 -7.95,-1.03 -11.35,-3.16l0 5.71z"/>
  <path class="fil3" d="M189 227.3l0 -227.3 -162.66 0c-14.49,0 -26.34,11.85 -26.34,26.34l0 174.61c0,14.49 11.85,26.34 26.34,26.34l162.66 0z"/>
  <g id="_980904752">
   <path class="fil4" d="M88.47 156.34l12.57 0c3.13,0 4,6.06 -0.45,6.06l-11.9 0c-1.53,0 -2.8,-1.53 -2.85,-2.94 -0.05,-1.38 1.18,-3.12 2.62,-3.12zm11.22 -94.51c-2.58,0 -8.87,0.27 -11,-0.22l0 -1.35c2.13,-0.5 8.42,-0.22 11,-0.22 1.83,0 1.83,1.8 0,1.8zm-38.61 2.92l0 93.84c0,5.52 5.03,10.55 10.55,10.55l46.7 0c4.91,0 10.1,-5.19 10.1,-10.1l0 -24.92 -5.39 0 0 15.71 -56.57 0 0 -83.51 56.57 0 0 9.43 5.39 0 0 -11.45c0,-4.91 -5.19,-10.1 -10.1,-10.1l-46.7 0c-5.5,0 -10.55,5.07 -10.55,10.55z"/>
   <path class="fil4" d="M108.67 109.19c1.28,0.86 2.56,1.8 3.82,2.69 1.26,0.9 3,2.36 4.23,2.34 1.33,-0.02 2.6,-1.16 4.17,-2.25 1.39,-0.96 2.61,-1.89 3.95,-2.79 0.62,0.93 2.36,2.12 3.2,2.87 0.47,0.42 0.58,0.57 1.07,0.95 1.52,1.17 2.82,2.45 4.4,3.69l8.63 7.54 -50.74 0c0.65,-0.98 1.24,-1.17 2.08,-1.96l4.38 -3.7c0.97,-0.91 10.31,-8.6 10.83,-9.37zm-21.55 11.22l0 -26.27 16.84 11.9c-0.22,0.3 -1.66,1.52 -2.02,1.8 -2.9,2.23 -7.63,6.74 -10.55,8.98 -1.38,1.06 -2.87,2.66 -4.27,3.59zm42.21 -14.59c0.84,-0.22 1.55,-0.89 2.21,-1.38l12.7 -8.85c0.87,-0.6 1.22,-0.95 2.15,-1.44l0 26.27c-0.67,-0.45 -1.41,-1.16 -2.09,-1.73l-14.97 -12.87zm-42.21 -20.2l59.27 0c-0.05,2.19 -1.47,2.71 -2.82,3.69l-26.81 18.76 -28.68 -20.04c-0.63,-0.56 -0.92,-1.33 -0.95,-2.41zm-5.39 -1.35l0 41.31c0,2.14 2.12,4.04 4.27,4.04l61.51 0c1.23,0 2.2,-0.53 2.87,-1.17 0.54,-0.51 1.39,-1.7 1.39,-2.65l0 -41.31c0,-2.29 -1.97,-4.27 -4.27,-4.27l-61.96 0c-1.39,0 -3.82,1.78 -3.82,4.04z"/>
  </g>
 </g>
</svg>
