<?xml version="1.0" encoding="UTF-8"?>
<!DOCTYPE svg PUBLIC "-//W3C//DTD SVG 1.1//EN" "http://www.w3.org/Graphics/SVG/1.1/DTD/svg11.dtd">
<!-- Creator: CorelDRAW 2017 -->
<svg xmlns="http://www.w3.org/2000/svg" xml:space="preserve" width="5.36263in" height="2.42947in" version="1.1" style="shape-rendering:geometricPrecision; text-rendering:geometricPrecision; image-rendering:optimizeQuality; fill-rule:evenodd; clip-rule:evenodd"
viewBox="0 0 660.65 299.3"
 xmlns:xlink="http://www.w3.org/1999/xlink">
 <defs>
  <style type="text/css">
   <![CDATA[
    .fil4 {fill:#FEFEFE}
    .fil3 {fill:#D9482E}
    .fil0 {fill:#F26A52}
    .fil1 {fill:#FEFEFE;fill-rule:nonzero}
    .fil2 {fill:#FEFEFE;fill-rule:nonzero}
   ]]>
  </style>
 </defs>
 <g id="Layer_x0020_1">
  <metadata id="CorelCorpID_0Corel-Layer"/>
  <path class="fil0" d="M34.69 0l591.27 0c19.08,0 34.69,15.61 34.69,34.69l0 229.92c0,19.08 -15.61,34.69 -34.69,34.69l-591.27 0c-19.08,0 -34.69,-15.61 -34.69,-34.69l0 -229.92c0,-19.08 15.61,-34.69 34.69,-34.69z"/>
  <path class="fil1" d="M262.97 132.62l12.08 0 0 -22.57 19.61 0 0 -10.03 -19.61 0 0 -11.86 22.8 0 0 -10.56 -34.88 0 0 55.02zm40.96 0l11.55 0 0 -22.65c2.74,-3.19 6.08,-4.41 10.11,-4.41 1.06,0 2.2,0.15 3.12,0.38l0 -10.87c-0.84,-0.23 -1.67,-0.3 -2.43,-0.3 -4.64,0 -8.28,1.9 -10.87,5.55l-0.15 -0.08 0 -5.02 -11.32 0 0 37.39zm64.98 -15.66c0.15,-0.99 0.23,-2.66 0.23,-3.95 0,-12.54 -8.66,-18.62 -17.86,-18.62 -10.34,0 -19.61,7.75 -19.61,19.68 0,11.7 8.89,19.38 21.2,19.38 4.94,0 10.56,-1.14 14.21,-3.42l0 -9.65c-3.95,2.66 -8.51,4.1 -12.69,4.1 -5.32,0 -9.58,-2.36 -10.87,-7.52l25.38 0zm-17.78 -13.76c3.72,0 6.69,2.43 7.37,6.46l-15.05 0c0.99,-4.26 4.1,-6.46 7.68,-6.46zm60.42 13.76c0.15,-0.99 0.23,-2.66 0.23,-3.95 0,-12.54 -8.66,-18.62 -17.86,-18.62 -10.34,0 -19.61,7.75 -19.61,19.68 0,11.7 8.89,19.38 21.2,19.38 4.94,0 10.56,-1.14 14.21,-3.42l0 -9.65c-3.95,2.66 -8.51,4.1 -12.69,4.1 -5.32,0 -9.58,-2.36 -10.87,-7.52l25.38 0zm-17.78 -13.76c3.72,0 6.69,2.43 7.37,6.46l-15.05 0c0.99,-4.26 4.1,-6.46 7.68,-6.46zm43.62 26.07c4.71,2.74 11.02,4.18 16.34,4.18 11.02,0 18.39,-5.93 18.39,-15.96 0,-10.49 -7.9,-13.68 -15.88,-15.96 -6.69,-1.9 -13.07,-3.04 -13.07,-9.88 0,-5.62 4.33,-8.28 10.49,-8.28 4.71,0 10.94,1.6 15.96,5.09l0 -7.6c-4.41,-2.81 -10.64,-4.1 -15.81,-4.1 -10.72,0 -17.78,5.62 -17.78,15.35 0,10.03 7.52,13.22 15.28,15.43 7.22,2.05 13.68,3.27 13.68,10.34 0,6 -4.64,8.97 -11.17,8.97 -4.86,0 -11.32,-1.67 -16.42,-5.47l0 7.9zm49.48 0.68c2.43,2.81 5.78,3.5 8.51,3.5 2.58,0 5.24,-0.61 6.76,-1.37l0 -6.46c-1.44,0.91 -3.65,1.6 -5.62,1.6 -4.94,0 -5.62,-4.26 -5.62,-8.89l0 -16.95 11.25 0 0 -6.16 -11.25 0 0 -11.32 -6.84 1.14 0 10.18 -6.92 0 0 6.16 6.92 0 0 18.24c0,5.24 0.99,8.28 2.81,10.34zm26.75 -0.68c2.51,2.89 6.38,4.18 10.18,4.18 5.17,0 9.65,-2.36 12.92,-5.62l0.15 0.08 0 4.71 6.84 0 0 -37.39 -6.84 0 0 25.54c-2.66,3.34 -7.07,6.38 -11.7,6.38 -2.2,0 -4.41,-0.68 -5.93,-2.58 -1.29,-1.52 -1.82,-3.65 -1.82,-7.75l0 -21.58 -6.84 0 0 22.88c0,5.32 0.91,8.66 3.04,11.17zm39.67 -14.74c0,11.55 8.21,18.92 18.32,18.92 4.48,0 7.98,-1.44 10.49,-3.19l0.15 0.08 0 2.28 6.84 0 0 -58.06 -6.84 0 0 21.74 -0.15 0.08c-2.43,-1.06 -5.24,-1.98 -8.97,-1.98 -11.78,0 -19.84,8.66 -19.84,20.14zm6.92 -0.38c0,-7.68 4.94,-13.68 12.84,-13.68 3.34,0 6.69,1.06 9.2,2.36l0 21.36c-2.66,1.82 -6,3.19 -9.73,3.19 -7.68,0 -12.31,-5.78 -12.31,-13.22zm49.48 35.19l25.31 -54.11 -7.22 0 -6.54 14.14c-1.75,3.8 -3.42,7.52 -5.09,11.25l-0.15 0c-1.52,-3.42 -3.34,-7.45 -5.09,-11.25l-6.54 -14.14 -7.6 0 15.58 33.36 -10.11 20.75 7.45 0z"/>
  <path class="fil2" d="M278.4 231.54l7.26 0 0 -21.86 5.73 0c7.11,0 13.53,-0.23 18.34,-3.13 4.43,-2.67 7.49,-7.49 7.49,-13.76 0,-6.5 -3.21,-11.01 -8.03,-13.68 -4.82,-2.67 -10.47,-2.9 -16.36,-2.9l-14.45 0 0 55.34zm7.26 -28.2l0 -20.56 6.57 0c5.2,0 9.25,0.08 12.61,1.76 3.13,1.61 5.12,4.43 5.12,8.56 0,3.74 -1.68,6.5 -4.43,8.18 -3.06,1.83 -6.73,2.06 -13.22,2.06l-6.65 0zm40.13 28.2l6.88 0 0 -58.39 -6.88 0 0 58.39zm29.35 0.84c5.04,0 9.4,-2.14 11.54,-4.13l0.15 0c1.45,2.67 4.28,3.97 7.26,3.97 1.45,0 2.75,-0.31 3.67,-0.69l0 -5.73c-0.61,0.31 -1.45,0.53 -2.22,0.53 -2.06,0 -2.9,-1.68 -2.9,-3.97l0 -15.97c0,-4.66 -1.53,-7.87 -3.75,-9.86 -2.67,-2.45 -6.65,-3.44 -11.24,-3.44 -5.58,0 -9.63,1.45 -12.53,3.21l0 6.73c2.83,-2.06 6.8,-3.75 11.54,-3.75 3.21,0 5.5,0.76 6.96,2.06 1.45,1.38 2.14,3.44 2.14,6.19l0 3.13c-2.45,-0.61 -5.12,-0.99 -8.03,-0.99 -3.9,0 -7.72,0.69 -10.55,2.52 -2.98,1.91 -4.97,4.97 -4.97,9.17 0,3.67 1.53,6.5 3.97,8.33 2.52,1.91 5.89,2.67 8.94,2.67zm1.22 -6.11c-4.05,0 -7.18,-1.83 -7.18,-5.5 0,-4.43 4.59,-5.81 9.25,-5.81 2.37,0 5.27,0.38 7.34,0.99l0 7.03c-2.29,1.83 -5.81,3.29 -9.4,3.29zm29.04 5.27l6.88 0 0 -25.76c2.67,-3.59 7.49,-6.27 11.77,-6.27 2.06,0 4.51,0.61 6.04,2.45 1.22,1.45 1.76,3.75 1.76,7.64l0 21.94 6.88 0 0 -23.23c0,-5.81 -1.07,-8.71 -3.13,-11.08 -2.37,-2.67 -5.89,-4.13 -10.01,-4.13 -5.27,0 -9.86,2.37 -13.15,5.66l-0.15 -0.08 0 -4.74 -6.88 0 0 37.6zm45.25 0l6.88 0 0 -25.76c2.67,-3.59 7.49,-6.27 11.77,-6.27 2.06,0 4.51,0.61 6.04,2.45 1.22,1.45 1.76,3.75 1.76,7.64l0 21.94 6.88 0 0 -23.23c0,-5.81 -1.07,-8.71 -3.13,-11.08 -2.37,-2.67 -5.89,-4.13 -10.01,-4.13 -5.27,0 -9.86,2.37 -13.15,5.66l-0.15 -0.08 0 -4.74 -6.88 0 0 37.6zm78.27 -16.81c0.15,-0.92 0.23,-2.29 0.23,-3.44 0,-11.77 -7.95,-18.19 -17.12,-18.19 -10.09,0 -18.73,7.8 -18.73,19.64 0,11.85 8.71,19.64 20.33,19.64 4.89,0 10.09,-1.38 13.45,-3.52l0 -7.34c-3.44,2.6 -7.8,4.66 -12.99,4.66 -7.41,0 -12.92,-4.05 -13.91,-11.46l28.74 0zm-17.04 -15.44c4.51,0 10.01,2.52 10.62,10.01l-22.16 0c1.22,-6.96 6.57,-10.01 11.54,-10.01zm27.06 32.25l6.88 0 0 -24.46c2.37,-4.05 5.96,-6.65 11.08,-6.65 0.84,0 1.76,0.08 2.67,0.31l0 -6.8c-0.84,-0.23 -1.68,-0.31 -2.45,-0.31 -4.43,0 -8.56,2.22 -11.16,5.89l-0.15 -0.08 0 -5.5 -6.88 0 0 37.6zm27.06 -2.14c3.9,1.99 9.17,2.98 13.99,2.98 8.03,0 15.82,-3.29 15.82,-12 0,-7.8 -5.96,-9.78 -13.15,-11.01 -5.58,-0.99 -10.93,-0.99 -10.93,-5.27 0,-3.36 3.36,-4.82 8.18,-4.82 4.36,0 9.55,1.22 13.76,3.67l0 -6.88c-3.75,-1.99 -8.94,-2.98 -13.45,-2.98 -8.71,0 -15.36,3.74 -15.44,11.54 0,7.41 5.66,9.55 12.84,10.78 5.81,0.99 11.24,1.07 11.24,5.58 0,3.67 -3.36,5.2 -8.56,5.2 -4.66,0 -10.01,-1.3 -14.29,-3.97l0 7.18z"/>
  <path class="fil3" d="M248.87 299.3l0 -299.3 -214.18 0c-19.08,0 -34.69,15.61 -34.69,34.69l0 229.92c0,19.08 15.61,34.69 34.69,34.69l214.18 0z"/>
  <g id="_981801184">
   <path class="fil4" d="M79.93 146.79l2.91 10.91c4.62,-0.01 11.58,-3.73 16.26,-3.87 0.9,1.46 1.37,3.78 1.78,5.67 -1.3,0.99 -13.47,3.98 -15.98,4.67l5.07 18.73 -6.5 1.7 -11.87 -42.12c1.35,-0.88 21.92,-6.45 23.8,-6.31l1.67 5.97 -17.12 4.65zm19.12 -11.01c1.82,-1.46 7.72,-3.61 10.21,-4.24 4.34,-1.1 8.21,-1.09 11.92,0.72 2.9,1.41 5.38,4.4 6.26,8.11 1.68,7.08 -1.58,8.88 -2.17,11.49 5.39,2.69 11.55,15.45 11.72,18.37l-6.3 1.55c-1.18,-3.89 -4.19,-9.13 -6.21,-11.74 -3.92,-5.06 -5.55,-3.83 -12.26,-2.26 -0.08,2.93 4.59,14.85 4.56,17.92l-6.31 1.54c-1.1,-6.16 -11.32,-37.92 -11.42,-41.48zm29.45 -8.83c1.35,-0.71 20.84,-6.01 22.95,-6.13 0.57,1.77 1.36,3.96 1.49,6.12l-16.09 4.34 3.02 10.58c4.43,-0.73 10.45,-3.43 14.62,-3.64 0.39,2.02 1.29,3.78 1.41,6.16 -2.29,0.69 -4.84,1.28 -7.3,1.98 -0.65,0.19 -1.18,0.36 -1.69,0.51l-3.53 0.96c-0.65,0.18 -1.26,0.26 -1.78,0.42 0.23,2.63 2.51,10.15 3.45,12.87l16.67 -4.25c0.5,2.25 1.52,3.83 1.42,6.19l-11.45 3.07c-2.73,0.73 -8.85,2.78 -11.38,2.92l-11.82 -42.11zm27.04 -7.42c3.21,-1.22 7.71,-2.13 11.23,-3.13 3.08,-0.88 8.75,-2.7 11.72,-2.96l1.52 6.14 -16.25 4.52c0.1,1.48 2.36,9.19 2.9,10.44 4.69,-0.66 10.19,-3.29 14.86,-3.67l1.48 6.16c-2.46,0.52 -12.58,3.11 -14.47,4.02 0.17,1.51 3.1,11.74 3.67,12.71l16.56 -4.26 1.46 6.2 -22.88 6.01 -11.79 -42.19zm-42.36 -44.32l-7.67 8.32 -11.53 -1.27c-1.4,2.71 -3.06,6.96 -4.63,9.3 -0.75,1.11 -0.66,0.88 -2.16,1.13l-9.5 1.28 -2.49 11.16 -10.48 4.58 0.47 11.72c-2.97,1.65 -5.95,4.95 -8.75,6.49 0.12,3.21 2.58,7.55 3.14,11.19 -0.82,1.69 -2.16,3.11 -3.3,4.63l-3.25 4.64c0.61,1.45 1.99,3.25 2.88,4.61 0.45,0.69 2.7,3.96 2.88,4.52 0.41,1.28 -3.25,8.76 -3.78,10.89 1.47,2.25 5.21,4.85 7.47,6.99 2.09,1.97 -0.83,7.42 -0.29,12.29 2.63,1.48 8.17,3.8 10.04,5.35 0.29,2.08 0.9,9.68 1.78,10.81 0.07,0.06 0.18,0.05 0.22,0.16l0.48 0.28c1.86,0.76 9.33,1.44 10.38,2.62 0.97,1.1 3.13,7.93 4.39,9.97l11.58 -0.36c1.12,1.63 5.66,7.77 6.96,8.7 2.95,-0.2 9.58,-3.66 11.54,-2.77l8.48 6.23 6.79 -4.16c0.5,-0.34 2,-1.45 2.43,-1.62 1.29,-0.49 8.95,3.44 11.35,3.81l7.22 -8.17 11.56 1.16 4.78 -9.4c1.51,-2.2 9.73,-0.9 11.51,-2.56 1.32,-2.14 1.48,-9.8 3.01,-11.08 0.72,-0.61 8.72,-3.82 10.03,-4.33l-0.48 -11.31c0.78,-0.94 2.95,-2.55 4.23,-3.56 1.59,-1.26 2.85,-2.27 4.52,-3.48 0.1,-2.65 -3.59,-9.9 -2.88,-11.56 0.08,-0.18 1.26,-1.72 1.58,-2.13l4.76 -6.7c-0.95,-1.64 -5.52,-8.28 -5.74,-9.09 -0.44,-1.64 3.35,-8.4 3.66,-11.39 -1.01,-0.87 -7.82,-6.63 -8.01,-7.31l1.09 -11.6 -10.14 -5.12 -1.56 -10.9 -11.01 -2.58c-1.7,-2.35 -3.29,-8.74 -4.97,-10.55l-11.28 0.46 -6.98 -8.88c-2.29,0.41 -9.84,3.47 -11.22,3.02 -1.33,-0.43 -7.59,-6.23 -9.04,-6.14 -1.3,0.08 -8.11,5.52 -9.4,5.69 -0.92,0.13 -8.77,-3.55 -10.64,-3.97z"/>
   <path class="fil4" d="M106.91 139.49c0.23,1.87 0.98,3.93 1.52,5.84l1.28 4.31c0.17,0.72 0.28,1.3 0.42,1.86 2.43,-0.2 6.11,-1.23 7.98,-2.21 5.83,-3.07 3.68,-11.6 -2.7,-11.84 -2.75,-0.1 -6.88,0.74 -8.51,2.04z"/>
  </g>
 </g>
</svg>
