<?xml version="1.0" encoding="UTF-8"?>
<!DOCTYPE svg PUBLIC "-//W3C//DTD SVG 1.1//EN" "http://www.w3.org/Graphics/SVG/1.1/DTD/svg11.dtd">
<!-- Creator: CorelDRAW 2017 -->
<svg xmlns="http://www.w3.org/2000/svg" xml:space="preserve" width="5.36263in" height="2.42948in" version="1.1" style="shape-rendering:geometricPrecision; text-rendering:geometricPrecision; image-rendering:optimizeQuality; fill-rule:evenodd; clip-rule:evenodd"
viewBox="0 0 927.14 420.03"
 xmlns:xlink="http://www.w3.org/1999/xlink">
 <defs>
  <style type="text/css">
   <![CDATA[
    .fil4 {fill:#FEFEFE}
    .fil3 {fill:#6B575E}
    .fil0 {fill:#886E77}
    .fil1 {fill:#FEFEFE;fill-rule:nonzero}
    .fil2 {fill:#FEFEFE;fill-rule:nonzero}
   ]]>
  </style>
 </defs>
 <g id="Layer_x0020_1">
  <metadata id="CorelCorpID_0Corel-Layer"/>
  <path class="fil0" d="M48.68 0l829.77 0c26.77,0 48.68,21.91 48.68,48.68l0 322.66c0,26.77 -21.91,48.68 -48.68,48.68l-829.77 0c-26.77,0 -48.68,-21.91 -48.68,-48.68l0 -322.66c0,-26.77 21.91,-48.68 48.68,-48.68z"/>
  <path class="fil1" d="M390.33 179.73l21.44 0 10.07 -32.54c2.45,-7.88 4.65,-15.24 6.72,-22.73l0.26 0c2.07,7.49 4.13,14.46 6.59,22.34l10.07 32.93 21.69 0 28.8 -93.5 -20.66 0 -12.01 39.77c-2.45,8.01 -4.91,16.66 -6.97,24.54l-0.26 0c-2.2,-8.01 -4.65,-16.27 -7.1,-24.28l-12.27 -40.03 -14.98 0 -12.4 40.03c-2.45,7.88 -4.91,16.27 -7.1,24.28l-0.26 0c-2.07,-7.88 -4.39,-16.27 -6.72,-24.15l-11.88 -40.16 -21.57 0 28.54 93.5zm110.15 0l19.63 0 0 -38.48c4.65,-5.42 10.33,-7.49 17.18,-7.49 1.81,0 3.75,0.26 5.29,0.65l0 -18.47c-1.42,-0.39 -2.84,-0.52 -4.13,-0.52 -7.88,0 -14.08,3.23 -18.47,9.43l-0.26 -0.13 0 -8.52 -19.24 0 0 63.54zm50.23 -83.68c0,6.2 5.17,11.23 11.36,11.23 6.2,0 11.36,-5.04 11.36,-11.23 0,-6.2 -5.17,-11.24 -11.36,-11.24 -6.2,0 -11.36,5.04 -11.36,11.24zm1.55 83.68l19.63 0 0 -63.54 -19.63 0 0 63.54zm46.23 -4.91c4,4.26 10.07,6.33 16.53,6.33 5.55,0 11.36,-1.55 14.33,-3.49l0 -15.63c-2.58,1.29 -6.2,2.58 -9.43,2.58 -5.94,0 -7.36,-4.65 -7.36,-10.85l0 -21.31 16.79 0 0 -16.27 -16.79 0 0 -19.89 -19.63 3.36 0 16.53 -10.33 0 0 16.27 10.33 0 0 23.37c0,10.07 2.2,15.37 5.55,18.98zm52.95 0c4,4.26 10.07,6.33 16.53,6.33 5.55,0 11.36,-1.55 14.33,-3.49l0 -15.63c-2.58,1.29 -6.2,2.58 -9.43,2.58 -5.94,0 -7.36,-4.65 -7.36,-10.85l0 -21.31 16.79 0 0 -16.27 -16.79 0 0 -19.89 -19.63 3.36 0 16.53 -10.33 0 0 16.27 10.33 0 0 23.37c0,10.07 2.2,15.37 5.55,18.98zm101.24 -21.7c0.26,-1.68 0.39,-4.52 0.39,-6.72 0,-21.31 -14.72,-31.64 -30.35,-31.64 -17.56,0 -33.32,13.17 -33.32,33.45 0,19.89 15.11,32.93 36.03,32.93 8.39,0 17.95,-1.94 24.15,-5.81l0 -16.4c-6.72,4.52 -14.46,6.97 -21.57,6.97 -9.04,0 -16.27,-4 -18.47,-12.78l43.13 0zm-30.22 -23.37c6.33,0 11.36,4.13 12.53,10.98l-25.57 0c1.68,-7.23 6.97,-10.98 13.04,-10.98zm43.39 49.98l19.63 0 0 -42.74c3.49,-2.71 8.27,-5.29 13.3,-5.29 2.71,0 5.04,0.77 6.72,2.71 1.55,1.81 2.2,4.13 2.2,8.91l0 36.42 19.63 0 0 -39.65c0,-9.17 -1.68,-14.72 -5.55,-18.85 -4,-4.13 -9.94,-6.46 -16.66,-6.46 -8.01,0 -14.72,3.36 -19.63,7.36l-0.26 -0.13 0 -5.81 -19.37 0 0 63.54z"/>
  <path class="fil2" d="M382.48 343.8l0 -42.08c0,-8.09 -0.12,-16.53 -0.23,-23.82l0.23 -0.12c4.74,6.59 9.6,13.18 14.45,19.54l35.03 46.48 10.41 0 0 -83.7 -10.64 0 0 42.08c0,8.09 0.12,16.53 0.23,23.82l-0.23 0.12c-4.74,-6.59 -9.6,-13.18 -14.45,-19.54l-35.03 -46.48 -10.41 0 0 83.7 10.64 0zm74.45 -28.44c0,16.76 12.83,29.71 30.06,29.71 17.23,0 30.06,-12.95 30.06,-29.71 0,-16.76 -12.83,-29.71 -30.06,-29.71 -17.23,0 -30.06,12.95 -30.06,29.71zm10.41 0c0,-11.45 8.32,-20.23 19.65,-20.23 11.33,0 19.65,8.79 19.65,20.23 0,11.45 -8.32,20.23 -19.65,20.23 -11.33,0 -19.65,-8.79 -19.65,-20.23zm72.72 24.39c3.7,4.28 8.79,5.32 12.95,5.32 3.93,0 7.98,-0.92 10.29,-2.08l0 -9.83c-2.2,1.39 -5.55,2.43 -8.56,2.43 -7.51,0 -8.56,-6.47 -8.56,-13.53l0 -25.78 17.11 0 0 -9.36 -17.11 0 0 -17.23 -10.4 1.73 0 15.49 -10.52 0 0 9.36 10.52 0 0 27.75c0,7.98 1.5,12.6 4.28,15.72zm84.86 -21.39c0.23,-1.39 0.35,-3.47 0.35,-5.2 0,-17.8 -12.02,-27.52 -25.9,-27.52 -15.26,0 -28.33,11.79 -28.33,29.71 0,17.92 13.18,29.71 30.75,29.71 7.4,0 15.26,-2.08 20.35,-5.32l0 -11.1c-5.2,3.93 -11.79,7.05 -19.65,7.05 -11.21,0 -19.54,-6.13 -21.04,-17.34l43.47 0zm-25.78 -23.35c6.82,0 15.15,3.82 16.07,15.14l-33.53 0c1.85,-10.52 9.94,-15.14 17.46,-15.14zm39.42 45.55c5.9,3.01 13.87,4.51 21.16,4.51 12.14,0 23.93,-4.97 23.93,-18.15 0,-11.79 -9.02,-14.8 -19.88,-16.65 -8.44,-1.5 -16.53,-1.5 -16.53,-7.98 0,-5.09 5.09,-7.28 12.37,-7.28 6.59,0 14.45,1.85 20.81,5.55l0 -10.41c-5.66,-3.01 -13.53,-4.51 -20.35,-4.51 -13.18,0 -23.24,5.67 -23.35,17.46 0,11.21 8.56,14.45 19.42,16.3 8.79,1.5 16.99,1.62 16.99,8.44 0,5.55 -5.09,7.86 -12.95,7.86 -7.05,0 -15.14,-1.97 -21.62,-6.01l0 10.87z"/>
  <path class="fil3" d="M349.25 420.03l0 -420.03 -300.57 0c-26.78,0 -48.68,21.91 -48.68,48.68l0 322.66c0,26.78 21.9,48.68 48.68,48.68l300.57 0z"/>
  <g id="_981806848">
   <path class="fil4" d="M99.16 161.77l8.19 -0.03c1.1,-9.09 -0.25,-20.49 0.2,-29.82 0.54,-11.12 12.01,-8.28 22.29,-8.28 14.54,0 93.77,-0.9 106.15,0.01 5.51,0.4 7.48,2.17 8.07,7.44l0.03 61c2.71,-1.03 8.02,-6.06 8.68,-8.81l0 -53.94c-1.36,-11.44 -9.02,-14.7 -21.26,-14.65l-107.86 0.01c-12.8,-0.02 -20.94,0.85 -24.16,11.69 -1.2,4.05 -1.18,30.86 -0.34,35.39z"/>
   <path class="fil4" d="M98.95 251.65c-0.61,8.07 -0.71,23.7 -0.08,31.73 0.71,9.1 6.74,14.56 15.92,15.16 4.35,0.29 117.71,0.8 124.58,-0.25 8.77,-1.34 13.45,-8.01 13.64,-17.54 0.19,-9.89 0.31,-21.2 -0.1,-31.02l-8.8 -4.54c0.21,9.15 0.08,18.39 0.09,27.55 0.02,10.85 1.54,16.96 -10.86,17.01l-109.67 -0.04c-22.77,0.06 -14,-3.76 -16.21,-38.01l-8.5 -0.06z"/>
   <path class="fil4" d="M182.59 279.21l0.1 2.52 2.1 -0.04c2.62,-2.79 7.92,-1.77 18.61,-8.76 8.25,-5.4 39.69,-35.67 43.59,-41.79l-16.09 -15.53 -27.37 28.21c-2.37,2.77 -3.94,5.25 -6.31,7.89 -5.62,6.25 -7.28,8.05 -11.3,17.06 -1.44,3.23 -1.36,8.39 -3.33,10.44z"/>
   <path class="fil4" d="M236.18 211.66c2.1,2.86 4.97,4.57 7.37,7.43 2.75,3.27 4.92,5.76 8.31,7.48 5.49,-6.34 12.44,-11.93 18.46,-18.55 4.22,-4.64 16.89,-14.6 8.21,-23.07 -9.11,-8.9 -18.71,3.6 -23.26,8.01 -6.6,6.39 -12.75,12.26 -19.09,18.71z"/>
   <path class="fil4" d="M139.57 172.67c-1.56,2.32 -1.63,2.63 -1.06,5.62 5.53,1.75 56.24,0.84 69.13,0.84 5.19,0 20.29,2.08 20.8,-3.08 0.6,-6.03 -13.18,-3.9 -18.15,-3.9 -15.23,0 -61.87,-0.99 -70.73,0.52z"/>
   <path class="fil4" d="M138.57 147.19c6.14,2.05 72.21,0.89 84.11,0.89 8.41,0 7.62,-7.03 0,-7.03l-79.13 0c-5.84,0 -6.36,0.13 -4.99,6.13z"/>
   <path class="fil4" d="M138.15 203.66l0.11 5.75c5.71,1.71 57.99,0.84 71.16,0.84 8.06,0 17.07,1.57 18.82,-5.04 -1.58,-1.57 -2.52,-2.01 -5.56,-2.01 -20,0 -67.56,-0.86 -84.53,0.45z"/>
   <path class="fil4" d="M113.22 199.92c-5.35,2.82 -0.81,3 -9.86,2.91 -2.51,-0.03 -11.3,-0.35 -13.15,0.15 -4.21,1.14 -4.04,5.78 -0.5,7.21 1.88,0.76 10.17,0.3 12.76,0.27 9.08,-0.11 4.72,0.27 9.97,2.75 13.94,6.59 13.89,-20.21 0.78,-13.29z"/>
   <path class="fil4" d="M112.02 164.46c-3.89,3.67 -19.06,-0.04 -22.8,2.16 -3.3,1.94 -3.04,6.27 1.71,7.06 2.79,0.46 10.11,0.01 13.34,0 9.21,-0.04 3.99,1.22 9.23,3.14 3.93,1.45 7.67,-0.56 8.9,-2.78 3.7,-6.65 -3.9,-15.69 -10.37,-9.58z"/>
   <path class="fil4" d="M87.71 240.24l-0.22 6.45c5.97,1.13 17.54,-0.97 22.17,1.21 2.71,1.28 2.47,4 8.51,2.73 3.65,-0.76 5.2,-2.92 5.15,-7.13 -0.04,-3.4 -2.32,-5.92 -4.48,-6.83 -5.18,-2.2 -6.27,0.42 -8.82,1.99 -4.3,2.66 -16.82,0.32 -22.31,1.57z"/>
   <path class="fil4" d="M250.38 240.71c6.89,1.75 11.11,-5.36 19.39,-13.76 4.58,-4.65 17.56,-15.43 15.37,-19.4 -3.17,-5.76 -13.53,7.81 -19.36,13.64 -6.53,6.54 -15.54,13.39 -15.4,19.52z"/>
   <polygon class="fil4" points="98.81,235.38 107.42,235.33 107.57,215.2 98.67,214.82 "/>
   <polygon class="fil4" points="98.72,198.65 107.59,198.55 107.52,178.34 98.99,178.17 "/>
   <path class="fil4" d="M184.78 281.69l-2.1 0.04 -0.1 -2.52c-0.18,0.49 -0.72,1.65 0.18,2.52 3.35,1.67 1.3,0.28 2.01,-0.03z"/>
  </g>
 </g>
</svg>
