<?xml version="1.0" encoding="UTF-8"?>
<!DOCTYPE svg PUBLIC "-//W3C//DTD SVG 1.1//EN" "http://www.w3.org/Graphics/SVG/1.1/DTD/svg11.dtd">
<!-- Creator: CorelDRAW 2017 -->
<svg xmlns="http://www.w3.org/2000/svg" xml:space="preserve" width="5.36263in" height="2.42948in" version="1.1" style="shape-rendering:geometricPrecision; text-rendering:geometricPrecision; image-rendering:optimizeQuality; fill-rule:evenodd; clip-rule:evenodd"
viewBox="0 0 290.68 131.69"
 xmlns:xlink="http://www.w3.org/1999/xlink">
 <defs>
  <style type="text/css">
   <![CDATA[
    .fil4 {fill:#FEFEFE}
    .fil3 {fill:#33A9C4}
    .fil0 {fill:#41C4E0}
    .fil1 {fill:#FEFEFE;fill-rule:nonzero}
    .fil2 {fill:#FEFEFE;fill-rule:nonzero}
   ]]>
  </style>
 </defs>
 <g id="Layer_x0020_1">
  <metadata id="CorelCorpID_0Corel-Layer"/>
  <path class="fil0" d="M15.26 0l260.15 0c8.39,0 15.26,6.87 15.26,15.26l0 101.16c0,8.39 -6.87,15.26 -15.26,15.26l-260.15 0c-8.39,0 -15.26,-6.87 -15.26,-15.26l0 -101.16c0,-8.39 6.87,-15.26 15.26,-15.26z"/>
  <path class="fil1" d="M117.67 56.3l3.16 0 0 -10.69 9.75 0 0 -2.76 -9.75 0 0 -7.79 11.09 0 0 -2.86 -14.25 0 0 24.1zm17.38 0l3 0 0 -10.65c1.03,-1.76 2.6,-2.9 4.83,-2.9 0.37,0 0.77,0.03 1.17,0.13l0 -2.96c-0.37,-0.1 -0.73,-0.13 -1.07,-0.13 -1.93,0 -3.73,0.97 -4.86,2.56l-0.07 -0.03 0 -2.4 -3 0 0 16.38zm26.2 -7.32c0.07,-0.4 0.1,-1 0.1,-1.5 0,-5.13 -3.46,-7.92 -7.46,-7.92 -4.39,0 -8.16,3.4 -8.16,8.56 0,5.16 3.8,8.56 8.86,8.56 2.13,0 4.39,-0.6 5.86,-1.53l0 -3.2c-1.5,1.13 -3.4,2.03 -5.66,2.03 -3.23,0 -5.63,-1.76 -6.06,-4.99l12.52 0zm-7.42 -6.73c1.96,0 4.36,1.1 4.63,4.36l-9.65 0c0.53,-3.03 2.86,-4.36 5.03,-4.36zm26.17 6.73c0.07,-0.4 0.1,-1 0.1,-1.5 0,-5.13 -3.46,-7.92 -7.46,-7.92 -4.39,0 -8.16,3.4 -8.16,8.56 0,5.16 3.8,8.56 8.86,8.56 2.13,0 4.39,-0.6 5.86,-1.53l0 -3.2c-1.5,1.13 -3.4,2.03 -5.66,2.03 -3.23,0 -5.63,-1.76 -6.06,-4.99l12.52 0zm-7.42 -6.73c1.96,0 4.36,1.1 4.63,4.36l-9.65 0c0.53,-3.03 2.86,-4.36 5.03,-4.36zm19.08 12.72c2.2,1.1 5.09,1.7 7.49,1.7 5.19,0 8.76,-2.83 8.76,-7.52 0,-4.26 -2.93,-5.96 -6.56,-7.16 -2.9,-0.97 -5.13,-1.13 -5.13,-3.26 0,-1.6 1.3,-2.26 3.1,-2.26 1.86,0 4.83,0.73 7.39,2.33l0 -5.23c-2.1,-1.13 -4.99,-1.73 -7.36,-1.73 -5.06,0 -8.46,2.8 -8.46,7.29 0,4.19 3,5.83 6.33,6.92 3.1,1 5.36,1.2 5.36,3.43 0,1.8 -1.43,2.56 -3.36,2.56 -1.9,0 -4.96,-0.73 -7.56,-2.4l0 5.33zm19.24 1.33l5.06 0 0 -11.02c0.9,-0.7 2.13,-1.36 3.43,-1.36 0.7,0 1.3,0.2 1.73,0.7 0.4,0.47 0.57,1.07 0.57,2.3l0 9.39 5.06 0 0 -10.22c0,-2.36 -0.43,-3.8 -1.43,-4.86 -1.03,-1.07 -2.56,-1.66 -4.29,-1.66 -2.06,0 -3.8,0.87 -4.99,1.86l-0.07 -0.03 0 -10.52 -5.06 0 0 25.44zm24 -8.19c0,-2.33 1.76,-4.19 4.06,-4.19 2.3,0 4.06,1.86 4.06,4.19 0,2.33 -1.76,4.19 -4.06,4.19 -2.3,0 -4.06,-1.86 -4.06,-4.19zm-5.06 0c0,4.83 3.9,8.56 9.12,8.56 5.23,0 9.12,-3.73 9.12,-8.56 0,-4.83 -3.9,-8.56 -9.12,-8.56 -5.23,0 -9.12,3.73 -9.12,8.56zm21.41 8.19l5.06 0 0 -9.92c1.2,-1.4 2.66,-1.93 4.43,-1.93 0.47,0 0.97,0.07 1.37,0.17l0 -4.76c-0.37,-0.1 -0.73,-0.13 -1.07,-0.13 -2.03,0 -3.63,0.83 -4.76,2.43l-0.07 -0.03 0 -2.2 -4.96 0 0 16.38zm16.18 -1.27c1.03,1.1 2.6,1.63 4.26,1.63 1.43,0 2.93,-0.4 3.7,-0.9l0 -4.03c-0.67,0.33 -1.6,0.67 -2.43,0.67 -1.53,0 -1.9,-1.2 -1.9,-2.8l0 -5.49 4.33 0 0 -4.19 -4.33 0 0 -5.13 -5.06 0.87 0 4.26 -2.66 0 0 4.19 2.66 0 0 6.03c0,2.6 0.57,3.96 1.43,4.89z"/>
  <path class="fil2" d="M140.05 101.9l5.27 0 0 -25.46 -5.38 0 0 9.46c0,2.46 0.04,4.92 0.07,7.35l-0.07 0.03c-1.58,-2.22 -3.13,-4.36 -4.78,-6.58l-7.63 -10.27 -5.27 0 0 25.46 5.38 0 0 -9.46c0,-2.46 -0.04,-4.92 -0.07,-7.35l0.07 -0.04c1.58,2.22 3.13,4.36 4.78,6.58l7.63 10.27zm14.07 -8.65c0,-2.46 1.86,-4.43 4.29,-4.43 2.43,0 4.29,1.97 4.29,4.43 0,2.46 -1.86,4.43 -4.29,4.43 -2.43,0 -4.29,-1.97 -4.29,-4.43zm-5.35 0c0,5.1 4.11,9.04 9.64,9.04 5.52,0 9.64,-3.94 9.64,-9.04 0,-5.1 -4.11,-9.04 -9.64,-9.04 -5.52,0 -9.64,3.94 -9.64,9.04zm25.42 7.31c1.09,1.16 2.74,1.72 4.5,1.72 1.51,0 3.09,-0.42 3.9,-0.95l0 -4.25c-0.7,0.35 -1.69,0.7 -2.57,0.7 -1.62,0 -2,-1.27 -2,-2.95l0 -5.8 4.57 0 0 -4.43 -4.57 0 0 -5.42 -5.35 0.91 0 4.5 -2.81 0 0 4.43 2.81 0 0 6.36c0,2.74 0.6,4.18 1.51,5.17zm27.57 -5.91c0.07,-0.46 0.11,-1.23 0.11,-1.83 0,-5.8 -4.01,-8.62 -8.26,-8.62 -4.78,0 -9.07,3.59 -9.07,9.11 0,5.42 4.11,8.97 9.81,8.97 2.29,0 4.89,-0.53 6.58,-1.58l0 -4.47c-1.83,1.23 -3.94,1.9 -5.87,1.9 -2.46,0 -4.43,-1.09 -5.03,-3.48l11.75 0zm-8.23 -6.36c1.72,0 3.09,1.13 3.41,2.99l-6.96 0c0.46,-1.97 1.9,-2.99 3.55,-2.99zm11.39 12.59c2.04,0.98 4.68,1.41 6.75,1.41 4.43,0 7.74,-2.07 7.77,-5.87 0,-2.99 -2,-4.26 -5.31,-5.06 -2.57,-0.63 -4.43,-0.53 -4.43,-1.79 0,-0.81 0.84,-1.23 2.25,-1.23 1.55,0 4.22,0.56 6.51,1.86l0 -4.61c-1.97,-0.95 -4.54,-1.37 -6.61,-1.37 -4.29,0 -7.53,2.07 -7.56,5.73 0,2.85 1.93,4.22 5.2,5.03 2.6,0.67 4.54,0.53 4.54,1.86 0,0.95 -0.88,1.34 -2.36,1.34 -1.65,0 -4.4,-0.6 -6.75,-1.97l0 4.68z"/>
  <path class="fil3" d="M109.5 131.69l0 -131.69 -94.23 0c-8.4,0 -15.26,6.87 -15.26,15.26l0 101.16c0,8.4 6.87,15.26 15.26,15.26l94.23 0z"/>
  <g id="_980099056">
   <path class="fil4" d="M34.9 69.88c-0.42,-2.57 -0.83,-5.15 -1.25,-7.72 -0.43,-2.64 -0.76,-5.1 -1.19,-7.73 -0.16,-1.02 -1.52,-9.03 -1.55,-9.62 -0.02,-0.47 -0.24,-1.5 -0.2,-1.88 0.02,-0.22 -0.02,-0.26 0.64,-0.4 0.32,-0.07 0.66,-0.1 0.98,-0.16l28.68 -4.71 1.59 9.43c0.08,0.49 0.11,1.15 0.34,1.48 0.66,0.93 1.5,1.84 2.68,2.14 0.72,0.18 1.99,-0.03 2.95,-0.18l8.53 -1.32 5.9 36.79c0.1,0.6 0.3,1.5 0.33,2.08 0.02,0.33 0.06,0.6 0.11,1 0.01,0.09 0.02,0.38 0.01,0.44 -0.03,0.21 -0.04,0.21 -0.28,0.28 -1.22,0.38 -2.76,0.45 -4.09,0.74 -0.33,0.07 -0.55,0.15 -0.97,0.22l-28.69 4.65c-1.51,0.24 -3.19,0.62 -4.62,0.69 -0.51,0.02 -2.69,0.43 -3.49,0.56 -0.45,0.07 -0.76,0.07 -1.11,0.12 -0.8,0.11 -0.78,0.29 -1.05,-1.4 -0.07,-0.44 -0.17,-0.62 -0.24,-1.09 -1.28,-8.14 -2.69,-16.22 -4.01,-24.39zm49.11 22.74l-39.8 6.45c-1.27,0.21 -2.39,0.32 -3.62,0.52 -0.66,0.11 -1.15,0.19 -1.65,0.04 -0.46,-0.14 -0.79,-0.31 -1.16,-0.57 -1.32,-0.96 -1.04,-1.75 -1.31,-2.61 -0.27,-0.85 -0.46,-2.6 -0.62,-3.58 -0.78,-4.8 -1.6,-9.46 -2.38,-14.29l-5.76 -35.54c-0.03,-0.22 0.3,-1.18 0.39,-1.4 0.69,-1.63 2.04,-1.89 3.75,-2.17 2.47,-0.4 4.78,-0.84 7.29,-1.24l23.17 -3.76c0.21,-0.03 0.95,0.6 1.14,0.74l11.83 8.53c0.25,0.18 4.24,2.94 4.27,3.16l6.87 42.42c0.08,0.48 -0.42,1.52 -0.76,2 -0.21,0.3 -0.39,0.5 -0.7,0.74 -0.24,0.18 -0.62,0.5 -0.96,0.55z"/>
   <path class="fil4" d="M40.83 59.48l0.44 2.7 29.67 -4.81 -0.46 -2.82 -27.53 4.46c-0.6,0.1 -1.67,0.28 -2.13,0.47z"/>
   <path class="fil4" d="M44.53 82.72c2.29,-0.37 4.38,-0.77 6.67,-1.14l23.05 -3.74c-0.16,-0.99 -0.23,-1.78 -0.39,-2.77l-29.79 4.83 0.46 2.82z"/>
   <polygon class="fil4" points="42.31,68.99 72.1,64.16 71.66,61.41 41.86,66.23 "/>
   <polygon class="fil4" points="43.41,75.8 73.21,70.97 72.76,68.21 42.96,73.04 "/>
   <polygon class="fil4" points="45.63,89.47 75.42,84.64 74.97,81.88 45.18,86.71 "/>
   <polygon class="fil4" points="40.18,55.24 59.58,52.1 59.12,49.46 39.78,52.59 "/>
   <path class="fil4" d="M39.78 52.59l19.35 -3.14 0.45 2.64 -19.4 3.14 -0.4 -2.65zm0.32 2.73l19.56 -3.17 -0.45 -2.76 -19.56 3.17 0.45 2.76z"/>
  </g>
 </g>
</svg>
