<?xml version="1.0" encoding="UTF-8"?>
<!DOCTYPE svg PUBLIC "-//W3C//DTD SVG 1.1//EN" "http://www.w3.org/Graphics/SVG/1.1/DTD/svg11.dtd">
<!-- Creator: CorelDRAW 2017 -->
<svg xmlns="http://www.w3.org/2000/svg" xml:space="preserve" width="5.36263in" height="2.42948in" version="1.1" style="shape-rendering:geometricPrecision; text-rendering:geometricPrecision; image-rendering:optimizeQuality; fill-rule:evenodd; clip-rule:evenodd"
viewBox="0 0 339.7 153.9"
 xmlns:xlink="http://www.w3.org/1999/xlink">
 <defs>
  <style type="text/css">
   <![CDATA[
    .fil4 {fill:#FEFEFE}
    .fil3 {fill:#E6B631}
    .fil0 {fill:#FFCE43}
    .fil1 {fill:#FEFEFE;fill-rule:nonzero}
    .fil2 {fill:#FEFEFE;fill-rule:nonzero}
   ]]>
  </style>
 </defs>
 <g id="Layer_x0020_1">
  <metadata id="CorelCorpID_0Corel-Layer"/>
  <path class="fil0" d="M17.84 0l304.03 0c9.81,0 17.84,8.03 17.84,17.84l0 118.22c0,9.81 -8.03,17.84 -17.84,17.84l-304.03 0c-9.81,0 -17.84,-8.03 -17.84,-17.84l0 -118.22c0,-9.81 8.03,-17.84 17.84,-17.84z"/>
  <path class="fil1" d="M136.72 65.68l3.7 0 0 -12.49 11.4 0 0 -3.23 -11.4 0 0 -9.1 12.96 0 0 -3.35 -16.65 0 0 28.17zm20.31 0l3.5 0 0 -12.45c1.21,-2.06 3.03,-3.39 5.64,-3.39 0.43,0 0.89,0.04 1.36,0.16l0 -3.46c-0.43,-0.12 -0.86,-0.16 -1.24,-0.16 -2.26,0 -4.36,1.13 -5.68,3l-0.08 -0.04 0 -2.8 -3.5 0 0 19.14zm30.62 -8.56c0.08,-0.47 0.12,-1.17 0.12,-1.75 0,-5.99 -4.05,-9.26 -8.72,-9.26 -5.14,0 -9.53,3.97 -9.53,10 0,6.03 4.44,10 10.35,10 2.49,0 5.14,-0.7 6.85,-1.79l0 -3.74c-1.75,1.32 -3.97,2.37 -6.61,2.37 -3.77,0 -6.58,-2.06 -7.08,-5.84l14.63 0zm-8.68 -7.86c2.3,0 5.1,1.28 5.41,5.1l-11.28 0c0.62,-3.54 3.35,-5.1 5.88,-5.1zm30.58 7.86c0.08,-0.47 0.12,-1.17 0.12,-1.75 0,-5.99 -4.05,-9.26 -8.72,-9.26 -5.14,0 -9.53,3.97 -9.53,10 0,6.03 4.44,10 10.35,10 2.49,0 5.14,-0.7 6.85,-1.79l0 -3.74c-1.75,1.32 -3.97,2.37 -6.61,2.37 -3.77,0 -6.58,-2.06 -7.08,-5.84l14.63 0zm-8.68 -7.86c2.3,0 5.1,1.28 5.41,5.1l-11.28 0c0.62,-3.54 3.35,-5.1 5.88,-5.1zm21.28 2.45c0,8.29 6.34,14.4 15.37,14.4 3.5,0 7.04,-0.93 9.57,-2.33l0 -13.07 -10.89 0 0 5.14 4.9 0 0 4.24c-0.93,0.39 -2.18,0.62 -3.46,0.62 -5.8,0 -9.3,-4.12 -9.3,-9.03 0,-5.02 3.66,-9.03 9.34,-9.03 3.07,0 6.15,1.17 8.52,2.8l0 -6.23c-2.18,-1.21 -5.17,-2.14 -8.64,-2.14 -8.99,0 -15.41,6.3 -15.41,14.63zm29.65 12.41c2.57,1.28 5.95,1.98 8.75,1.98 6.07,0 10.23,-3.31 10.23,-8.79 0,-4.98 -3.42,-6.96 -7.66,-8.37 -3.39,-1.13 -5.99,-1.32 -5.99,-3.81 0,-1.87 1.52,-2.65 3.62,-2.65 2.18,0 5.64,0.86 8.64,2.72l0 -6.11c-2.45,-1.32 -5.84,-2.02 -8.6,-2.02 -5.91,0 -9.88,3.27 -9.88,8.52 0,4.9 3.5,6.81 7.39,8.09 3.62,1.17 6.26,1.4 6.26,4.01 0,2.1 -1.67,3 -3.93,3 -2.22,0 -5.8,-0.86 -8.83,-2.8l0 6.23zm29.69 1.56l6.19 0 0 -22.76 9.1 0 0 -5.41 -24.4 0 0 5.41 9.1 0 0 22.76z"/>
  <path class="fil2" d="M141.85 104.29c0,8.71 6.53,15.25 15.58,15.25 3.12,0 6.37,-0.78 8.75,-2.3l0 -4.32c-2.34,1.89 -5.26,3 -8.55,3 -7.11,0 -11.88,-5.1 -11.88,-11.71 0,-6.62 4.77,-11.71 11.55,-11.71 3.16,0 6.21,1.11 8.42,2.75l0 -4.27c-2.34,-1.32 -5.26,-2.1 -8.38,-2.1 -9.33,0 -15.49,6.95 -15.49,15.41zm29.55 14.79l3.7 0 0 -31.4 -3.7 0 0 31.4zm15.78 0.45c2.71,0 5.05,-1.15 6.21,-2.22l0.08 0c0.78,1.44 2.3,2.14 3.9,2.14 0.78,0 1.48,-0.16 1.97,-0.37l0 -3.08c-0.33,0.16 -0.78,0.29 -1.19,0.29 -1.11,0 -1.56,-0.9 -1.56,-2.14l0 -8.59c0,-2.51 -0.82,-4.23 -2.01,-5.3 -1.44,-1.32 -3.58,-1.85 -6.04,-1.85 -3,0 -5.18,0.78 -6.74,1.73l0 3.62c1.52,-1.11 3.66,-2.01 6.21,-2.01 1.73,0 2.96,0.41 3.74,1.11 0.78,0.74 1.15,1.85 1.15,3.33l0 1.69c-1.32,-0.33 -2.75,-0.53 -4.32,-0.53 -2.1,0 -4.15,0.37 -5.67,1.36 -1.6,1.03 -2.67,2.67 -2.67,4.93 0,1.97 0.82,3.49 2.14,4.48 1.36,1.03 3.16,1.44 4.81,1.44zm0.66 -3.29c-2.18,0 -3.86,-0.99 -3.86,-2.96 0,-2.38 2.47,-3.12 4.97,-3.12 1.27,0 2.84,0.21 3.95,0.53l0 3.78c-1.23,0.99 -3.12,1.77 -5.05,1.77zm15.08 1.68c2.1,1.07 4.93,1.6 7.52,1.6 4.32,0 8.51,-1.77 8.51,-6.45 0,-4.19 -3.21,-5.26 -7.07,-5.92 -3,-0.53 -5.88,-0.53 -5.88,-2.84 0,-1.81 1.81,-2.59 4.4,-2.59 2.34,0 5.14,0.66 7.4,1.97l0 -3.7c-2.01,-1.07 -4.81,-1.6 -7.23,-1.6 -4.68,0 -8.26,2.01 -8.3,6.21 0,3.99 3.04,5.14 6.9,5.79 3.12,0.53 6.04,0.58 6.04,3 0,1.97 -1.81,2.79 -4.6,2.79 -2.51,0 -5.38,-0.7 -7.68,-2.14l0 3.86zm20.51 0c2.1,1.07 4.93,1.6 7.52,1.6 4.32,0 8.51,-1.77 8.51,-6.45 0,-4.19 -3.21,-5.26 -7.07,-5.92 -3,-0.53 -5.88,-0.53 -5.88,-2.84 0,-1.81 1.81,-2.59 4.4,-2.59 2.34,0 5.14,0.66 7.4,1.97l0 -3.7c-2.01,-1.07 -4.81,-1.6 -7.23,-1.6 -4.68,0 -8.26,2.01 -8.3,6.21 0,3.99 3.04,5.14 6.9,5.79 3.12,0.53 6.04,0.58 6.04,3 0,1.97 -1.81,2.79 -4.6,2.79 -2.51,0 -5.38,-0.7 -7.68,-2.14l0 3.86zm38.79 -7.89c0.08,-0.49 0.12,-1.23 0.12,-1.85 0,-6.33 -4.27,-9.78 -9.21,-9.78 -5.42,0 -10.07,4.19 -10.07,10.56 0,6.37 4.68,10.56 10.93,10.56 2.63,0 5.42,-0.74 7.23,-1.89l0 -3.95c-1.85,1.4 -4.19,2.51 -6.99,2.51 -3.99,0 -6.95,-2.18 -7.48,-6.16l15.45 0zm-9.16 -8.3c2.42,0 5.38,1.36 5.71,5.38l-11.92 0c0.66,-3.74 3.53,-5.38 6.21,-5.38zm14.01 16.19c2.1,1.07 4.93,1.6 7.52,1.6 4.32,0 8.51,-1.77 8.51,-6.45 0,-4.19 -3.21,-5.26 -7.07,-5.92 -3,-0.53 -5.88,-0.53 -5.88,-2.84 0,-1.81 1.81,-2.59 4.4,-2.59 2.34,0 5.14,0.66 7.4,1.97l0 -3.7c-2.01,-1.07 -4.81,-1.6 -7.23,-1.6 -4.68,0 -8.26,2.01 -8.3,6.21 0,3.99 3.04,5.14 6.9,5.79 3.12,0.53 6.04,0.58 6.04,3 0,1.97 -1.81,2.79 -4.6,2.79 -2.51,0 -5.38,-0.7 -7.68,-2.14l0 3.86z"/>
  <path class="fil3" d="M127.96 153.9l0 -153.9 -110.13 0c-9.81,0 -17.84,8.03 -17.84,17.84l0 118.22c0,9.81 8.03,17.84 17.84,17.84l110.13 0z"/>
  <g id="_981800064">
   <path class="fil4" d="M45.49 55.11c0.14,-0.31 0.04,-0.15 0.27,-0.41l4.14 -4.13c0.77,-0.75 1.45,-1.46 2.22,-2.22 0.43,-0.42 1.8,-1.98 2.36,-2.2l-0.02 8.96 -8.97 0zm18.4 48.28l-20.26 -0.01 -0.02 -45.79c2.57,-0.13 7.02,-0.01 9.93,-0.01 0.97,0 2.41,0.21 3,-0.36 0.59,-0.56 0.39,-1.92 0.39,-2.91 0,-3.19 -0.09,-7.02 0.01,-10.07l30.46 0 0.01 35.62 2.02 -1.98c0.31,-0.29 0.44,-0.3 0.45,-0.89 0.01,-1.87 -0.01,-3.75 -0.01,-5.63l0 -27.9c0,-0.91 -0.21,-1.54 -1.05,-1.67 -0.67,-0.1 -2.1,-0.02 -2.85,-0.02 -7.46,0 -14.92,0 -22.38,0 -1.84,0 -3.68,0.01 -5.52,0 -3.07,-0.02 -2.62,-0.2 -4.22,1.41 -1.9,1.9 -3.73,3.72 -5.62,5.62 -1.87,1.89 -3.7,3.68 -5.57,5.57 -1.54,1.56 -1.52,0.99 -1.52,3.98 0,14.87 -0.08,29.9 0,44.76 0.02,2.78 0.07,2.73 2.84,2.73 3.71,0 7.44,0.04 11.14,-0 1.86,-0.02 3.76,-0.02 5.62,0 1.02,0.01 0.66,0.04 1.73,-1 0.35,-0.34 1.19,-1.11 1.41,-1.45z"/>
   <path class="fil4" d="M73.25 108.82c0.02,0.01 0.05,0.02 0.07,0.03l0.23 0.07c1.87,0.49 2.14,2.01 1.34,3.22 0.49,-0.33 1.26,-1.2 1.71,-1.65l25.32 -25.32c-0.37,-0.51 -1.87,-1.84 -2.47,-2.53 -0.55,0.49 -1.11,1.08 -1.66,1.63l-8.18 8.19c-3.26,3.19 -6.56,6.64 -9.81,9.8 -1.12,1.09 -2.2,2.18 -3.3,3.31l-3.25 3.26z"/>
   <path class="fil4" d="M95.8 79.06c-0.18,-0.32 -2.13,-2.21 -2.5,-2.52 -1.02,1.15 -2.26,2.3 -3.37,3.41l-23.54 23.53c0.82,-0.35 1.45,-0.52 2.27,-0.01 0.91,0.58 0.8,1.42 0.96,1.77 8.77,-8.79 17.41,-17.43 26.19,-26.19z"/>
   <path class="fil4" d="M98.74 81.94l-2.3 -2.26 -26.31 26.35c1.44,-0.03 2.37,0.78 2.29,2.29l26.32 -26.38z"/>
   <path class="fil4" d="M94 75.74c0.17,0.34 -0.11,0.14 0.49,0.71 0.21,0.2 0.34,0.34 0.54,0.54l3.2 3.2c1.41,1.41 2.83,2.93 4.28,4.27 0.42,-0.18 1.98,-1.87 2.42,-2.32 0.65,-0.66 1.86,-1.72 2.36,-2.4 -0.19,-0.41 -8.3,-8.46 -8.64,-8.6l-4.65 4.59z"/>
   <path class="fil4" d="M51.64 62.89c-0.34,0.19 -1.06,1.23 -1.3,1.71 -1.11,2.17 -0.76,5.25 0.76,7.13 0.85,1.05 2.22,1.75 4.17,1.97 1.33,0.15 4.25,-0.08 5.35,-0.66l-0.02 -6.51 -4.6 0.01 -0.01 2.19 1.91 -0 -0.02 2.62c-3.42,0.75 -5.81,-1.51 -5.15,-4.92 0.27,-1.39 1.2,-2.37 2.46,-2.76 1.69,-0.53 2.96,-0.11 4.44,0.29l0.57 -2.22c-0.81,-0.5 -2.85,-0.66 -4.01,-0.6 -0.9,0.05 -2.93,0.48 -3.45,0.98 -0.47,0.22 -0.82,0.49 -1.11,0.79z"/>
   <path class="fil4" d="M50.54 81.67c2.72,-0.11 5.68,-0.01 8.43,-0.01l21.1 0c1.42,0 1.5,0.16 1.51,-0.43 0.04,-2.28 0.21,-2.05 -1.02,-2.03 -9.82,0.1 -20.15,-0 -30.05,-0.01l0.03 2.48z"/>
   <path class="fil4" d="M69.66 63.92c0.19,-0.32 0.57,-1.75 0.65,-2.22 -1.43,-0.98 -4.78,-0.81 -6.18,0.13 -0.7,0.47 -1.34,1.12 -1.57,2.17 -0.92,4.24 4.9,4.2 5.36,5.81 0.36,1.27 -0.94,1.71 -2.05,1.69 -1.29,-0.02 -1.99,-0.42 -2.97,-0.75l-0.53 2.28c1.48,0.95 4.61,0.98 6.23,0.27 2.13,-0.94 2.75,-3.21 1.87,-4.96 -0.94,-1.86 -3.4,-2.01 -4.59,-2.9 -0.98,-0.74 -0.55,-1.84 0.7,-2.06 0.86,-0.15 2.59,0.13 3.09,0.54z"/>
   <polygon class="fil4" points="50.54,88.26 74.8,88.25 74.78,85.8 50.49,85.8 "/>
   <polygon class="fil4" points="71.8,63.59 75.15,63.6 75.16,73.63 77.95,73.59 77.99,63.6 81.32,63.59 81.29,61.24 71.8,61.24 "/>
   <path class="fil4" d="M83.17 105.81c1.02,0.09 2.35,0.03 3.4,0.03 3.43,-0 3.31,0.36 3.31,-3.32 0,-1.11 0.01,-2.23 -0.01,-3.34 -0.35,0.15 -1.33,1.25 -1.68,1.61 -1.07,1.08 -0.71,0.66 -0.78,2.57 -2.56,0.25 -0.93,-0.77 -4.24,2.45z"/>
   <path class="fil4" d="M63.13 115.32c0.52,-0.05 6.13,-1.51 6.36,-1.66l-4.74 -4.7 -1.62 6.36z"/>
  </g>
 </g>
</svg>
