<?xml version="1.0" encoding="UTF-8"?>
<!DOCTYPE svg PUBLIC "-//W3C//DTD SVG 1.1//EN" "http://www.w3.org/Graphics/SVG/1.1/DTD/svg11.dtd">
<!-- Creator: CorelDRAW 2017 -->
<svg xmlns="http://www.w3.org/2000/svg" xml:space="preserve" width="5.36263in" height="2.42948in" version="1.1" style="shape-rendering:geometricPrecision; text-rendering:geometricPrecision; image-rendering:optimizeQuality; fill-rule:evenodd; clip-rule:evenodd"
viewBox="0 0 404.91 183.44"
 xmlns:xlink="http://www.w3.org/1999/xlink">
 <defs>
  <style type="text/css">
   <![CDATA[
    .fil4 {fill:#FEFEFE}
    .fil3 {fill:#89B823}
    .fil0 {fill:#A9CF55}
    .fil1 {fill:#FEFEFE;fill-rule:nonzero}
    .fil2 {fill:#FEFEFE;fill-rule:nonzero}
   ]]>
  </style>
 </defs>
 <g id="Layer_x0020_1">
  <metadata id="CorelCorpID_0Corel-Layer"/>
  <path class="fil0" d="M21.26 0l362.39 0c11.69,0 21.26,9.57 21.26,21.26l0 140.92c0,11.69 -9.57,21.26 -21.26,21.26l-362.39 0c-11.69,0 -21.26,-9.57 -21.26,-21.26l0 -140.92c0,-11.69 9.57,-21.26 21.26,-21.26z"/>
  <path class="fil1" d="M175.45 78.29l11.15 0c6.1,0 10.16,-0.7 13.12,-2.79 3.08,-2.15 4.82,-5.63 4.82,-9.64 0,-5.4 -3.13,-8.65 -8.07,-9.81l0 -0.12c3.48,-1.22 6.39,-4.06 6.39,-8.88 0,-3.77 -1.74,-6.68 -4.93,-8.59 -2.84,-1.74 -6.1,-2.21 -11.2,-2.21l-11.26 0 0 42.03zm5.52 -23.69l0 -13.35 4.99 0c4.18,0 6.44,0.29 8.42,1.45 1.74,1.04 2.96,2.73 2.96,5.34 0,4.59 -3.83,6.56 -8.07,6.56l-8.3 0zm0 18.69l0 -14.46 8.13 0c6.27,0 9.93,2.5 9.93,7.14 0,2.84 -1.39,4.59 -2.73,5.52 -1.92,1.34 -4.59,1.8 -9.35,1.8l-5.98 0zm29.2 -9.29c0,8.42 6.44,14.92 15.09,14.92 8.65,0 15.09,-6.5 15.09,-14.92 0,-8.42 -6.44,-14.92 -15.09,-14.92 -8.65,0 -15.09,6.5 -15.09,14.92zm5.23 0c0,-5.75 4.18,-10.16 9.87,-10.16 5.69,0 9.87,4.41 9.87,10.16 0,5.75 -4.18,10.16 -9.87,10.16 -5.69,0 -9.87,-4.41 -9.87,-10.16zm40.06 14.92c3.83,0 7.14,-1.63 8.77,-3.13l0.12 0c1.1,2.03 3.25,3.02 5.52,3.02 1.1,0 2.09,-0.23 2.79,-0.52l0 -4.35c-0.46,0.23 -1.1,0.41 -1.68,0.41 -1.57,0 -2.21,-1.28 -2.21,-3.02l0 -12.13c0,-3.54 -1.16,-5.98 -2.84,-7.49 -2.03,-1.86 -5.05,-2.61 -8.53,-2.61 -4.24,0 -7.32,1.1 -9.52,2.44l0 5.11c2.15,-1.57 5.17,-2.84 8.77,-2.84 2.44,0 4.18,0.58 5.28,1.57 1.1,1.04 1.63,2.61 1.63,4.7l0 2.38c-1.86,-0.46 -3.89,-0.75 -6.1,-0.75 -2.96,0 -5.86,0.52 -8.01,1.92 -2.26,1.45 -3.77,3.77 -3.77,6.97 0,2.79 1.16,4.93 3.02,6.33 1.92,1.45 4.47,2.03 6.79,2.03zm0.93 -4.64c-3.08,0 -5.46,-1.39 -5.46,-4.18 0,-3.37 3.48,-4.41 7.02,-4.41 1.8,0 4.01,0.29 5.57,0.75l0 5.34c-1.74,1.39 -4.41,2.5 -7.14,2.5zm22.06 4.01l5.23 0 0 -18.58c1.8,-3.08 4.53,-5.05 8.42,-5.05 0.64,0 1.34,0.06 2.03,0.23l0 -5.17c-0.64,-0.17 -1.28,-0.23 -1.86,-0.23 -3.37,0 -6.5,1.68 -8.48,4.47l-0.12 -0.06 0 -4.18 -5.23 0 0 28.56zm18.75 -13.82c0,8.82 6.27,14.46 13.99,14.46 3.43,0 6.1,-1.1 8.01,-2.44l0.12 0.06 0 1.74 5.23 0 0 -44.35 -5.23 0 0 16.6 -0.12 0.06c-1.86,-0.81 -4.01,-1.51 -6.85,-1.51 -9,0 -15.15,6.62 -15.15,15.38zm5.28 -0.29c0,-5.86 3.77,-10.45 9.81,-10.45 2.55,0 5.11,0.81 7.02,1.8l0 16.31c-2.03,1.39 -4.59,2.44 -7.43,2.44 -5.86,0 -9.4,-4.41 -9.4,-10.1z"/>
  <path class="fil2" d="M182.58 141.94l4.65 0 0 -14.01 3.67 0c4.56,0 8.67,-0.15 11.76,-2.01 2.84,-1.71 4.8,-4.8 4.8,-8.82 0,-4.16 -2.06,-7.05 -5.14,-8.77 -3.09,-1.71 -6.71,-1.86 -10.48,-1.86l-9.26 0 0 35.46zm4.65 -18.08l0 -13.18 4.21 0c3.33,0 5.93,0.05 8.08,1.13 2.01,1.03 3.28,2.84 3.28,5.49 0,2.4 -1.08,4.16 -2.84,5.24 -1.96,1.18 -4.31,1.32 -8.47,1.32l-4.26 0zm31.5 18.61c3.23,0 6.03,-1.37 7.4,-2.65l0.1 0c0.93,1.71 2.74,2.55 4.65,2.55 0.93,0 1.76,-0.2 2.35,-0.44l0 -3.67c-0.39,0.2 -0.93,0.34 -1.42,0.34 -1.32,0 -1.86,-1.08 -1.86,-2.55l0 -10.24c0,-2.99 -0.98,-5.05 -2.4,-6.32 -1.71,-1.57 -4.26,-2.2 -7.2,-2.2 -3.58,0 -6.17,0.93 -8.03,2.06l0 4.31c1.81,-1.32 4.36,-2.4 7.4,-2.4 2.06,0 3.53,0.49 4.46,1.32 0.93,0.88 1.37,2.2 1.37,3.97l0 2.01c-1.57,-0.39 -3.28,-0.64 -5.14,-0.64 -2.5,0 -4.95,0.44 -6.76,1.62 -1.91,1.22 -3.18,3.18 -3.18,5.88 0,2.35 0.98,4.16 2.55,5.34 1.62,1.22 3.77,1.71 5.73,1.71zm0.78 -3.92c-2.6,0 -4.6,-1.18 -4.6,-3.53 0,-2.84 2.94,-3.72 5.93,-3.72 1.52,0 3.38,0.24 4.7,0.64l0 4.51c-1.47,1.18 -3.72,2.11 -6.03,2.11zm22.29 1.67c1.57,1.81 3.72,2.25 5.49,2.25 1.67,0 3.38,-0.39 4.36,-0.88l0 -4.16c-0.93,0.59 -2.35,1.03 -3.62,1.03 -3.18,0 -3.62,-2.74 -3.62,-5.73l0 -10.92 7.25 0 0 -3.97 -7.25 0 0 -7.3 -4.41 0.73 0 6.56 -4.46 0 0 3.97 4.46 0 0 11.76c0,3.38 0.64,5.34 1.81,6.66zm19.05 0c1.57,1.81 3.72,2.25 5.49,2.25 1.67,0 3.38,-0.39 4.36,-0.88l0 -4.16c-0.93,0.59 -2.35,1.03 -3.62,1.03 -3.18,0 -3.62,-2.74 -3.62,-5.73l0 -10.92 7.25 0 0 -3.97 -7.25 0 0 -7.3 -4.41 0.73 0 6.56 -4.46 0 0 3.97 4.46 0 0 11.76c0,3.38 0.64,5.34 1.81,6.66zm35.95 -9.06c0.1,-0.59 0.15,-1.47 0.15,-2.2 0,-7.54 -5.09,-11.66 -10.97,-11.66 -6.47,0 -12,5 -12,12.59 0,7.59 5.58,12.59 13.03,12.59 3.13,0 6.47,-0.88 8.62,-2.25l0 -4.7c-2.2,1.67 -5,2.99 -8.33,2.99 -4.75,0 -8.28,-2.6 -8.92,-7.35l18.42 0zm-10.92 -9.89c2.89,0 6.42,1.62 6.81,6.42l-14.21 0c0.78,-4.46 4.21,-6.42 7.4,-6.42zm17.34 20.67l4.41 0 0 -15.67c1.52,-2.6 3.82,-4.26 7.1,-4.26 0.54,0 1.13,0.05 1.71,0.2l0 -4.36c-0.54,-0.15 -1.08,-0.2 -1.57,-0.2 -2.84,0 -5.49,1.42 -7.15,3.77l-0.1 -0.05 0 -3.53 -4.41 0 0 24.1zm17.98 0l4.41 0 0 -16.51c1.71,-2.3 4.8,-4.02 7.54,-4.02 1.32,0 2.89,0.39 3.87,1.57 0.78,0.93 1.13,2.4 1.13,4.9l0 14.06 4.41 0 0 -14.89c0,-3.72 -0.69,-5.58 -2.01,-7.1 -1.52,-1.71 -3.77,-2.65 -6.42,-2.65 -3.38,0 -6.32,1.52 -8.43,3.62l-0.1 -0.05 0 -3.04 -4.41 0 0 24.1z"/>
  <path class="fil3" d="M152.53 183.44l0 -183.44 -131.27 0c-11.69,0 -21.26,9.57 -21.26,21.26l0 140.92c0,11.69 9.57,21.26 21.26,21.26l131.27 0z"/>
  <path class="fil4" d="M85.2 125.63l-12.19 0 -4.32 -7.66c-2.13,-3.5 -1.91,-2.3 -0.24,-5.31l4.56 -8.05 12.19 0c0.26,1.11 5.79,9.76 5.79,10.51l-4.33 7.77c-0.37,0.65 -1.29,2.01 -1.46,2.74zm20.6 -11.98l-12.19 0c-5.99,-11.32 -7,-8.76 -4.58,-12.78l4.58 -8.03 12.19 0c0.17,0.72 2.33,4.24 2.85,5.13 1.04,1.77 1.95,3.55 3.03,5.17 -0.18,0.69 -1.01,1.88 -1.4,2.59 -0.54,1 -1.04,1.73 -1.54,2.66l-2.94 5.25zm-52.96 -20.81l11.14 0c0.73,0 1.16,1.2 1.75,2.25l4.62 7.96c0.13,0.59 -2.42,4.62 -2.75,5.18l-2.98 5.42 -12.4 0c-0.15,-0.63 -0.27,-0.79 -0.59,-1.3 -0.65,-1.06 -5.31,-8.64 -5.14,-9.29l2.99 -5.17c0.32,-0.59 2.58,-5.04 3.36,-5.04zm31.95 8.83l-11.35 0c-0.55,0 -0.68,-0.43 -0.97,-0.92l-2.32 -3.98c-0.41,-0.75 -3.01,-5.02 -3.01,-5.39l5.16 -9.13c0.31,-0.5 0.58,-0.86 0.72,-1.38l11.98 0c0.64,1.21 6.05,9.91 6.03,10.48 -0.02,0.49 -4.4,7.61 -5.25,9.21 -0.29,0.56 -0.34,1.11 -0.99,1.11zm21.02 -11.77l-12.19 0 -5.88 -10.51 5.31 -9.4c1.03,-1.77 1.87,-1.02 4.37,-0.94l2.5 -0.17c0.89,0 1.17,0.15 1.7,0.17 3.19,0.09 3.45,-1.38 5.23,1.93l4.65 7.98c0.38,0.99 -2.11,4.47 -2.62,5.4 -0.58,1.07 -2.89,4.72 -3.08,5.54zm-59.48 -10.51c0.03,-0.04 0.08,-0.15 0.09,-0.12l4.54 -7.86c1.96,-3.4 1.01,-2.47 4.42,-2.36l2.5 -0.17c0.89,0 1.17,0.15 1.7,0.17 0.87,0.03 2.56,-0.44 4.41,0.02 0.57,0.14 0.52,-0.13 1.18,1.14l3.52 6.15c0.31,0.53 0.56,0.91 0.87,1.44l0.66 1.23c0.26,0.4 0.08,0.15 0.27,0.36l-5.39 9.32c-0.28,0.54 -0.44,1.19 -1.13,1.19l-11.14 0c-0.81,0 -3,-4.45 -3.35,-5.06l-3.16 -5.45zm26.69 -22.28l12.19 0c0.24,0.89 5.93,10.11 5.89,10.51l-5.31 9.19c-0.3,0.56 -0.34,1.11 -0.99,1.11l-11.35 0c-0.55,0 -0.68,-0.43 -0.97,-0.92l-5.25 -9.25c-0.13,-0.71 0.85,-1.98 1.22,-2.6 0.56,-0.93 0.95,-1.72 1.52,-2.68 1.08,-1.83 2.1,-3.51 3.06,-5.34zm-8.62 9.04l-12.83 -0.01c-0.78,0.06 -0.98,0.2 -1.36,0.74 -0.38,0.54 -0.49,0.9 -0.83,1.48 -0.72,1.22 -6.22,10.53 -6.22,11.02 0,0.77 5.92,10.46 6.73,11.98 -0.54,0.81 -6.73,11.31 -6.73,11.98 0,0.45 5.54,9.87 6.22,11.02 1.62,2.74 0.48,2.22 6.39,2.22 2.87,0 5.74,0 8.62,0l3.65 6.23c0.62,1.14 1.21,2.12 1.83,3.21 0.53,0.93 1.15,2.53 2.51,2.53l13.24 0c1.4,0 1.86,-1.39 2.46,-2.38l5.53 -9.6 12.62 0.01c1.43,-0.06 1.54,-0.56 2.37,-2.05l4.6 -8.22c2.16,-3.57 2.06,-2.62 -1.81,-9.2 -3.94,-6.7 -3.89,-5.02 -1.71,-8.61 0.99,-1.64 4.95,-8.07 4.95,-9.13 0,-0.85 -0.97,-2.11 -1.38,-2.82 -0.59,-1.01 -1.01,-1.84 -1.6,-2.81 -1.11,-1.85 -2.05,-3.61 -3.15,-5.46 -1.64,-2.75 -0.77,-2.14 -6.47,-2.14 -2.87,0 -5.74,0 -8.62,0 -0.16,-0.71 -1.31,-2.57 -1.75,-3.3l-4.64 -7.98c-0.41,-0.55 -0.94,-0.71 -1.81,-0.71l-12.82 0c-1.64,0 -2.96,3.29 -4.32,5.56 -1.29,2.14 -2.52,4.27 -3.66,6.42z"/>
 </g>
</svg>
