<?xml version="1.0" encoding="UTF-8"?>
<!DOCTYPE svg PUBLIC "-//W3C//DTD SVG 1.1//EN" "http://www.w3.org/Graphics/SVG/1.1/DTD/svg11.dtd">
<!-- Creator: CorelDRAW 2017 -->
<svg xmlns="http://www.w3.org/2000/svg" xml:space="preserve" width="5.36263in" height="2.42948in" version="1.1" style="shape-rendering:geometricPrecision; text-rendering:geometricPrecision; image-rendering:optimizeQuality; fill-rule:evenodd; clip-rule:evenodd"
viewBox="0 0 491.85 222.83"
 xmlns:xlink="http://www.w3.org/1999/xlink">
 <defs>
  <style type="text/css">
   <![CDATA[
    .fil4 {fill:#FEFEFE}
    .fil3 {fill:#7D569E}
    .fil0 {fill:#946FB2}
    .fil1 {fill:#FEFEFE;fill-rule:nonzero}
    .fil2 {fill:#FEFEFE;fill-rule:nonzero}
   ]]>
  </style>
 </defs>
 <g id="Layer_x0020_1">
  <metadata id="CorelCorpID_0Corel-Layer"/>
  <path class="fil0" d="M25.83 0l440.2 0c14.2,0 25.83,11.62 25.83,25.83l0 171.17c0,14.2 -11.62,25.83 -25.83,25.83l-440.2 0c-14.2,0 -25.83,-11.62 -25.83,-25.83l0 -171.17c0,-14.2 11.62,-25.83 25.83,-25.83z"/>
  <path class="fil1" d="M212.06 95.22l28.62 0 0 -8.36 -19.06 0 0 -35.17 -9.56 0 0 43.53zm32.46 -38.96c0,2.89 2.4,5.23 5.29,5.23 2.89,0 5.29,-2.34 5.29,-5.23 0,-2.89 -2.4,-5.23 -5.29,-5.23 -2.89,0 -5.29,2.34 -5.29,5.23zm0.72 38.96l9.14 0 0 -29.58 -9.14 0 0 29.58zm25.31 0l8.72 0 12.02 -29.58 -9.02 0 -3.67 9.44c-1.2,3.07 -2.46,6.43 -3.55,9.44l-0.12 0c-1.02,-3.01 -2.16,-6.25 -3.31,-9.38l-3.49 -9.5 -9.62 0 12.02 29.58zm50.86 -12.38c0.12,-0.78 0.18,-2.1 0.18,-3.13 0,-9.92 -6.85,-14.73 -14.13,-14.73 -8.18,0 -15.51,6.13 -15.51,15.57 0,9.26 7.03,15.33 16.77,15.33 3.91,0 8.36,-0.9 11.24,-2.71l0 -7.63c-3.13,2.1 -6.73,3.25 -10.04,3.25 -4.21,0 -7.58,-1.86 -8.6,-5.95l20.08 0zm-14.07 -10.88c2.95,0 5.29,1.92 5.83,5.11l-11.9 0c0.78,-3.37 3.25,-5.11 6.07,-5.11zm32.76 1.56c0,12.69 9.68,22.36 23.69,22.36 4.33,0 9.02,-0.9 12.75,-2.89l0 -9.74c-3.61,2.47 -7.82,4.03 -12.32,4.03 -8.96,0 -14.55,-6.13 -14.55,-13.89 0,-7.88 5.77,-13.77 14.19,-13.77 4.45,0 8.84,1.62 12.02,3.79l0 -9.68c-3.43,-1.68 -7.7,-2.71 -12.08,-2.71 -14.01,0 -23.69,9.86 -23.69,22.48zm42.62 21.7l9.14 0 0 -19.9c1.62,-1.26 3.85,-2.46 6.19,-2.46 1.26,0 2.34,0.36 3.13,1.26 0.72,0.84 1.02,1.92 1.02,4.15l0 16.95 9.14 0 0 -18.46c0,-4.27 -0.78,-6.85 -2.59,-8.78 -1.86,-1.92 -4.63,-3.01 -7.76,-3.01 -3.73,0 -6.85,1.56 -9.02,3.37l-0.12 -0.06 0 -19 -9.14 0 0 45.93zm44.49 0.66c3.37,0 6.31,-1.08 8.24,-2.46l0.12 0c1.62,1.68 3.97,2.34 6.37,2.34 1.74,0 3.37,-0.36 4.39,-0.9l0 -6.85c-0.48,0.24 -1.02,0.36 -1.5,0.36 -1.26,0 -1.8,-0.96 -1.8,-2.34l0 -10.04c0,-3.73 -1.08,-6.37 -3.31,-8.18 -2.34,-1.92 -5.89,-2.83 -9.86,-2.83 -4.33,0 -7.94,1.08 -10.34,2.28l0 7.88c2.34,-1.26 5.35,-2.34 8.66,-2.34 2.16,0 3.73,0.48 4.57,1.26 0.66,0.6 1.14,1.68 1.14,3.13l0 1.14c-1.62,-0.36 -3.37,-0.54 -5.11,-0.54 -3.07,0 -6.01,0.54 -8.3,2.1 -2.1,1.44 -3.61,3.91 -3.61,7.15 0,3.07 1.32,5.41 3.49,6.91 1.92,1.32 4.33,1.92 6.85,1.92zm2.53 -6.73c-2.1,0 -3.79,-1.02 -3.79,-2.95 0,-2.28 2.34,-3.01 4.69,-3.01 0.96,0 2.28,0.12 3.25,0.42l0 4.33c-1.08,0.66 -2.59,1.2 -4.15,1.2zm26.15 3.79c1.86,1.98 4.69,2.95 7.7,2.95 2.59,0 5.29,-0.72 6.67,-1.62l0 -7.27c-1.2,0.6 -2.89,1.2 -4.39,1.2 -2.77,0 -3.43,-2.16 -3.43,-5.05l0 -9.92 7.82 0 0 -7.58 -7.82 0 0 -9.26 -9.14 1.56 0 7.7 -4.81 0 0 7.58 4.81 0 0 10.88c0,4.69 1.02,7.15 2.59,8.84z"/>
  <path class="fil2" d="M220.76 169.8c3.69,2.14 8.63,3.27 12.79,3.27 8.63,0 14.4,-4.64 14.4,-12.5 0,-8.21 -6.19,-10.71 -12.44,-12.5 -5.24,-1.49 -10.23,-2.38 -10.23,-7.73 0,-4.4 3.39,-6.49 8.21,-6.49 3.69,0 8.57,1.25 12.5,3.99l0 -5.95c-3.45,-2.2 -8.33,-3.21 -12.38,-3.21 -8.39,0 -13.92,4.4 -13.92,12.02 0,7.85 5.89,10.35 11.96,12.08 5.65,1.61 10.71,2.56 10.71,8.09 0,4.7 -3.63,7.02 -8.75,7.02 -3.81,0 -8.87,-1.31 -12.85,-4.28l0 6.19zm40.1 15.71l19.81 -42.37 -5.65 0 -5.12 11.07c-1.37,2.98 -2.68,5.89 -3.99,8.81l-0.12 0c-1.19,-2.68 -2.62,-5.83 -3.99,-8.81l-5.12 -11.07 -5.95 0 12.2 26.12 -7.91 16.24 5.83 0zm23.92 -14.76c3.03,1.55 7.14,2.32 10.89,2.32 6.25,0 12.32,-2.56 12.32,-9.34 0,-6.07 -4.64,-7.62 -10.23,-8.57 -4.34,-0.77 -8.51,-0.77 -8.51,-4.11 0,-2.62 2.62,-3.75 6.37,-3.75 3.39,0 7.44,0.95 10.71,2.86l0 -5.36c-2.92,-1.55 -6.96,-2.32 -10.47,-2.32 -6.78,0 -11.96,2.92 -12.02,8.98 0,5.77 4.4,7.44 10,8.39 4.52,0.77 8.75,0.83 8.75,4.34 0,2.86 -2.62,4.05 -6.66,4.05 -3.63,0 -7.79,-1.01 -11.13,-3.09l0 5.59zm34.93 -0.42c1.9,2.2 4.52,2.74 6.66,2.74 2.02,0 4.11,-0.48 5.3,-1.07l0 -5.06c-1.13,0.71 -2.86,1.25 -4.4,1.25 -3.87,0 -4.4,-3.33 -4.4,-6.96l0 -13.27 8.81 0 0 -4.82 -8.81 0 0 -8.87 -5.36 0.89 0 7.97 -5.41 0 0 4.82 5.41 0 0 14.28c0,4.11 0.77,6.49 2.2,8.09zm43.67 -11.01c0.12,-0.71 0.18,-1.79 0.18,-2.68 0,-9.16 -6.19,-14.16 -13.33,-14.16 -7.85,0 -14.58,6.07 -14.58,15.29 0,9.22 6.78,15.29 15.83,15.29 3.81,0 7.85,-1.07 10.47,-2.74l0 -5.71c-2.68,2.02 -6.07,3.63 -10.12,3.63 -5.77,0 -10.06,-3.15 -10.83,-8.93l22.37 0zm-13.27 -12.02c3.51,0 7.79,1.96 8.27,7.79l-17.26 0c0.95,-5.41 5.12,-7.79 8.98,-7.79zm61.35 25.11l5.36 0 0 -18.27c0,-3.99 -0.65,-6.6 -2.44,-8.57 -1.79,-2.02 -4.52,-3.09 -7.68,-3.09 -4.05,0 -7.62,1.73 -11.13,5.06 -1.78,-3.51 -5.36,-5.06 -8.98,-5.06 -4.05,0 -7.5,1.84 -9.94,4.28l-0.12 -0.06 0 -3.57 -5.36 0 0 29.27 5.36 0 0 -20.35c2.02,-2.44 5.47,-4.58 8.93,-4.58 1.67,0 3.27,0.48 4.46,1.84 1.01,1.19 1.37,2.62 1.37,5.77l0 17.32 5.36 0 0 -18.27c0,-0.71 0,-1.43 -0.06,-2.08 2.02,-2.38 5.53,-4.58 8.93,-4.58 1.55,0 3.33,0.48 4.46,1.79 1.07,1.25 1.49,3.03 1.49,5.83l0 17.32z"/>
  <path class="fil3" d="M185.28 222.83l0 -222.83 -159.45 0c-14.21,0 -25.83,11.62 -25.83,25.83l0 171.17c0,14.21 11.62,25.83 25.83,25.83l159.45 0z"/>
  <g id="_973405856">
   <path class="fil4" d="M69.28 140.46l0 -29.38c0,-3.5 2.57,-6.29 4.98,-6.29l53.51 0c3,0 5.25,2.69 5.25,5.77l0 31.21c0,1.97 -1.46,3.8 -2.73,4.62 -1.64,1.06 -4.13,0.89 -6.72,0.89l-25.97 -0.01c-1.83,-0.02 -2.09,-0.12 -3.08,0.85 -0.98,0.95 -7.37,6.8 -8.19,7.02 0,-9.19 1.32,-7.87 -7.87,-7.87 -2.96,0 -4.86,0.11 -6.72,-1.15 -1.75,-1.2 -2.46,-3.44 -2.46,-5.67zm-4.2 -29.64l0 16.26c-8.43,0 -6.27,-0.54 -10.57,3.07l-5.89 5.12c-0.63,0.64 -0.75,1.01 -1.64,1.25 0,-5.49 0.87,-8.91 -2.1,-9.17 -2.18,-0.19 -3.06,-0.27 -4.43,-1.34 -0.85,-0.66 -2.12,-2.25 -2.12,-3.65l0 -32.26c0,-3.58 3.51,-5.51 6.82,-5.51 1.33,0 1.22,0.28 2.35,0.25 0.93,-0.03 1.08,-0.25 2.38,-0.25 1.34,0 1.72,0.22 2.64,0.25 1.04,0.03 1.25,-0.25 2.61,-0.25 1.34,0 1.72,0.22 2.64,0.25 1.04,0.03 1.25,-0.25 2.61,-0.25 1.34,0 1.72,0.22 2.64,0.25 1.04,0.03 1.25,-0.25 2.61,-0.25 1.34,0 1.72,0.22 2.64,0.25 1.04,0.03 1.25,-0.25 2.61,-0.25 1.34,0 1.72,0.22 2.64,0.25 1.04,0.03 1.25,-0.25 2.61,-0.25 1.34,0 1.72,0.22 2.64,0.25 1.04,0.03 1.25,-0.25 2.61,-0.25 1.34,0 1.72,0.22 2.64,0.25 1.04,0.03 1.25,-0.25 2.61,-0.25 1.34,0 1.72,0.22 2.64,0.25 1.74,0.05 0.59,-0.38 5.02,-0.02 0.89,0.07 4.94,-0.94 7.49,1.15 1,0.82 2.16,2.39 2.16,4.13l0 10.23 -27.54 0c-6.48,0 -11.28,4.25 -11.28,10.49zm29.11 -33.57c0,-2.82 2.68,-5.51 5.51,-5.51l54.82 0c2.8,0 5.51,2.46 5.51,5.25l0 32c0,2.74 -2.52,5.14 -5.5,5.25 -2.16,0.08 -3.52,-0.27 -3.89,1.62 -0.2,1.03 -0.05,4.21 -0.05,5.46l-6.49 -5.84c-1.98,-2.03 -2.92,-1.5 -6.89,-1.5 0,-3.7 0.4,-8.27 -3.51,-11.18 -2.21,-1.64 -4.29,-2.46 -8.03,-2.46l-17.57 0 0 -10.49c0,-5.29 -4.89,-9.44 -11.02,-9.44l-2.89 0 0 -3.15zm-3.93 -0.52l0 3.67 -45.11 0c-7.78,0 -11.28,4.87 -11.28,12.33l0 26.75c0,6.34 3.72,11.37 8.92,11.8 0,4.99 -1.69,16.14 4.38,10.94l5.52 -4.97c0.57,-0.58 0.76,-0.78 1.37,-1.25 6.28,-4.79 2.05,-4.72 11.02,-4.72 0,3.65 -0.43,11 0.78,13.9 3.08,7.38 10.32,6.29 16.27,6.29l0 7.87c0,3.03 2.34,3.57 4.92,0.99l6.17 -5.38c0.55,-0.54 0.66,-0.67 1.24,-1.12 3.2,-2.45 1.09,-2.36 6.82,-2.36 3.82,0 25.58,0.2 27.44,-0.1 4.77,-0.76 8.75,-4.7 8.75,-9.61l0 -23.34c5.98,0 2.87,0.11 9.03,4.87 1.13,0.87 1.7,1.55 2.81,2.43 1.9,1.52 1.69,2.4 3.9,2.4 2.64,0 1.84,-6.74 1.84,-9.71 4.85,0 9.44,-4.63 9.44,-9.44l0 -31.74c0,-4.84 -4.87,-9.71 -9.71,-9.71l-55.08 0c-4.79,0 -9.44,4.57 -9.44,9.18z"/>
   <path class="fil4" d="M80.3 133.12c0,1.23 0.14,2.36 2.62,2.36l36.46 0c1.89,0 2.62,-0.68 2.62,-2.36 0,-1.85 -1.28,-1.85 -3.15,-1.83 -1.15,0.01 -1.71,-0.19 -2.38,-0.21l-3.12 0.21c-1.11,0 -1.46,-0.19 -2.12,-0.21l-3.12 0.21c-1.11,0 -1.46,-0.19 -2.12,-0.21l-3.12 0.21c-1.11,0 -1.46,-0.19 -2.12,-0.21l-3.12 0.21c-1.11,0 -1.46,-0.19 -2.12,-0.21l-3.12 0.21c-1.11,0 -1.46,-0.19 -2.12,-0.21 -1.76,-0.05 -0.91,0.36 -5.03,0.02 -0.91,-0.08 -1.09,0.13 -2.03,0.18 -1.79,0.09 -2.88,-0.02 -2.88,1.85z"/>
   <path class="fil4" d="M80.3 118.43c0,1.26 -0.09,2.62 1.84,2.62l38.03 0c2.63,0 2.5,-4.2 -0.26,-4.2l-37.51 0c-0.96,0 -2.1,0.72 -2.1,1.57z"/>
   <path class="fil4" d="M116.76 91.94c0,1.39 0.68,2.36 2.1,2.36l30.43 0c3.41,0 2.56,-4.2 0.52,-4.2l-30.95 0c-1.12,0 -2.1,0.81 -2.1,1.84z"/>
   <path class="fil4" d="M116.76 79.87c0,0.96 0.72,2.1 1.57,2.1l31.74 0c1.72,0 2.69,-4.2 -1.31,-4.2l-29.64 0c-1.27,0 -2.36,0.87 -2.36,2.1z"/>
   <path class="fil4" d="M45.94 101.12l15.74 0c2.92,0 2.48,-4.2 -0.26,-4.2l-15.21 0c-2.89,0 -2.99,4.2 -0.26,4.2z"/>
   <path class="fil4" d="M46.73 115.55l10.49 0c2.79,0 3.11,-3.25 1.02,-4.19l-5.53 -0.24c-1.16,-0.1 -1.43,0.23 -2.84,0.23 -1.88,0 -4.64,-0.77 -5.57,0.74 -1.04,1.69 0.11,3.46 2.43,3.46z"/>
  </g>
 </g>
</svg>
