<?xml version="1.0" encoding="UTF-8"?>
<!DOCTYPE svg PUBLIC "-//W3C//DTD SVG 1.1//EN" "http://www.w3.org/Graphics/SVG/1.1/DTD/svg11.dtd">
<!-- Creator: CorelDRAW 2017 -->
<svg xmlns="http://www.w3.org/2000/svg" xml:space="preserve" width="5.36263in" height="2.42948in" version="1.1" style="shape-rendering:geometricPrecision; text-rendering:geometricPrecision; image-rendering:optimizeQuality; fill-rule:evenodd; clip-rule:evenodd"
viewBox="0 0 335.85 152.15"
 xmlns:xlink="http://www.w3.org/1999/xlink">
 <defs>
  <style type="text/css">
   <![CDATA[
    .fil4 {fill:#FEFEFE}
    .fil3 {fill:#D9482E}
    .fil0 {fill:#F26A52}
    .fil1 {fill:#FEFEFE;fill-rule:nonzero}
    .fil2 {fill:#FEFEFE;fill-rule:nonzero}
   ]]>
  </style>
 </defs>
 <g id="Layer_x0020_1">
  <metadata id="CorelCorpID_0Corel-Layer"/>
  <path class="fil0" d="M17.64 0l300.58 0c9.7,0 17.63,7.94 17.63,17.64l0 116.88c0,9.7 -7.94,17.63 -17.63,17.63l-300.58 0c-9.7,0 -17.64,-7.94 -17.64,-17.63l0 -116.88c0,-9.7 7.94,-17.64 17.64,-17.64z"/>
  <path class="fil1" d="M144.09 30.08l-7.56 11.56c-3.03,4.57 -4.33,7.8 -4.33,11.65 0,7.66 5.73,12.18 12.95,12.18 7.46,0 13,-4.91 13,-11.6 0,-6.36 -4.86,-10.83 -10.64,-10.83 -1.49,0 -2.74,0.29 -3.66,0.72l-0.05 -0.05 9.2 -13.63 -8.91 0zm-4.04 23.79c0,-2.89 2.36,-4.96 5.3,-4.96 3.08,0 5.25,2.26 5.25,5.1 0,2.99 -2.41,5.06 -5.3,5.06 -3.18,0 -5.25,-2.5 -5.25,-5.2z"/>
  <path class="fil2" d="M141.53 117.69l3.86 0 0 -11.62 3.05 0c3.78,0 7.19,-0.12 9.75,-1.67 2.36,-1.42 3.98,-3.98 3.98,-7.31 0,-3.45 -1.71,-5.85 -4.27,-7.27 -2.56,-1.42 -5.57,-1.54 -8.69,-1.54l-7.68 0 0 29.42zm3.86 -14.99l0 -10.93 3.49 0c2.76,0 4.92,0.04 6.7,0.93 1.67,0.85 2.72,2.36 2.72,4.55 0,1.99 -0.89,3.45 -2.36,4.35 -1.63,0.98 -3.58,1.1 -7.03,1.1l-3.53 0zm21.33 14.99l3.66 0 0 -31.04 -3.66 0 0 31.04zm15.6 0.45c2.68,0 5,-1.14 6.14,-2.19l0.08 0c0.77,1.42 2.28,2.11 3.86,2.11 0.77,0 1.46,-0.16 1.95,-0.37l0 -3.05c-0.33,0.16 -0.77,0.28 -1.18,0.28 -1.1,0 -1.54,-0.89 -1.54,-2.11l0 -8.49c0,-2.48 -0.81,-4.19 -1.99,-5.24 -1.42,-1.3 -3.53,-1.83 -5.97,-1.83 -2.97,0 -5.12,0.77 -6.66,1.71l0 3.58c1.5,-1.1 3.62,-1.99 6.14,-1.99 1.71,0 2.93,0.41 3.7,1.1 0.77,0.73 1.14,1.83 1.14,3.29l0 1.67c-1.3,-0.33 -2.72,-0.53 -4.27,-0.53 -2.07,0 -4.1,0.37 -5.61,1.34 -1.58,1.02 -2.64,2.64 -2.64,4.88 0,1.95 0.81,3.45 2.11,4.43 1.34,1.02 3.13,1.42 4.75,1.42zm0.65 -3.25c-2.15,0 -3.82,-0.98 -3.82,-2.93 0,-2.36 2.44,-3.09 4.92,-3.09 1.26,0 2.8,0.2 3.9,0.53l0 3.74c-1.22,0.98 -3.09,1.75 -5,1.75zm15.44 2.8l3.66 0 0 -13.69c1.42,-1.91 3.98,-3.33 6.26,-3.33 1.1,0 2.4,0.33 3.21,1.3 0.65,0.77 0.93,1.99 0.93,4.06l0 11.66 3.66 0 0 -12.35c0,-3.09 -0.57,-4.63 -1.67,-5.89 -1.26,-1.42 -3.13,-2.19 -5.32,-2.19 -2.8,0 -5.24,1.26 -6.99,3.01l-0.08 -0.04 0 -2.52 -3.66 0 0 19.99zm23.52 -1.14c2.07,1.06 4.88,1.58 7.44,1.58 4.27,0 8.41,-1.75 8.41,-6.38 0,-4.14 -3.17,-5.2 -6.99,-5.85 -2.97,-0.53 -5.81,-0.53 -5.81,-2.8 0,-1.79 1.79,-2.56 4.35,-2.56 2.32,0 5.08,0.65 7.31,1.95l0 -3.66c-1.99,-1.06 -4.75,-1.58 -7.15,-1.58 -4.63,0 -8.17,1.99 -8.21,6.14 0,3.94 3.01,5.08 6.83,5.73 3.09,0.53 5.97,0.57 5.97,2.97 0,1.95 -1.79,2.76 -4.55,2.76 -2.48,0 -5.32,-0.69 -7.6,-2.11l0 3.82z"/>
  <path class="fil3" d="M126.52 152.15l0 -152.15 -108.88 0c-9.7,0 -17.64,7.93 -17.64,17.64l0 116.88c0,9.7 7.94,17.63 17.64,17.63l108.88 0z"/>
  <path class="fil1" d="M169.05 61.81l7.05 0c5.04,0 8.91,-0.77 12.01,-2.94 3.71,-2.62 5.8,-6.93 5.8,-11.77 0,-5.08 -2.34,-9.55 -6.53,-12.09 -2.94,-1.77 -6.45,-2.38 -10.32,-2.38l-8.02 0 0 29.18zm3.83 -3.47l0 -22.25 3.75 0c3.14,0 6.25,0.32 8.79,2.02 2.62,1.73 4.68,4.88 4.68,9.11 0,4.11 -1.93,7.42 -4.72,9.19 -2.34,1.49 -5.16,1.93 -8.67,1.93l-3.83 0zm24.99 -23.18c0,1.41 1.13,2.54 2.54,2.54 1.41,0 2.54,-1.13 2.54,-2.54 0,-1.41 -1.13,-2.54 -2.54,-2.54 -1.41,0 -2.54,1.13 -2.54,2.54zm0.73 26.64l3.63 0 0 -19.83 -3.63 0 0 19.83zm23.7 0l3.63 0 0 -16.57 5.08 0 0 -3.26 -5.08 0 0 -4.31c0,-2.1 0.44,-3.79 2.94,-3.79 0.77,0 2.06,0.16 2.82,0.36l0 -3.26c-0.69,-0.2 -1.85,-0.4 -2.98,-0.4 -1.69,0 -3.39,0.44 -4.64,1.65 -1.41,1.37 -1.77,3.39 -1.77,5.97l0 3.79 -9.07 0 0 -4.31c0,-2.1 0.44,-3.79 2.94,-3.79 0.77,0 2.06,0.16 2.82,0.36l0 -3.26c-0.69,-0.2 -1.85,-0.4 -2.98,-0.4 -1.69,0 -3.39,0.44 -4.63,1.65 -1.41,1.37 -1.77,3.39 -1.77,5.97l0 3.79 -3.14 0 0 3.26 3.14 0 0 16.57 3.63 0 0 -16.57 9.07 0 0 16.57zm30.27 -8.87c0.08,-0.48 0.12,-1.21 0.12,-1.81 0,-6.21 -4.19,-9.59 -9.03,-9.59 -5.32,0 -9.87,4.11 -9.87,10.36 0,6.25 4.59,10.36 10.72,10.36 2.58,0 5.32,-0.73 7.09,-1.85l0 -3.87c-1.81,1.37 -4.11,2.46 -6.85,2.46 -3.91,0 -6.81,-2.14 -7.34,-6.05l15.15 0zm-8.99 -8.14c2.38,0 5.28,1.33 5.6,5.28l-11.69 0c0.64,-3.67 3.47,-5.28 6.09,-5.28zm14.27 17.01l3.63 0 0 -12.9c1.25,-2.14 3.14,-3.51 5.84,-3.51 0.44,0 0.93,0.04 1.41,0.16l0 -3.59c-0.44,-0.12 -0.89,-0.16 -1.29,-0.16 -2.34,0 -4.51,1.17 -5.88,3.1l-0.08 -0.04 0 -2.9 -3.63 0 0 19.83zm31.72 -8.87c0.08,-0.48 0.12,-1.21 0.12,-1.81 0,-6.21 -4.19,-9.59 -9.03,-9.59 -5.32,0 -9.87,4.11 -9.87,10.36 0,6.25 4.59,10.36 10.72,10.36 2.58,0 5.32,-0.73 7.09,-1.85l0 -3.87c-1.81,1.37 -4.11,2.46 -6.85,2.46 -3.91,0 -6.81,-2.14 -7.34,-6.05l15.15 0zm-8.99 -8.14c2.38,0 5.28,1.33 5.6,5.28l-11.69 0c0.64,-3.67 3.47,-5.28 6.09,-5.28zm14.27 17.01l3.63 0 0 -13.58c1.41,-1.89 3.95,-3.31 6.21,-3.31 1.09,0 2.38,0.32 3.18,1.29 0.64,0.77 0.93,1.98 0.93,4.03l0 11.57 3.63 0 0 -12.25c0,-3.06 -0.56,-4.59 -1.65,-5.84 -1.25,-1.41 -3.1,-2.18 -5.28,-2.18 -2.78,0 -5.2,1.25 -6.93,2.98l-0.08 -0.04 0 -2.5 -3.63 0 0 19.83zm26.88 -1.41c1.29,1.49 3.06,1.85 4.51,1.85 1.37,0 2.78,-0.32 3.59,-0.73l0 -3.43c-0.77,0.48 -1.93,0.85 -2.98,0.85 -2.62,0 -2.98,-2.26 -2.98,-4.72l0 -8.99 5.97 0 0 -3.26 -5.97 0 0 -6.01 -3.63 0.6 0 5.4 -3.67 0 0 3.26 3.67 0 0 9.67c0,2.78 0.52,4.39 1.49,5.48z"/>
  <path class="fil4" d="M50.67 51.42l0 0c6.03,0 10.96,4.93 10.96,10.96l0 0c0,6.03 -4.93,10.96 -10.96,10.96l0 0c-6.03,0 -10.96,-4.93 -10.96,-10.96l0 0c0,-6.03 4.93,-10.96 10.96,-10.96z"/>
  <polygon class="fil4" points="68.96,51.42 90.88,51.42 90.88,73.34 68.96,73.34 "/>
  <path class="fil4" d="M50.67 79.21l0 0c6.03,0 10.96,4.93 10.96,10.96l0 0c0,6.03 -4.93,10.96 -10.96,10.96l0 0c-6.03,0 -10.96,-4.93 -10.96,-10.96l0 0c0,-6.03 4.93,-10.96 10.96,-10.96z"/>
  <path class="fil4" d="M79.92 79.21l0 0c6.03,0 10.96,4.93 10.96,10.96l0 0c0,6.03 -4.93,10.96 -10.96,10.96l0 0c-6.03,0 -10.96,-4.93 -10.96,-10.96l0 0c0,-6.03 4.93,-10.96 10.96,-10.96z"/>
 </g>
</svg>
