<?xml version="1.0" encoding="UTF-8"?>
<!DOCTYPE svg PUBLIC "-//W3C//DTD SVG 1.1//EN" "http://www.w3.org/Graphics/SVG/1.1/DTD/svg11.dtd">
<!-- Creator: CorelDRAW 2017 -->
<svg xmlns="http://www.w3.org/2000/svg" xml:space="preserve" width="5.36263in" height="2.42948in" version="1.1" style="shape-rendering:geometricPrecision; text-rendering:geometricPrecision; image-rendering:optimizeQuality; fill-rule:evenodd; clip-rule:evenodd"
viewBox="0 0 400.89 181.62"
 xmlns:xlink="http://www.w3.org/1999/xlink">
 <defs>
  <style type="text/css">
   <![CDATA[
    .fil4 {fill:#FEFEFE}
    .fil3 {fill:#33A9C4}
    .fil0 {fill:#41C4E0}
    .fil1 {fill:#FEFEFE;fill-rule:nonzero}
    .fil2 {fill:#FEFEFE;fill-rule:nonzero}
   ]]>
  </style>
 </defs>
 <g id="Layer_x0020_1">
  <metadata id="CorelCorpID_0Corel-Layer"/>
  <path class="fil0" d="M21.05 0l358.79 0c11.58,0 21.05,9.47 21.05,21.05l0 139.52c0,11.58 -9.47,21.05 -21.05,21.05l-358.79 0c-11.58,0 -21.05,-9.47 -21.05,-21.05l0 -139.52c0,-11.58 9.47,-21.05 21.05,-21.05z"/>
  <path class="fil1" d="M162.92 77.52l9.6 0 16.84 -41.5 -0.06 -0.12 -29.31 0 0 7.99 16.55 0 -13.62 33.63zm28.34 -0.12l0.06 0.12 29.6 0 0 -7.99 -12.99 0 -0.06 -0.12 5 -6.61c4.31,-5.75 6.55,-10.06 6.55,-14.71 0,-7.82 -6.38,-12.82 -14.6,-12.82 -4.66,0 -8.16,1.61 -10.58,3.33l0 8.56c3.1,-2.41 6.73,-3.74 9.71,-3.74 3.68,0 6.21,1.95 6.21,5.46 0,3.16 -2.07,6.21 -6.21,11.73l-12.7 16.78zm50.17 0.12l4.78 0 0 -16.75 19.82 0 0 16.75 4.78 0 0 -36.41 -4.78 0 0 15.34 -19.82 0 0 -15.34 -4.78 0 0 36.41zm35.71 -12.37c0,7.29 5.58,12.93 13.08,12.93 7.49,0 13.08,-5.63 13.08,-12.93 0,-7.29 -5.58,-12.93 -13.08,-12.93 -7.49,0 -13.08,5.63 -13.08,12.93zm4.53 0c0,-4.98 3.62,-8.8 8.55,-8.8 4.93,0 8.55,3.82 8.55,8.8 0,4.98 -3.62,8.8 -8.55,8.8 -4.93,0 -8.55,-3.82 -8.55,-8.8zm29.77 10.16c1.66,1.91 4.22,2.77 6.74,2.77 3.42,0 6.39,-1.56 8.55,-3.72l0.1 0.05 0 3.12 4.53 0 0 -24.74 -4.53 0 0 16.9c-1.76,2.21 -4.68,4.22 -7.75,4.22 -1.46,0 -2.92,-0.45 -3.92,-1.71 -0.85,-1.01 -1.21,-2.41 -1.21,-5.13l0 -14.28 -4.53 0 0 15.14c0,3.52 0.6,5.73 2.01,7.39zm27.86 2.21l4.53 0 0 -16.09c1.56,-2.67 3.92,-4.38 7.29,-4.38 0.55,0 1.16,0.05 1.76,0.2l0 -4.48c-0.55,-0.15 -1.11,-0.2 -1.61,-0.2 -2.92,0 -5.63,1.46 -7.34,3.87l-0.1 -0.05 0 -3.62 -4.53 0 0 24.74zm17.8 -1.41c2.57,1.31 6.04,1.96 9.2,1.96 5.28,0 10.41,-2.16 10.41,-7.9 0,-5.13 -3.92,-6.44 -8.65,-7.24 -3.67,-0.65 -7.19,-0.65 -7.19,-3.47 0,-2.21 2.21,-3.17 5.38,-3.17 2.87,0 6.29,0.8 9.05,2.41l0 -4.53c-2.46,-1.31 -5.88,-1.96 -8.85,-1.96 -5.73,0 -10.11,2.46 -10.16,7.59 0,4.88 3.72,6.29 8.45,7.09 3.82,0.65 7.39,0.7 7.39,3.67 0,2.41 -2.21,3.42 -5.63,3.42 -3.07,0 -6.59,-0.85 -9.41,-2.62l0 4.73z"/>
  <path class="fil2" d="M169.34 140.53l20.71 0 0 -4.17 -16.1 0 0 -12.08 13.72 0 0 -4.03 -13.72 0 0 -10.67 15.66 0 0 -4.17 -20.27 0 0 35.11zm32.79 0l4.36 0 9.99 -23.86 -4.56 0 -4.32 10.48c-1.12,2.72 -2.13,5.24 -3.2,7.95l-0.1 0c-1.02,-2.62 -1.99,-5.04 -3.06,-7.66l-4.41 -10.77 -4.75 0 10.04 23.86zm24.1 0.53c3.2,0 5.97,-1.36 7.32,-2.62l0.1 0c0.92,1.7 2.72,2.52 4.61,2.52 0.92,0 1.75,-0.19 2.33,-0.44l0 -3.64c-0.39,0.19 -0.92,0.34 -1.41,0.34 -1.31,0 -1.84,-1.07 -1.84,-2.52l0 -10.14c0,-2.96 -0.97,-5 -2.38,-6.26 -1.7,-1.55 -4.22,-2.18 -7.13,-2.18 -3.54,0 -6.11,0.92 -7.95,2.04l0 4.27c1.79,-1.31 4.32,-2.38 7.32,-2.38 2.04,0 3.49,0.49 4.41,1.31 0.92,0.87 1.36,2.18 1.36,3.93l0 1.99c-1.55,-0.39 -3.25,-0.63 -5.09,-0.63 -2.47,0 -4.9,0.44 -6.69,1.6 -1.89,1.21 -3.15,3.15 -3.15,5.82 0,2.33 0.97,4.12 2.52,5.29 1.6,1.21 3.73,1.7 5.67,1.7zm0.78 -3.88c-2.57,0 -4.56,-1.16 -4.56,-3.49 0,-2.81 2.91,-3.69 5.87,-3.69 1.5,0 3.35,0.24 4.66,0.63l0 4.46c-1.46,1.16 -3.69,2.09 -5.97,2.09zm18.43 3.35l4.36 0 0 -37.05 -4.36 0 0 37.05zm13.87 -2.13c1.6,1.84 4.07,2.67 6.5,2.67 3.3,0 6.16,-1.5 8.24,-3.59l0.1 0.05 0 3.01 4.36 0 0 -23.86 -4.36 0 0 16.3c-1.7,2.13 -4.51,4.07 -7.47,4.07 -1.41,0 -2.81,-0.44 -3.78,-1.65 -0.82,-0.97 -1.16,-2.33 -1.16,-4.95l0 -13.77 -4.37 0 0 14.6c0,3.39 0.58,5.53 1.94,7.13zm33.46 2.67c3.2,0 5.97,-1.36 7.32,-2.62l0.1 0c0.92,1.7 2.72,2.52 4.61,2.52 0.92,0 1.75,-0.19 2.33,-0.44l0 -3.64c-0.39,0.19 -0.92,0.34 -1.41,0.34 -1.31,0 -1.84,-1.07 -1.84,-2.52l0 -10.14c0,-2.96 -0.97,-5 -2.38,-6.26 -1.7,-1.55 -4.22,-2.18 -7.13,-2.18 -3.54,0 -6.11,0.92 -7.95,2.04l0 4.27c1.79,-1.31 4.32,-2.38 7.32,-2.38 2.04,0 3.49,0.49 4.41,1.31 0.92,0.87 1.36,2.18 1.36,3.93l0 1.99c-1.55,-0.39 -3.25,-0.63 -5.09,-0.63 -2.47,0 -4.9,0.44 -6.69,1.6 -1.89,1.21 -3.15,3.15 -3.15,5.82 0,2.33 0.97,4.12 2.52,5.29 1.6,1.21 3.73,1.7 5.67,1.7zm0.78 -3.88c-2.57,0 -4.56,-1.16 -4.56,-3.49 0,-2.81 2.91,-3.69 5.87,-3.69 1.5,0 3.35,0.24 4.66,0.63l0 4.46c-1.46,1.16 -3.69,2.09 -5.97,2.09zm22.07 1.65c1.55,1.79 3.69,2.23 5.43,2.23 1.65,0 3.35,-0.39 4.32,-0.87l0 -4.12c-0.92,0.58 -2.33,1.02 -3.59,1.02 -3.15,0 -3.59,-2.72 -3.59,-5.67l0 -10.82 7.18 0 0 -3.93 -7.18 0 0 -7.23 -4.37 0.73 0 6.5 -4.41 0 0 3.93 4.41 0 0 11.64c0,3.35 0.63,5.29 1.79,6.6zm14.36 -30.36c0,1.7 1.36,3.06 3.06,3.06 1.7,0 3.06,-1.36 3.06,-3.06 0,-1.7 -1.36,-3.06 -3.06,-3.06 -1.7,0 -3.06,1.36 -3.06,3.06zm0.87 32.06l4.36 0 0 -23.86 -4.36 0 0 23.86zm10.38 -11.93c0,7.03 5.38,12.46 12.61,12.46 7.23,0 12.61,-5.43 12.61,-12.46 0,-7.03 -5.38,-12.46 -12.61,-12.46 -7.23,0 -12.61,5.43 -12.61,12.46zm4.37 0c0,-4.8 3.49,-8.49 8.24,-8.49 4.75,0 8.24,3.69 8.24,8.49 0,4.8 -3.49,8.49 -8.24,8.49 -4.75,0 -8.24,-3.69 -8.24,-8.49zm26.87 11.93l4.36 0 0 -16.34c1.7,-2.28 4.75,-3.98 7.47,-3.98 1.31,0 2.86,0.39 3.83,1.55 0.78,0.92 1.12,2.38 1.12,4.85l0 13.92 4.37 0 0 -14.74c0,-3.69 -0.68,-5.53 -1.99,-7.03 -1.5,-1.7 -3.73,-2.62 -6.35,-2.62 -3.35,0 -6.26,1.5 -8.34,3.59l-0.1 -0.05 0 -3.01 -4.36 0 0 23.86z"/>
  <path class="fil3" d="M151.02 181.62l0 -181.62 -129.97 0c-11.58,0 -21.05,9.47 -21.05,21.05l0 139.52c0,11.58 9.47,21.05 21.05,21.05l129.97 0z"/>
  <g id="_975915024">
   <path class="fil4" d="M92.14 117.36c-5.38,1.39 -10.15,2.2 -15.87,1.16 -4.89,-0.88 -9.27,-2.44 -12.94,-4.76l-5.68 -4.41c-0.2,-0.22 -0.38,-0.35 -0.61,-0.56l-3.64 -4.13c-2.17,-2.86 -4.51,-7.75 -5.45,-11.11 -3.03,-10.74 -0.88,-20.39 4.21,-28.73 0.7,-1.14 1.39,-1.86 1.9,-2.63 0.23,-0.35 0.27,-0.35 0.51,-0.66l1.55 -1.68c0.42,-0.4 0.72,-0.77 1.15,-1.18 0.23,-0.22 0.39,-0.34 0.61,-0.55 1.36,-1.33 1.38,-1.47 2.95,-2.49 0.84,-0.54 1.71,-1.26 2.67,-1.85 1.71,-1.06 4.02,-2.14 5.93,-2.87 0.57,-0.22 1.06,-0.37 1.64,-0.55 1.38,-0.44 1.32,-0.2 1.56,-0.76l-0.26 -0.41c-2.2,0.15 -6.98,2.07 -8.97,2.93 -2.83,1.22 -4.97,2.71 -7.45,4.34 -0.38,0.25 -0.56,0.41 -0.87,0.68l-2.47 1.94c-0.33,0.32 -0.42,0.46 -0.79,0.77 -0.29,0.24 -0.48,0.41 -0.75,0.67 -0.92,0.87 -1.76,1.97 -2.11,2.3 -0.43,0.4 -0.33,0.36 -0.66,0.76l-1.65 2.11c-0.15,0.21 -0.19,0.21 -0.36,0.42 -0.26,0.32 -0.26,0.44 -0.56,0.86 -7.72,10.79 -10.07,26.04 -5.13,39.74 1.22,3.37 4.36,9.47 7.01,12.42l1.37 1.48c0.28,0.27 0.41,0.48 0.65,0.77 1.47,1.77 4.95,4.75 7.11,6.22 0.27,0.19 0.5,0.35 0.85,0.58 0.6,0.39 1.18,0.75 1.85,1.14 1.24,0.72 2.45,1.29 3.82,2 5.16,2.66 13.38,4.22 19.59,3.97 3.84,-0.16 6.56,-0.67 10.24,-1.53 3.99,-0.93 5.86,-2.34 8.59,-3.32l1.32 2.05c0.24,0.37 0.49,0.59 0.72,0.96l3.41 4.87c0.37,-0.29 0.44,-0.54 0.63,-1.01l3.24 -7.11c1.2,-2.68 2.39,-5.52 3.68,-8.1l3.69 -8.09c1.1,-2.64 2.7,-5.44 3.63,-8.05 -1.02,-0 -32.4,6.51 -33.07,6.83l2.43 3.52c0.19,0.27 0.29,0.31 0.46,0.58 0.14,0.22 0.12,0.27 0.31,0.52z"/>
   <path class="fil4" d="M81.5 87.17l1.26 0.08c0.05,2.12 0.22,17.17 -0.1,17.91 -0.84,0.48 -1.2,0.15 -1.19,-0.83 0.02,-4.18 -0.19,-14.48 0.03,-17.16zm-5.42 2.19c-0.25,-1.12 0.52,-1.49 1.12,-2.09 0.56,-0.56 1.11,-1.3 1.78,-1.66 0.34,0.18 0.19,0.09 0.49,0.36 0.2,0.19 0.25,0.25 0.42,0.49 -0.41,0.6 -1.12,1.17 -1.66,1.71 -0.57,0.57 -1.06,1.51 -2.15,1.19zm10.02 -9.09c-0.16,-0.11 -0.06,-0.04 -0.22,-0.19l-0.67 -0.77c0.55,-0.71 1.65,-1.69 2.35,-2.39l15.92 -15.92c0.24,-0.25 1.06,-1.2 1.63,-0.53 0.57,0.67 -1.49,2.32 -1.83,2.66 -2.02,2.02 -16.22,16.39 -17.17,17.15zm0.28 0.49c0.29,-0.47 4.27,-4.34 5,-5.07l12.62 -12.62c0.42,-0.42 2.48,-1.97 1.4,-3.03 -1.08,-1.07 -2.74,1.09 -3.11,1.46l-7.57 7.57c-0.63,0.63 -9.6,9.73 -10.07,10 -1.25,-1.04 -3.67,-0.88 -5.33,0.75 -1.57,1.54 -1.57,3.21 -0.67,5.36 -0.65,0.51 -1.42,1.39 -2.05,2.02 -0.35,0.35 -1.77,1.68 -0.76,2.55 1.45,1.24 3.21,-2.29 4.56,-2.96l0.56 0.28c0.16,4.27 0.01,10.22 0.01,14.81 0,2.17 -0.4,3.95 1.11,3.97 1.73,0.02 1.17,-2.57 1.17,-3.84 0,-3.6 -0.21,-12.23 0.03,-14.76 1.75,-0.74 2.28,-0.79 3.04,-2.25 0.83,-1.61 0.64,-2.65 0.06,-4.23z"/>
   <path class="fil4" d="M86.09 80.28c0.95,-0.76 15.15,-15.13 17.17,-17.15 0.34,-0.34 2.4,-1.99 1.83,-2.66 -0.57,-0.67 -1.38,0.28 -1.63,0.53l-15.92 15.92c-0.7,0.7 -1.81,1.68 -2.35,2.39l0.67 0.77c0.16,0.15 0.06,0.08 0.22,0.19z"/>
   <path class="fil4" d="M81.5 87.17c-0.22,2.68 -0.02,12.98 -0.03,17.16 -0,0.98 0.36,1.31 1.19,0.83 0.32,-0.74 0.15,-15.79 0.1,-17.91l-1.26 -0.08z"/>
   <path class="fil4" d="M50.7 84.52c0.19,1.53 2.41,1.2 3.81,1.2 0.96,0 3.74,0.39 3.44,-1.71 -0.24,-1.63 -2.3,-1.2 -3.96,-1.2 -1.51,0 -3.54,-0.21 -3.3,1.72z"/>
   <path class="fil4" d="M113.28 84.78c0.29,-0.81 -0.22,-1.45 -0.61,-1.73 -0.61,-0.43 -3.94,-0.26 -4.83,-0.25 -2.44,0.04 -1.95,2.16 -0.98,2.71 0.58,0.33 1.59,0.21 2.29,0.21 1.44,-0 3.68,0.35 4.14,-0.94z"/>
   <path class="fil4" d="M80.61 114.42c0.2,1.54 2.51,1.53 2.8,0.06 0.1,-0.49 0.08,-4.35 0.01,-4.92 -0.21,-1.7 -2.53,-1.67 -2.79,-0.1 -0.1,0.62 -0.1,4.31 -0.02,4.97z"/>
   <path class="fil4" d="M81.52 52.98c-1.31,0.56 -0.94,2.61 -0.94,4.1 0,0.65 -0.13,1.83 0.17,2.35 0.27,0.49 0.97,1.01 1.77,0.69 1.3,-0.52 0.92,-2.63 0.92,-4.08 0,-0.64 0.13,-1.83 -0.16,-2.35 -0.25,-0.45 -0.98,-1.04 -1.76,-0.71z"/>
   <path class="fil4" d="M63.65 93.93c0.28,-0.35 0.09,-1.47 -1.16,-0.65 -0.52,0.34 -1.07,0.7 -1.58,1.02 -0.45,0.28 -2.96,1.82 -3.15,2.05 -0.46,0.59 0.16,1.22 1.1,0.57l4.78 -2.99z"/>
   <path class="fil4" d="M57.48 72.18c0.11,0.21 2.83,1.66 3.3,1.93 1.55,0.87 2.86,2.05 2.84,0.34l-4.94 -2.79c-0.84,-0.51 -1.71,-0.43 -1.21,0.52z"/>
   <path class="fil4" d="M106.53 97.17c0.33,-1.09 -0.33,-1.06 -1.07,-1.47 -0.56,-0.32 -0.99,-0.59 -1.55,-0.91 -0.79,-0.44 -2.51,-1.68 -3.44,-1.57 -0.28,1.05 1.06,1.5 2.65,2.37 1.19,0.65 2.44,1.68 3.41,1.58z"/>
   <path class="fil4" d="M69.15 108.83c1.12,0.14 1.39,-1.1 2.33,-2.68 0.6,-1 1.76,-2.67 1.53,-3.48 -1.15,-0.12 -0.96,0.29 -2.32,2.69 -0.66,1.16 -1.77,2.59 -1.54,3.46z"/>
   <path class="fil4" d="M106.33 72.1c0.35,-0.51 -0.27,-1.12 -1.24,-0.42 -0.61,0.44 -4.6,2.83 -4.72,3.08 -0.5,1.04 0.64,0.83 1.25,0.45 0.58,-0.36 1.03,-0.69 1.57,-1.02 0.42,-0.26 2.96,-1.85 3.13,-2.09z"/>
   <path class="fil4" d="M94.62 108.61c0.82,-0.26 -0.03,-1.28 -0.27,-1.66 -0.71,-1.17 -2.23,-3.32 -2.73,-4.36 -0.53,-0.03 -0.49,-0.05 -0.86,0.16 -0.14,0.77 0.36,1.13 0.73,1.75 0.31,0.52 0.64,0.97 0.96,1.5 0.54,0.9 1.54,2.82 2.17,2.61z"/>
   <path class="fil4" d="M72.41 65.94c0.53,0.03 0.5,0.05 0.87,-0.16 0.1,-0.77 -0.35,-1.11 -0.69,-1.66l-1.87 -2.92c-0.28,-0.42 -0.63,-1.35 -1.2,-1.29 -1.2,0.12 0.45,2.1 1.01,3.02 0.61,0.99 1.39,2.04 1.87,3.02z"/>
   <path class="fil4" d="M91.4 65.91c0.78,-0.24 2.35,-3.48 3.03,-4.63 0.15,-0.26 0.43,-0.63 0.47,-0.87 0.08,-0.4 -0.07,-0.76 -0.51,-0.72 -0.53,0.05 -1.7,2.41 -2.04,3.01 -1.02,1.82 -1.93,2.65 -0.96,3.2z"/>
   <path class="fil4" d="M76.08 89.37c1.09,0.32 1.58,-0.62 2.15,-1.19 0.54,-0.54 1.25,-1.12 1.66,-1.71 -0.17,-0.24 -0.22,-0.3 -0.42,-0.49 -0.3,-0.28 -0.16,-0.18 -0.49,-0.36 -0.67,0.37 -1.22,1.11 -1.78,1.66 -0.6,0.6 -1.37,0.98 -1.12,2.09z"/>
  </g>
 </g>
</svg>
