<?xml version="1.0" encoding="UTF-8"?>
<!DOCTYPE svg PUBLIC "-//W3C//DTD SVG 1.1//EN" "http://www.w3.org/Graphics/SVG/1.1/DTD/svg11.dtd">
<!-- Creator: CorelDRAW 2017 -->
<svg xmlns="http://www.w3.org/2000/svg" xml:space="preserve" width="5.36263in" height="2.42948in" version="1.1" style="shape-rendering:geometricPrecision; text-rendering:geometricPrecision; image-rendering:optimizeQuality; fill-rule:evenodd; clip-rule:evenodd"
viewBox="0 0 500.51 226.75"
 xmlns:xlink="http://www.w3.org/1999/xlink">
 <defs>
  <style type="text/css">
   <![CDATA[
    .fil4 {fill:#FEFEFE}
    .fil3 {fill:#E6B631}
    .fil0 {fill:#FFCE43}
    .fil1 {fill:#FEFEFE;fill-rule:nonzero}
    .fil2 {fill:#FEFEFE;fill-rule:nonzero}
   ]]>
  </style>
 </defs>
 <g id="Layer_x0020_1">
  <metadata id="CorelCorpID_0Corel-Layer"/>
  <path class="fil0" d="M26.28 0l447.95 0c14.45,0 26.28,11.83 26.28,26.28l0 174.19c0,14.45 -11.83,26.28 -26.28,26.28l-447.95 0c-14.45,0 -26.28,-11.83 -26.28,-26.28l0 -174.19c0,-14.45 11.83,-26.28 26.28,-26.28z"/>
  <path class="fil1" d="M198.02 96.63l0.07 0.14 36.96 0 0 -9.97 -16.22 0 -0.07 -0.14 6.24 -8.25c5.38,-7.18 8.18,-12.56 8.18,-18.37 0,-9.76 -7.97,-16 -18.23,-16 -5.81,0 -10.19,2.01 -13.2,4.16l0 10.69c3.88,-3.01 8.4,-4.66 12.13,-4.66 4.59,0 7.75,2.44 7.75,6.82 0,3.95 -2.58,7.75 -7.75,14.64l-15.86 20.95zm40.62 -10.98l25.19 0 0 11.12 11.34 0 0 -11.12 7.89 0 0 -8.68 -7.89 0 0 -32.15 -10.12 0 -26.48 40.69 0.07 0.14zm15.72 -8.68l-0.07 -0.14 5.1 -7.82c1.58,-2.44 3.3,-5.17 4.66,-7.46l0.14 0.07c-0.07,2.44 -0.14,5.24 -0.14,7.82l0 7.54 -9.69 0zm48.66 22.53l8.32 0 24.26 -57.41 -8.32 0 -24.26 57.41zm56.62 -2.73l11.98 0 21.03 -51.81 -0.07 -0.14 -36.6 0 0 9.97 20.67 0 -17.01 41.98z"/>
  <path class="fil2" d="M210.39 172.79c3.75,2.18 8.78,3.33 13.02,3.33 8.78,0 14.65,-4.72 14.65,-12.72 0,-8.36 -6.3,-10.9 -12.65,-12.72 -5.33,-1.51 -10.41,-2.42 -10.41,-7.87 0,-4.48 3.45,-6.6 8.36,-6.6 3.75,0 8.72,1.27 12.72,4.06l0 -6.06c-3.51,-2.24 -8.48,-3.27 -12.59,-3.27 -8.54,0 -14.17,4.48 -14.17,12.23 0,7.99 5.99,10.54 12.17,12.29 5.75,1.63 10.9,2.6 10.9,8.23 0,4.78 -3.69,7.15 -8.9,7.15 -3.88,0 -9.02,-1.33 -13.08,-4.36l0 6.3zm37.18 0c2,2.3 5.09,3.33 8.11,3.33 4.12,0 7.69,-1.88 10.29,-4.48l0.12 0.06 0 3.75 5.45 0 0 -29.79 -5.45 0 0 20.34c-2.12,2.66 -5.63,5.09 -9.32,5.09 -1.76,0 -3.51,-0.54 -4.72,-2.06 -1.03,-1.21 -1.45,-2.91 -1.45,-6.18l0 -17.2 -5.45 0 0 18.23c0,4.24 0.73,6.9 2.42,8.9zm38.99 1.76l0.12 -0.06c1.88,0.91 4.36,1.64 7.33,1.64 8.6,0 15.56,-6.12 15.56,-15.68 0,-9.2 -6.42,-15.44 -14.41,-15.44 -3.51,0 -6.42,1.21 -8.48,2.66l-0.12 -0.06 0 -1.94 -5.45 0 0 43.11 5.45 0 0 -14.23zm0 -5.27l0 -16.65c2.12,-1.76 5.03,-2.72 7.69,-2.72 5.93,0 9.81,4.9 9.81,10.96 0,6.12 -4,10.48 -9.93,10.48 -2.91,0 -5.69,-1.03 -7.57,-2.06zm36.03 5.27l0.12 -0.06c1.88,0.91 4.36,1.64 7.33,1.64 8.6,0 15.56,-6.12 15.56,-15.68 0,-9.2 -6.42,-15.44 -14.41,-15.44 -3.51,0 -6.42,1.21 -8.48,2.66l-0.12 -0.06 0 -1.94 -5.45 0 0 43.11 5.45 0 0 -14.23zm0 -5.27l0 -16.65c2.12,-1.76 5.03,-2.72 7.69,-2.72 5.93,0 9.81,4.9 9.81,10.96 0,6.12 -4,10.48 -9.93,10.48 -2.91,0 -5.69,-1.03 -7.57,-2.06zm28.52 -8.72c0,8.78 6.72,15.56 15.74,15.56 9.02,0 15.74,-6.78 15.74,-15.56 0,-8.78 -6.72,-15.56 -15.74,-15.56 -9.02,0 -15.74,6.78 -15.74,15.56zm5.45 0c0,-5.99 4.36,-10.6 10.29,-10.6 5.93,0 10.29,4.6 10.29,10.6 0,5.99 -4.36,10.6 -10.29,10.6 -5.93,0 -10.29,-4.6 -10.29,-10.6zm33.54 14.9l5.45 0 0 -19.38c1.88,-3.21 4.72,-5.27 8.78,-5.27 0.67,0 1.39,0.06 2.12,0.24l0 -5.39c-0.67,-0.18 -1.33,-0.24 -1.94,-0.24 -3.51,0 -6.78,1.76 -8.84,4.66l-0.12 -0.06 0 -4.36 -5.45 0 0 29.79zm27.13 -2.12c1.94,2.24 4.6,2.79 6.78,2.79 2.06,0 4.18,-0.48 5.39,-1.09l0 -5.15c-1.15,0.73 -2.91,1.27 -4.48,1.27 -3.94,0 -4.48,-3.39 -4.48,-7.08l0 -13.5 8.96 0 0 -4.9 -8.96 0 0 -9.02 -5.45 0.91 0 8.11 -5.51 0 0 4.9 5.51 0 0 14.53c0,4.18 0.79,6.6 2.24,8.24z"/>
  <path class="fil3" d="M188.54 226.75l0 -226.75 -162.26 0c-14.46,0 -26.28,11.83 -26.28,26.28l0 174.19c0,14.46 11.83,26.28 26.28,26.28l162.26 0z"/>
  <g id="_975897904">
   <path class="fil4" d="M35.78 78.19l8.22 4.45c-0.68,1.59 -1.61,3.25 -2.33,4.92 -0.76,1.78 -1.37,3.52 -1.96,5.37 -2.56,8.07 -3.35,17.41 -2.15,25.91 0.64,4.56 1.62,7.72 2.87,11.72 2.54,8.15 8.7,17.13 14.08,22.32 0.65,0.63 1.14,1.1 1.84,1.78 0.71,0.69 1.28,1.06 2,1.72 2.42,2.22 5.47,4.12 8.64,6.05 5.67,3.46 14.21,6.4 21.8,7.36 9.48,1.19 17.52,0.24 26,-2.31 8.27,-2.48 15.31,-7.02 20.95,-11.83 2.86,-2.44 6.67,-6.43 8.81,-9.51 0.82,-1.18 2.48,-3.3 2.94,-4.49 -0.25,0.15 -3.34,3.19 -3.82,3.71 -2.74,2.93 -9.38,7.7 -12.92,9.74 -6.57,3.78 -13.11,6.7 -21.56,8.54 -18.47,4.01 -36.01,-1.74 -46.84,-10.93 -5.26,-4.46 -9.68,-9.19 -13.59,-16.51 -3.63,-6.79 -6.02,-14.83 -6.32,-23.73 -0.35,-10.34 2.53,-21.86 7.87,-29.74 0.51,-0.76 0.97,-1.52 1.48,-2.25 1.89,-2.75 6.33,-8.71 8.67,-10.18l-24.65 7.89z"/>
   <path class="fil4" d="M60.7 90.64l0.07 0.16c0.05,0.01 1.14,-1.26 1.31,-1.43l2.88 -2.7c7.2,-5.88 13.7,-10.18 23.54,-12.56 13.85,-3.35 26.42,1.38 34.04,8.35 7,6.4 13.76,17.2 12.08,31.98 -0.96,8.47 -5.34,17.04 -11.05,22.24 -1.17,1.07 -4.61,4.25 -6.32,4.87l-2.42 -5.17 -6.03 14.04c2.35,-0.27 7.76,-2.79 9.56,-3.85 8.28,-4.92 14.81,-11.66 18.63,-21.61 2.78,-7.24 3.45,-15.12 1.9,-23.27 -1.32,-6.92 -5.14,-14.18 -8.66,-18.22 -3.95,-4.54 -8.33,-8.49 -15.19,-11.6 -17.06,-7.73 -37.05,-2.98 -48.86,10.84 -1.67,1.95 -2.89,3.54 -4.24,5.79 -0.25,0.41 -1.05,1.92 -1.24,2.13z"/>
   <path class="fil4" d="M88.65 108.5c0.07,-0.47 2.85,-4.78 3.37,-5.65 0.57,-0.96 1.07,-1.93 1.57,-2.98 0.29,-0.62 1.09,-2.67 1.5,-2.92l-0.13 11.56 -6.3 -0.01zm-6.27 1.29l0.03 3.7c3.46,0.13 8.72,0.01 12.52,0.01l0.03 6.7 6.29 0.06 0.01 -6.71 3.38 -0.05 0.03 -4.96 -3.38 -0.03 -0.03 -16.63 -8.14 -0.01c-1.63,2.93 -3.71,5.87 -5.45,8.81 -0.91,1.53 -1.81,2.94 -2.73,4.41 -0.6,0.96 -2.55,3.55 -2.55,4.71z"/>
   <path class="fil4" d="M59.35 94.25l1.81 4.77c0.53,-0.22 1.27,-0.82 1.88,-1.14 2.19,-1.18 5.32,-1.74 7.38,-0.29 3.09,2.18 0.84,6.51 -0.85,8.48 -2.07,2.4 -3.82,4.06 -6.19,6.22 -1.1,1.01 -2.23,1.94 -3.27,2.93 -0.73,0.7 -1.17,0.63 -1.15,1.93 0.02,1.03 -0.02,2.06 0.01,3.09l20.15 0.05 -0 -5.43 -10.63 -0.02c0.07,-0.21 3.21,-2.87 3.67,-3.29 3.62,-3.3 7.8,-8.23 6.05,-14.06 -1.77,-5.91 -8.82,-7.01 -14.09,-5.46 -2.31,0.68 -3.02,1.31 -4.75,2.25z"/>
   <path class="fil4" d="M116.8 114.55l8.19 0.01 -7.37 14.57 4.52 0.02 6.16 -12.85c1.21,-2.42 1.19,-1.96 1.22,-5.15l-12.74 -0.06 0.01 3.45z"/>
   <polygon class="fil4" points="105.39,127.25 108.79,127.26 115.98,102.9 112.6,102.88 "/>
   <polygon class="fil4" points="70.48,156.73 71.75,157.44 76.39,149.31 75.18,148.56 "/>
   <polygon class="fil4" points="97.11,66.74 97.71,66.75 97.92,66.75 98.51,66.74 98.52,57.36 98.02,57.32 97.61,57.33 97.11,57.35 "/>
   <polygon class="fil4" points="141.86,111.49 151.26,111.49 151.26,110.1 141.85,110.07 "/>
   <polygon class="fil4" points="70.5,64.84 75.16,72.97 76.39,72.28 71.73,64.18 "/>
   <polygon class="fil4" points="97.1,164.2 98.52,164.22 98.52,154.83 97.14,154.82 "/>
   <polygon class="fil4" points="51.19,84.64 59.3,89.35 60.01,88.14 51.92,83.46 "/>
   <polygon class="fil4" points="119.22,72.3 120.47,72.99 125.12,64.91 123.99,64.17 "/>
   <polygon class="fil4" points="135.63,133.36 143.72,138.1 144.44,136.91 136.28,132.17 "/>
   <polygon class="fil4" points="119.25,149.25 123.9,157.37 125.13,156.75 120.46,148.59 "/>
   <polygon class="fil4" points="51.22,136.86 51.87,138.09 59.98,133.45 59.37,132.22 "/>
   <polygon class="fil4" points="135.63,88.14 136.26,89.34 144.43,84.69 143.78,83.48 "/>
  </g>
 </g>
</svg>
