<?xml version="1.0" encoding="UTF-8"?>
<!DOCTYPE svg PUBLIC "-//W3C//DTD SVG 1.1//EN" "http://www.w3.org/Graphics/SVG/1.1/DTD/svg11.dtd">
<!-- Creator: CorelDRAW 2017 -->
<svg xmlns="http://www.w3.org/2000/svg" xml:space="preserve" width="5.36263in" height="2.42948in" version="1.1" style="shape-rendering:geometricPrecision; text-rendering:geometricPrecision; image-rendering:optimizeQuality; fill-rule:evenodd; clip-rule:evenodd"
viewBox="0 0 656.23 297.3"
 xmlns:xlink="http://www.w3.org/1999/xlink">
 <defs>
  <style type="text/css">
   <![CDATA[
    .fil4 {fill:#FEFEFE}
    .fil3 {fill:#89B823}
    .fil0 {fill:#A9CF55}
    .fil1 {fill:#FEFEFE;fill-rule:nonzero}
    .fil2 {fill:#FEFEFE;fill-rule:nonzero}
   ]]>
  </style>
 </defs>
 <g id="Layer_x0020_1">
  <metadata id="CorelCorpID_0Corel-Layer"/>
  <path class="fil0" d="M34.46 0l587.31 0c18.95,0 34.46,15.51 34.46,34.46l0 228.38c0,18.95 -15.51,34.46 -34.46,34.46l-587.31 0c-18.95,0 -34.46,-15.51 -34.46,-34.46l0 -228.38c0,-18.95 15.51,-34.46 34.46,-34.46z"/>
  <path class="fil1" d="M284.34 126.89l8.94 0 0 -68.12 -8.94 0 0 68.12zm23.99 0l8.47 0 0 -31.71c3.29,-4.42 9.22,-7.72 14.49,-7.72 2.54,0 5.55,0.75 7.43,3.01 1.51,1.79 2.16,4.61 2.16,9.41l0 27 8.47 0 0 -28.6c0,-7.15 -1.32,-10.73 -3.86,-13.64 -2.92,-3.29 -7.24,-5.08 -12.33,-5.08 -6.49,0 -12.14,2.92 -16.18,6.96l-0.19 -0.09 0 -5.83 -8.47 0 0 46.29zm54.48 -2.63c4.8,2.45 11.29,3.67 17.22,3.67 9.88,0 19.48,-4.05 19.48,-14.77 0,-9.6 -7.34,-12.04 -16.18,-13.55 -6.87,-1.22 -13.45,-1.22 -13.45,-6.49 0,-4.14 4.14,-5.93 10.07,-5.93 5.36,0 11.76,1.51 16.94,4.52l0 -8.47c-4.61,-2.45 -11.01,-3.67 -16.56,-3.67 -10.73,0 -18.91,4.61 -19.01,14.21 0,9.13 6.96,11.76 15.81,13.27 7.15,1.22 13.83,1.32 13.83,6.87 0,4.52 -4.14,6.4 -10.54,6.4 -5.74,0 -12.33,-1.6 -17.59,-4.89l0 8.84zm55.23 -0.66c3.01,3.48 7.15,4.33 10.54,4.33 3.2,0 6.49,-0.75 8.37,-1.69l0 -8c-1.79,1.13 -4.52,1.98 -6.96,1.98 -6.12,0 -6.96,-5.27 -6.96,-11.01l0 -20.98 13.93 0 0 -7.62 -13.93 0 0 -14.02 -8.47 1.41 0 12.61 -8.56 0 0 7.62 8.56 0 0 22.58c0,6.49 1.22,10.26 3.48,12.8zm42.34 4.33c6.21,0 11.57,-2.63 14.21,-5.08l0.19 0c1.79,3.29 5.27,4.89 8.94,4.89 1.79,0 3.39,-0.38 4.52,-0.85l0 -7.06c-0.75,0.38 -1.79,0.66 -2.73,0.66 -2.54,0 -3.58,-2.07 -3.58,-4.89l0 -19.66c0,-5.74 -1.88,-9.69 -4.61,-12.14 -3.29,-3.01 -8.19,-4.23 -13.83,-4.23 -6.87,0 -11.86,1.79 -15.43,3.95l0 8.28c3.48,-2.54 8.37,-4.61 14.21,-4.61 3.95,0 6.77,0.94 8.56,2.54 1.79,1.69 2.63,4.23 2.63,7.62l0 3.86c-3.01,-0.75 -6.3,-1.22 -9.88,-1.22 -4.8,0 -9.5,0.85 -12.98,3.11 -3.67,2.35 -6.12,6.12 -6.12,11.29 0,4.52 1.88,8 4.89,10.26 3.11,2.35 7.24,3.29 11.01,3.29zm1.51 -7.53c-4.99,0 -8.84,-2.26 -8.84,-6.77 0,-5.46 5.65,-7.15 11.38,-7.15 2.92,0 6.49,0.47 9.03,1.22l0 8.66c-2.82,2.26 -7.15,4.05 -11.57,4.05zm35.75 6.49l8.47 0 0 -31.71c3.29,-4.42 9.22,-7.72 14.49,-7.72 2.54,0 5.55,0.75 7.43,3.01 1.51,1.79 2.16,4.61 2.16,9.41l0 27 8.47 0 0 -28.6c0,-7.15 -1.32,-10.73 -3.86,-13.64 -2.92,-3.29 -7.24,-5.08 -12.33,-5.08 -6.49,0 -12.14,2.92 -16.18,6.96l-0.19 -0.09 0 -5.83 -8.47 0 0 46.29zm62.76 -3.29c3.01,3.48 7.15,4.33 10.54,4.33 3.2,0 6.49,-0.75 8.37,-1.69l0 -8c-1.79,1.13 -4.52,1.98 -6.96,1.98 -6.12,0 -6.96,-5.27 -6.96,-11.01l0 -20.98 13.93 0 0 -7.62 -13.93 0 0 -14.02 -8.47 1.41 0 12.61 -8.56 0 0 7.62 8.56 0 0 22.58c0,6.49 1.22,10.26 3.48,12.8z"/>
  <path class="fil2" d="M294.31 226.86c5.24,2.62 12.15,4.05 17.86,4.05 12.38,0 20.88,-6.75 20.88,-17.94 0,-10.16 -6.99,-14.21 -15.64,-17.07 -6.91,-2.3 -12.23,-2.7 -12.23,-7.78 0,-3.81 3.1,-5.4 7.38,-5.4 4.45,0 11.51,1.75 17.62,5.56l0 -12.46c-5,-2.7 -11.91,-4.13 -17.54,-4.13 -12.07,0 -20.16,6.67 -20.16,17.39 0,10 7.14,13.89 15.08,16.51 7.38,2.38 12.78,2.86 12.78,8.18 0,4.29 -3.41,6.11 -8.02,6.11 -4.52,0 -11.83,-1.75 -18.02,-5.72l0 12.7zm41.04 3.18l12.94 0 4.68 -12.07 23.18 0 4.6 12.07 13.5 0 -23.34 -57.48 -12.23 0 -23.34 57.48zm23.82 -28.1c1.83,-4.84 3.89,-10.56 5.4,-14.92l0.16 0c1.51,4.37 3.57,10.08 5.24,14.61l2.38 6.43 -15.48 0 2.3 -6.11zm40.33 -9.45l4.84 0 6.51 -21.36 -6.99 0 -4.37 21.36zm11.67 35.33c4.05,2.06 9.53,3.1 14.53,3.1 8.34,0 16.43,-3.41 16.43,-12.46 0,-8.1 -6.19,-10.16 -13.65,-11.43 -5.8,-1.03 -11.35,-1.03 -11.35,-5.48 0,-3.49 3.49,-5 8.49,-5 4.53,0 9.92,1.27 14.29,3.81l0 -7.15c-3.89,-2.06 -9.29,-3.1 -13.97,-3.1 -9.05,0 -15.96,3.89 -16.04,11.99 0,7.7 5.87,9.92 13.34,11.19 6.03,1.03 11.67,1.11 11.67,5.8 0,3.81 -3.49,5.4 -8.89,5.4 -4.84,0 -10.4,-1.35 -14.85,-4.13l0 7.46z"/>
  <path class="fil3" d="M247.2 297.3l0 -297.3 -212.74 0c-18.95,0 -34.46,15.5 -34.46,34.46l0 228.38c0,18.95 15.5,34.46 34.46,34.46l212.74 0z"/>
  <path class="fil4" d="M138.02 131.21c0,1.48 1.29,2.91 2.44,3.41 1.77,0.76 15.22,0.39 17.74,0.39 -1.49,2.81 -2.89,5.53 -4.56,8.31l-3.43 6.22c-2.94,5.29 -7.6,14.3 -10.38,18.86 -1.67,2.74 -2.9,5.51 -4.57,8.3l-2.31 4.12c-2.66,5.25 -6.33,11.29 -9.16,16.57l-2.44 4.29c0.09,-4.05 2.06,-19.64 2.33,-24.57l1.72 -18.46c0.58,-5.59 1.47,-9.9 -4.63,-9.9l-23.69 0c0.05,-2.11 12.22,-49.01 13.97,-56.21 0.29,-1.19 0.84,-2.86 2.11,-2.86l33.34 0c3.9,0 1.45,5.74 0.46,9.23l-6.05 21.44c-0.49,1.68 -0.94,3.49 -1.46,5.26 -0.33,1.14 -1.43,4.39 -1.43,5.59zm-45.62 25.44l25.44 0 -1.76 19.29c-0.45,8.05 -2.92,26.8 -2.92,32.76 0,2.44 2.95,5.56 5.26,5.56 4.83,0 5.52,-1.11 7.99,-5.75 0.41,-0.78 0.56,-0.88 0.98,-1.66l22.74 -41.3c1.26,-2.11 2.19,-4.16 3.44,-6.21 0.63,-1.04 1.18,-2.09 1.79,-3.18 0.66,-1.18 1.11,-2.06 1.75,-3.22l10.42 -18.82c1.39,-2.35 1.71,-5.2 -1.1,-6.48 -2.48,-1.13 -15.28,-0.53 -19.35,-0.53l4.71 -17.22c0.95,-3.22 4.64,-14.89 4.64,-18.16 0,-5.09 -4.77,-9.65 -8.77,-9.65l-34.8 0c-8.64,0 -9.49,9.78 -10.81,14.92l-10.47 41.58c-0.67,2.59 -3.92,13.33 -3.25,15.38 0.51,1.54 1.95,2.68 4.06,2.68z"/>
 </g>
</svg>
