<?xml version="1.0" encoding="UTF-8"?>
<!DOCTYPE svg PUBLIC "-//W3C//DTD SVG 1.1//EN" "http://www.w3.org/Graphics/SVG/1.1/DTD/svg11.dtd">
<!-- Creator: CorelDRAW 2017 -->
<svg xmlns="http://www.w3.org/2000/svg" xml:space="preserve" width="5.36263in" height="2.42948in" version="1.1" style="shape-rendering:geometricPrecision; text-rendering:geometricPrecision; image-rendering:optimizeQuality; fill-rule:evenodd; clip-rule:evenodd"
viewBox="0 0 919.68 416.65"
 xmlns:xlink="http://www.w3.org/1999/xlink">
 <defs>
  <style type="text/css">
   <![CDATA[
    .fil4 {fill:#FEFEFE}
    .fil3 {fill:#7D569E}
    .fil0 {fill:#946FB2}
    .fil1 {fill:#FEFEFE;fill-rule:nonzero}
    .fil2 {fill:#FEFEFE;fill-rule:nonzero}
   ]]>
  </style>
 </defs>
 <g id="Layer_x0020_1">
  <metadata id="CorelCorpID_0Corel-Layer"/>
  <path class="fil0" d="M48.29 0l823.1 0c26.56,0 48.29,21.73 48.29,48.29l0 320.07c0,26.56 -21.73,48.29 -48.29,48.29l-823.1 0c-26.56,0 -48.29,-21.73 -48.29,-48.29l0 -320.07c0,-26.56 21.73,-48.29 48.29,-48.29z"/>
  <path class="fil1" d="M415.45 180.25l20.06 0 9.43 -30.45c2.3,-7.37 4.35,-14.26 6.28,-21.27l0.24 0c1.93,7.01 3.87,13.54 6.16,20.91l9.43 30.82 20.3 0 26.95 -87.49 -19.34 0 -11.24 37.22c-2.3,7.49 -4.59,15.59 -6.53,22.96l-0.24 0c-2.05,-7.49 -4.35,-15.23 -6.65,-22.72l-11.48 -37.46 -14.02 0 -11.6 37.46c-2.3,7.37 -4.59,15.23 -6.65,22.72l-0.24 0c-1.93,-7.37 -4.11,-15.23 -6.28,-22.6l-11.12 -37.58 -20.18 0 26.71 87.49zm154.93 -24.89c0.24,-1.57 0.36,-4.23 0.36,-6.28 0,-19.94 -13.78,-29.61 -28.4,-29.61 -16.44,0 -31.18,12.33 -31.18,31.3 0,18.61 14.14,30.82 33.72,30.82 7.86,0 16.8,-1.81 22.6,-5.44l0 -15.35c-6.28,4.23 -13.54,6.53 -20.18,6.53 -8.46,0 -15.23,-3.75 -17.28,-11.96l40.36 0zm-28.28 -21.87c5.92,0 10.63,3.87 11.72,10.27l-23.93 0c1.57,-6.77 6.53,-10.27 12.21,-10.27zm96.07 21.87c0.24,-1.57 0.36,-4.23 0.36,-6.28 0,-19.94 -13.78,-29.61 -28.4,-29.61 -16.44,0 -31.18,12.33 -31.18,31.3 0,18.61 14.14,30.82 33.72,30.82 7.86,0 16.8,-1.81 22.6,-5.44l0 -15.35c-6.28,4.23 -13.54,6.53 -20.18,6.53 -8.46,0 -15.23,-3.75 -17.28,-11.96l40.36 0zm-28.28 -21.87c5.92,0 10.63,3.87 11.72,10.27l-23.93 0c1.57,-6.77 6.53,-10.27 12.21,-10.27zm40.61 46.77l18.37 0 0 -30.21 0.24 -0.12 21.63 30.33 21.75 0 -24.41 -32.87 22.72 -26.59 -20.91 0 -20.79 25.26 -0.24 -0.12 0 -58.01 -18.37 0 0 92.33zm70.21 0l18.37 0 0 -92.33 -18.37 0 0 92.33zm54.02 26.59l38.67 -86.04 -18.25 0 -6.28 14.38c-2.78,6.4 -5.44,12.69 -8.1,19.21l-0.24 0c-2.42,-6.16 -4.96,-12.45 -7.61,-18.85l-6.16 -14.74 -19.34 0 24.17 52.93 -15.59 33.11 18.73 0z"/>
  <path class="fil2" d="M414.68 323.24l10.2 0 0 -33.3 13.21 0 23.74 33.3 12.35 0 -24.92 -34.27c3.22,-0.54 6.12,-1.5 8.92,-3.22 5.91,-3.54 9.99,-9.88 9.99,-18.26 0,-8.59 -4.3,-14.61 -10.74,-18.15 -6.34,-3.54 -13.86,-3.87 -21.7,-3.87l-21.05 0 0 77.77zm10.2 -41.68l0 -26.85 10.1 0c7.52,0 12.46,0.32 16.65,2.58 4.08,2.26 6.34,6.12 6.34,11.06 0,4.3 -1.72,7.52 -4.62,9.67 -3.54,2.69 -8.38,3.54 -15.25,3.54l-13.21 0zm102.05 18.05c0.21,-1.29 0.32,-3.22 0.32,-4.83 0,-16.54 -11.17,-25.57 -24.06,-25.57 -14.18,0 -26.32,10.96 -26.32,27.61 0,16.65 12.25,27.61 28.57,27.61 6.87,0 14.18,-1.93 18.91,-4.94l0 -10.31c-4.83,3.65 -10.96,6.55 -18.26,6.55 -10.42,0 -18.15,-5.69 -19.55,-16.11l40.39 0zm-23.95 -21.7c6.34,0 14.07,3.54 14.93,14.07l-31.15 0c1.72,-9.77 9.24,-14.07 16.22,-14.07zm47.69 43.72l0.21 -0.11c3.33,1.61 7.73,2.9 13,2.9 15.25,0 27.61,-10.85 27.61,-27.82 0,-16.33 -11.39,-27.39 -25.57,-27.39 -6.23,0 -11.39,2.15 -15.04,4.73l-0.21 -0.11 0 -3.44 -9.67 0 0 76.48 9.67 0 0 -25.24zm0 -9.35l0 -29.54c3.76,-3.11 8.92,-4.83 13.64,-4.83 10.53,0 17.4,8.7 17.4,19.44 0,10.85 -7.09,18.58 -17.62,18.58 -5.16,0 -10.1,-1.83 -13.43,-3.65zm50.59 -15.47c0,15.58 11.92,27.61 27.93,27.61 16.01,0 27.93,-12.03 27.93,-27.61 0,-15.58 -11.92,-27.61 -27.93,-27.61 -16.01,0 -27.93,12.03 -27.93,27.61zm9.67 0c0,-10.63 7.73,-18.8 18.26,-18.8 10.53,0 18.26,8.16 18.26,18.8 0,10.63 -7.73,18.8 -18.26,18.8 -10.53,0 -18.26,-8.16 -18.26,-18.8zm59.51 26.42l9.67 0 0 -34.37c3.33,-5.69 8.38,-9.35 15.58,-9.35 1.18,0 2.47,0.11 3.76,0.43l0 -9.56c-1.18,-0.32 -2.36,-0.43 -3.44,-0.43 -6.23,0 -12.03,3.12 -15.68,8.27l-0.21 -0.11 0 -7.73 -9.67 0 0 52.85zm48.12 -3.76c3.44,3.97 8.16,4.94 12.03,4.94 3.65,0 7.41,-0.86 9.56,-1.93l0 -9.13c-2.04,1.29 -5.16,2.26 -7.95,2.26 -6.98,0 -7.95,-6.02 -7.95,-12.57l0 -23.95 15.9 0 0 -8.7 -15.9 0 0 -16.01 -9.67 1.61 0 14.39 -9.78 0 0 8.7 9.78 0 0 25.78c0,7.41 1.4,11.71 3.97,14.61zm32.33 0.75c5.48,2.79 12.89,4.19 19.66,4.19 11.28,0 22.24,-4.62 22.24,-16.86 0,-10.96 -8.38,-13.75 -18.48,-15.47 -7.84,-1.4 -15.36,-1.4 -15.36,-7.41 0,-4.73 4.73,-6.77 11.49,-6.77 6.12,0 13.43,1.72 19.33,5.16l0 -9.67c-5.26,-2.79 -12.57,-4.19 -18.91,-4.19 -12.25,0 -21.59,5.26 -21.7,16.22 0,10.42 7.95,13.43 18.05,15.15 8.16,1.4 15.79,1.5 15.79,7.84 0,5.16 -4.73,7.3 -12.03,7.3 -6.55,0 -14.07,-1.83 -20.09,-5.59l0 10.1z"/>
  <path class="fil3" d="M346.44 416.65l0 -416.65 -298.15 0c-26.56,0 -48.29,21.73 -48.29,48.29l0 320.07c0,26.56 21.73,48.29 48.29,48.29l298.15 0z"/>
  <g id="_975933936">
   <path class="fil4" d="M228.57 278.2c0.15,-0.13 10.23,-6.24 14.02,-9.22l8.73 -8.2c1.22,-1.39 1.98,-1.97 3.2,-3.5 0.74,-0.94 2.46,-3.34 3.2,-3.89 0,10.26 1.35,17.33 -4.66,22.12 -3.17,2.53 -5.25,2.69 -10.7,2.69 -4.59,-0 -9.19,0 -13.79,0zm-25.6 0l-89.41 0c-6.44,0 -11.82,-5.71 -11.82,-13l0 -81.53 155.97 0 0 47.66c0,5.21 -5.31,14.18 -7.76,17.44 -2.25,2.99 -6.02,7.6 -8.9,10.01 -6.96,5.82 -10.82,8.5 -19.18,12.72 -3.22,1.63 -14.75,6.69 -18.91,6.69zm3.94 -130.37c0.22,0.32 0.19,0.17 0.42,0.76 0.5,1.29 0.36,2.01 1.09,3.64 0.69,1.53 1.39,2.66 2.51,3.79 7.86,7.94 24.33,4.15 24.33,-8.58 0.32,0.36 0.15,-0.08 0.63,0.94 3.54,7.47 -2.52,22.66 -17.52,20.27 -4.72,-0.75 -7.95,-3.68 -10.23,-7.1 -2.93,-4.4 -2.49,-8.37 -1.25,-13.72zm-68.53 21.27c-10.63,0 -17.76,-10.15 -15.3,-19.24l1.12 -2.42c0,7.04 6.21,12.6 11.42,12.6 5.2,0 8.65,0.39 12.72,-3.83 2.53,-2.63 2.9,-4.39 3.82,-8.38 0.93,1.07 0.95,1.91 1.18,3.57 1.34,9.75 -6.35,17.7 -14.96,17.7zm-14.18 -45.69l0 10.63c-12.25,0 -19.97,-0.65 -28.85,8.17 -5.41,5.38 -6.81,10.37 -7.51,17.33l-0.22 7.65c-0.14,1.74 0.35,2.15 0.35,4.26 0,2.01 -0.33,2.58 -0.37,3.96 -0.05,1.57 0.37,1.88 0.37,3.92 0,2.01 -0.33,2.58 -0.37,3.96 -0.05,1.57 0.37,1.88 0.37,3.92 0,2.01 -0.33,2.58 -0.37,3.96 -0.05,1.57 0.37,1.88 0.37,3.92 0,2.01 -0.33,2.58 -0.37,3.96 -0.05,1.57 0.37,1.88 0.37,3.92 0,2.01 -0.33,2.58 -0.37,3.96 -0.05,1.57 0.37,1.88 0.37,3.92 0,2.01 -0.33,2.58 -0.37,3.96 -0.05,1.57 0.37,1.88 0.37,3.92 0,2.01 -0.33,2.58 -0.37,3.96 -0.05,1.57 0.37,1.88 0.37,3.92 0,2.01 -0.33,2.58 -0.37,3.96 -0.05,1.57 0.37,1.88 0.37,3.92 0,2.01 -0.33,2.58 -0.37,3.96 -0.05,1.57 0.37,1.88 0.37,3.92 0,2.01 -0.33,2.58 -0.37,3.96 -0.05,1.57 0.37,1.88 0.37,3.92 0,2.01 -0.33,2.58 -0.37,3.96 -0.05,1.57 0.37,1.88 0.37,3.92 0,2.01 -0.33,2.58 -0.37,3.96 -0.07,2.52 0.78,1.56 0.07,7.19 -0.2,1.57 0.17,2.12 0.28,3.44 0.53,6.14 -0.82,9.59 4.91,17.54 4.2,5.82 11.89,10.8 19.53,10.8l134.7 0c5,0 10.78,-2.53 14.27,-5.42 1.33,-1.1 2.45,-1.86 3.51,-3.18 2.03,-2.53 3.91,-4.93 5.12,-8.27 2.15,-5.94 1.52,-8.25 1.52,-13.45 0,-1.66 0.29,-2.19 0.32,-3.19l-0.32 -4.69c0,-1.66 0.29,-2.19 0.32,-3.19l-0.32 -4.69c0,-1.66 0.29,-2.19 0.32,-3.19l-0.32 -4.69c0,-1.66 0.29,-2.19 0.32,-3.19l-0.32 -4.69c0,-1.66 0.29,-2.19 0.32,-3.19l-0.32 -4.69c0,-1.66 0.29,-2.19 0.32,-3.19l-0.32 -4.69c0,-1.66 0.29,-2.19 0.32,-3.19l-0.32 -4.69c0,-1.66 0.29,-2.19 0.32,-3.19l-0.32 -4.69c0,-1.66 0.29,-2.19 0.32,-3.19l-0.32 -4.69c0,-1.66 0.29,-2.19 0.32,-3.19l-0.32 -4.69c0,-1.66 0.29,-2.19 0.32,-3.19l-0.32 -4.69c0,-1.66 0.29,-2.19 0.32,-3.19l-0.32 -4.69c0,-1.66 0.29,-2.19 0.32,-3.19l-0.32 -4.69c0,-1.66 0.29,-2.19 0.32,-3.19l-0.88 -10.82c-1.07,-4.16 -2.98,-7.62 -5.28,-10.47 -8.34,-10.32 -18.5,-9.78 -30.39,-9.78 0,-7.19 1.19,-13.95 -3.88,-18.57 -7.98,-7.26 -24.09,-3.34 -24.09,9.51l0 9.06 -55.14 0 0 -8.27c0,-7.18 -5.25,-13.78 -12.21,-13.78 -4.86,0 -7.87,-0.16 -11.88,3.48 -1.49,1.36 -3.88,5.18 -3.88,7.94z"/>
   <path class="fil4" d="M157.68 214.79l27.57 0c-6.63,12.53 -16.16,27.6 -23.1,40.31 -1.13,2.07 -2.25,3.81 -3.29,5.77l18.51 0c1.13,-1.69 2.29,-3.79 3.28,-5.78l6.64 -11.87c1.93,-3.19 16.47,-29.06 16.47,-30.4l0 -12.21 -46.08 0 0 14.18z"/>
  </g>
 </g>
</svg>
