<?xml version="1.0" encoding="UTF-8"?>
<!DOCTYPE svg PUBLIC "-//W3C//DTD SVG 1.1//EN" "http://www.w3.org/Graphics/SVG/1.1/DTD/svg11.dtd">
<!-- Creator: CorelDRAW 2017 -->
<svg xmlns="http://www.w3.org/2000/svg" xml:space="preserve" width="5.36263in" height="2.42948in" version="1.1" style="shape-rendering:geometricPrecision; text-rendering:geometricPrecision; image-rendering:optimizeQuality; fill-rule:evenodd; clip-rule:evenodd"
viewBox="0 0 290.4 131.56"
 xmlns:xlink="http://www.w3.org/1999/xlink">
 <defs>
  <style type="text/css">
   <![CDATA[
    .fil4 {fill:#FEFEFE}
    .fil3 {fill:#7D569E}
    .fil0 {fill:#946FB2}
    .fil1 {fill:#FEFEFE;fill-rule:nonzero}
    .fil2 {fill:#FEFEFE;fill-rule:nonzero}
   ]]>
  </style>
 </defs>
 <g id="Layer_x0020_1">
  <metadata id="CorelCorpID_0Corel-Layer"/>
  <path class="fil0" d="M15.25 0l259.9 0c8.39,0 15.25,6.86 15.25,15.25l0 101.07c0,8.39 -6.86,15.25 -15.25,15.25l-259.9 0c-8.39,0 -15.25,-6.86 -15.25,-15.25l0 -101.07c0,-8.39 6.86,-15.25 15.25,-15.25z"/>
  <path class="fil1" d="M124.46 54.28c2.08,1.42 5.45,2.33 8.7,2.33 6.12,0 10.99,-3.62 10.99,-8.95 0,-3.12 -1.67,-5.95 -5.04,-7.12l0 -0.08c2.75,-1.04 4.46,-3.58 4.46,-6.54 0,-4.79 -4.5,-8.37 -10.62,-8.37 -2.5,0 -4.91,0.58 -6.7,1.67l0 5.91c1.75,-0.96 4.12,-1.75 6.2,-1.75 2.71,0 4.5,1.33 4.5,3.62 0,2.12 -1.54,3.62 -4.79,3.62l-2.83 0 0 5 3 0c3.58,0 5.2,1.37 5.2,3.54 0,2.29 -1.87,3.62 -4.71,3.62 -2.71,0 -5.58,-1.17 -8.37,-2.87l0 6.37zm34.81 2.33c3.37,0 6.37,-1.42 8.33,-4.08 1.87,-2.58 2.75,-6.16 2.75,-11.45 0,-5.29 -0.87,-8.87 -2.75,-11.45 -1.96,-2.66 -4.95,-4.08 -8.33,-4.08 -3.33,0 -6.37,1.42 -8.33,4.08 -1.87,2.58 -2.75,6.16 -2.75,11.45 0,5.29 0.87,8.87 2.75,11.45 1.96,2.66 5,4.08 8.33,4.08zm0 -5.91c-1.33,0 -2.37,-0.71 -3.04,-1.62 -1,-1.42 -1.42,-3.83 -1.42,-7.95 0,-3.87 0.37,-6.54 1.42,-8.04 0.67,-0.96 1.71,-1.62 3.04,-1.62 1.37,0 2.37,0.67 3.04,1.62 1.08,1.54 1.42,4.16 1.42,7.95 0,4.25 -0.42,6.62 -1.42,8.04 -0.67,0.92 -1.67,1.62 -3.04,1.62zm26.15 5.91c3.37,0 6.37,-1.42 8.33,-4.08 1.87,-2.58 2.75,-6.16 2.75,-11.45 0,-5.29 -0.87,-8.87 -2.75,-11.45 -1.96,-2.66 -4.95,-4.08 -8.33,-4.08 -3.33,0 -6.37,1.42 -8.33,4.08 -1.87,2.58 -2.75,6.16 -2.75,11.45 0,5.29 0.87,8.87 2.75,11.45 1.96,2.66 5,4.08 8.33,4.08zm0 -5.91c-1.33,0 -2.37,-0.71 -3.04,-1.62 -1,-1.42 -1.42,-3.83 -1.42,-7.95 0,-3.87 0.37,-6.54 1.42,-8.04 0.67,-0.96 1.71,-1.62 3.04,-1.62 1.37,0 2.37,0.67 3.04,1.62 1.08,1.54 1.42,4.16 1.42,7.95 0,4.25 -0.42,6.62 -1.42,8.04 -0.67,0.92 -1.67,1.62 -3.04,1.62zm23.11 0.62l4.91 0 0 -7.95 7.79 0 0 -4.58 -7.79 0 0 -7.95 -4.91 0 0 7.95 -7.79 0 0 4.58 7.79 0 0 7.95z"/>
  <path class="fil2" d="M130.94 101.82l3.16 0 0 -10.67 9.74 0 0 -2.76 -9.74 0 0 -7.78 11.07 0 0 -2.86 -14.22 0 0 24.06zm17.35 0l2.99 0 0 -10.63c1.03,-1.76 2.59,-2.89 4.82,-2.89 0.37,0 0.76,0.03 1.16,0.13l0 -2.96c-0.37,-0.1 -0.73,-0.13 -1.06,-0.13 -1.93,0 -3.72,0.96 -4.85,2.56l-0.07 -0.03 0 -2.39 -2.99 0 0 16.35zm26.15 -7.31c0.07,-0.4 0.1,-1 0.1,-1.5 0,-5.12 -3.46,-7.91 -7.44,-7.91 -4.39,0 -8.14,3.39 -8.14,8.54 0,5.15 3.79,8.54 8.84,8.54 2.13,0 4.39,-0.6 5.85,-1.53l0 -3.19c-1.5,1.13 -3.39,2.03 -5.65,2.03 -3.22,0 -5.62,-1.76 -6.05,-4.98l12.49 0zm-7.41 -6.71c1.96,0 4.35,1.1 4.62,4.35l-9.64 0c0.53,-3.02 2.86,-4.35 5.02,-4.35zm26.12 6.71c0.07,-0.4 0.1,-1 0.1,-1.5 0,-5.12 -3.46,-7.91 -7.44,-7.91 -4.39,0 -8.14,3.39 -8.14,8.54 0,5.15 3.79,8.54 8.84,8.54 2.13,0 4.39,-0.6 5.85,-1.53l0 -3.19c-1.5,1.13 -3.39,2.03 -5.65,2.03 -3.22,0 -5.62,-1.76 -6.05,-4.98l12.49 0zm-7.41 -6.71c1.96,0 4.35,1.1 4.62,4.35l-9.64 0c0.53,-3.02 2.86,-4.35 5.02,-4.35zm19.87 14.02l3.16 0 0 -9.5 2.49 0c3.09,0 5.88,-0.1 7.98,-1.36 1.93,-1.16 3.26,-3.26 3.26,-5.98 0,-2.82 -1.4,-4.79 -3.49,-5.95 -2.09,-1.16 -4.55,-1.26 -7.11,-1.26l-6.28 0 0 24.06zm3.16 -12.26l0 -8.94 2.86 0c2.26,0 4.02,0.03 5.48,0.76 1.36,0.7 2.23,1.93 2.23,3.72 0,1.63 -0.73,2.82 -1.93,3.56 -1.33,0.8 -2.92,0.9 -5.75,0.9l-2.89 0zm16.02 4.35c0,5.05 3.59,8.27 8.01,8.27 1.96,0 3.49,-0.63 4.59,-1.4l0.07 0.03 0 1 2.99 0 0 -25.39 -2.99 0 0 9.5 -0.07 0.03c-1.06,-0.47 -2.29,-0.86 -3.92,-0.86 -5.15,0 -8.67,3.79 -8.67,8.81zm3.02 -0.17c0,-3.36 2.16,-5.98 5.62,-5.98 1.46,0 2.92,0.47 4.02,1.03l0 9.34c-1.16,0.8 -2.63,1.4 -4.25,1.4 -3.36,0 -5.38,-2.53 -5.38,-5.78zm18.71 8.08l2.99 0 0 -13.66 4.19 0 0 -2.69 -4.19 0 0 -3.56c0,-1.73 0.37,-3.12 2.43,-3.12 0.63,0 1.69,0.13 2.33,0.3l0 -2.69c-0.56,-0.17 -1.53,-0.33 -2.46,-0.33 -1.4,0 -2.79,0.37 -3.82,1.36 -1.16,1.13 -1.46,2.79 -1.46,4.92l0 3.12 -2.59 0 0 2.69 2.59 0 0 13.66zm10.37 -15.72l2.03 0 2.72 -8.94 -2.92 0 -1.83 8.94zm4.88 14.79c1.69,0.86 3.99,1.3 6.08,1.3 3.49,0 6.88,-1.43 6.88,-5.22 0,-3.39 -2.59,-4.25 -5.72,-4.79 -2.43,-0.43 -4.75,-0.43 -4.75,-2.29 0,-1.46 1.46,-2.09 3.56,-2.09 1.89,0 4.15,0.53 5.98,1.6l0 -2.99c-1.63,-0.86 -3.89,-1.3 -5.85,-1.3 -3.79,0 -6.68,1.63 -6.71,5.02 0,3.22 2.46,4.15 5.58,4.69 2.53,0.43 4.89,0.47 4.89,2.43 0,1.6 -1.46,2.26 -3.72,2.26 -2.03,0 -4.35,-0.56 -6.21,-1.73l0 3.12z"/>
  <path class="fil3" d="M109.39 131.56l0 -131.56 -94.15 0c-8.39,0 -15.25,6.86 -15.25,15.25l0 101.07c0,8.39 6.86,15.25 15.25,15.25l94.15 0z"/>
  <g id="_978192512">
   <path class="fil4" d="M76.3 88.22c-1.07,3.82 -4.11,3.81 -8.57,3.85l-25.1 -0c-4.4,-0.03 -7.4,-0.35 -8.13,-4.24 -0.49,-2.63 -0.41,-48.15 0.05,-49.92 1.05,-4.03 4.17,-3.98 8.69,-4 4.18,-0.02 8.37,-0 12.55,-0.03 5.21,-0.03 4.79,-0.25 4.89,7.82 0.07,5.28 -1.13,8.04 4.28,8.09 3.03,0.03 9.95,-0.91 11.27,1.45 0.62,1.12 0.37,10.19 0.37,12.19 0.02,4.43 0.53,21.83 -0.3,24.79zm-37.84 9.18l33.46 0c2.32,-0.92 5.35,-0.55 8.17,-4.79 2.24,-3.38 1.61,-6.92 1.61,-11.43l-0.06 -32.38c-0.37,-3.12 -6.52,-8.62 -8.64,-10.84 -2.11,-2.21 -4.38,-4.49 -6.77,-6.39 -4.34,-3.44 -3.54,-2.87 -10.43,-2.88 -4.29,-0.01 -8.57,-0.02 -12.86,-0.01 -4.96,0.01 -7.55,0.23 -10.51,2.81 -0.82,0.71 -2,2.46 -2.59,3.85 -0.92,2.17 -0.74,3.27 -0.74,5.74l0 39.18c0,5.61 -0.95,11.46 4.51,15.14 1.99,1.34 2.97,1.16 4.85,2z"/>
   <path class="fil4" d="M42.48 81.36c0.59,-0.99 1.28,-1.46 2.44,-1.91 -0.48,0.59 -1.4,1.81 -2.44,1.91zm22.29 -8.75c0.85,-0.4 2.88,-0.35 3.76,0.22 -1.02,0.38 -2.69,0.38 -3.76,-0.22zm-10.09 -5.57l3.17 4.13 -5.87 1.81 2.7 -5.94zm-1.14 -7.74c-0.49,-1.28 -0.99,-3.06 -0.2,-4.13 0.31,0.27 0.32,-0.4 0.53,0.92l-0.34 3.2zm-6.59 21.92c4.06,-4.7 0.54,-4.05 10.1,-7.02 4.52,-1.41 2.95,-0.69 6.44,0.83 7.62,3.33 10.78,-4.29 4.54,-5.17 -2.38,-0.33 -6.25,1.12 -7.8,-0.14 -0.94,-0.76 -2.84,-3.45 -3.82,-4.76 -1.64,-2.2 -0.19,-3.55 0.05,-6.71 0.22,-2.86 -0.07,-5.64 -2.84,-5.76 -2.87,-0.12 -3.68,2.28 -3.2,5.13 1.17,6.99 3.94,3.02 -0.27,12.72 -3.33,7.68 -2.68,3.22 -8.82,8.31 -3.79,3.14 0.16,8.91 5.63,2.57z"/>
  </g>
 </g>
</svg>
