<?xml version="1.0" encoding="UTF-8"?>
<!DOCTYPE svg PUBLIC "-//W3C//DTD SVG 1.1//EN" "http://www.w3.org/Graphics/SVG/1.1/DTD/svg11.dtd">
<!-- Creator: CorelDRAW 2017 -->
<svg xmlns="http://www.w3.org/2000/svg" xml:space="preserve" width="5.36263in" height="2.42948in" version="1.1" style="shape-rendering:geometricPrecision; text-rendering:geometricPrecision; image-rendering:optimizeQuality; fill-rule:evenodd; clip-rule:evenodd"
viewBox="0 0 338.11 153.18"
 xmlns:xlink="http://www.w3.org/1999/xlink">
 <defs>
  <style type="text/css">
   <![CDATA[
    .fil4 {fill:#FEFEFE}
    .fil3 {fill:#89B823}
    .fil0 {fill:#A9CF55}
    .fil1 {fill:#FEFEFE;fill-rule:nonzero}
    .fil2 {fill:#FEFEFE;fill-rule:nonzero}
   ]]>
  </style>
 </defs>
 <g id="Layer_x0020_1">
  <metadata id="CorelCorpID_0Corel-Layer"/>
  <path class="fil0" d="M17.75 0l302.6 0c9.76,0 17.75,7.99 17.75,17.75l0 117.67c0,9.76 -7.99,17.75 -17.75,17.75l-302.6 0c-9.76,0 -17.75,-7.99 -17.75,-17.75l0 -117.67c0,-9.76 7.99,-17.75 17.75,-17.75z"/>
  <path class="fil1" d="M152.85 65.38l7.71 0 0 -35.63 -14.83 5.38 0 6.98 7.13 -2.57 0 25.84zm30.01 0.53c3.93,0 7.42,-1.65 9.7,-4.75 2.18,-3.01 3.2,-7.17 3.2,-13.33 0,-6.16 -1.02,-10.33 -3.2,-13.33 -2.28,-3.1 -5.77,-4.75 -9.7,-4.75 -3.88,0 -7.42,1.65 -9.7,4.75 -2.18,3.01 -3.2,7.17 -3.2,13.33 0,6.16 1.02,10.33 3.2,13.33 2.28,3.1 5.82,4.75 9.7,4.75zm0 -6.88c-1.55,0 -2.76,-0.82 -3.54,-1.89 -1.16,-1.65 -1.65,-4.46 -1.65,-9.26 0,-4.51 0.44,-7.61 1.65,-9.36 0.78,-1.11 1.99,-1.89 3.54,-1.89 1.6,0 2.76,0.78 3.54,1.89 1.26,1.79 1.65,4.85 1.65,9.26 0,4.94 -0.48,7.71 -1.65,9.36 -0.78,1.07 -1.94,1.89 -3.54,1.89zm30.44 6.88c3.93,0 7.42,-1.65 9.7,-4.75 2.18,-3.01 3.2,-7.17 3.2,-13.33 0,-6.16 -1.02,-10.33 -3.2,-13.33 -2.28,-3.1 -5.77,-4.75 -9.7,-4.75 -3.88,0 -7.42,1.65 -9.7,4.75 -2.18,3.01 -3.2,7.17 -3.2,13.33 0,6.16 1.02,10.33 3.2,13.33 2.28,3.1 5.82,4.75 9.7,4.75zm0 -6.88c-1.55,0 -2.76,-0.82 -3.54,-1.89 -1.16,-1.65 -1.65,-4.46 -1.65,-9.26 0,-4.51 0.44,-7.61 1.65,-9.36 0.78,-1.11 1.99,-1.89 3.54,-1.89 1.6,0 2.76,0.78 3.54,1.89 1.26,1.79 1.65,4.85 1.65,9.26 0,4.94 -0.48,7.71 -1.65,9.36 -0.78,1.07 -1.94,1.89 -3.54,1.89zm30.44 6.88c3.93,0 7.42,-1.65 9.7,-4.75 2.18,-3.01 3.2,-7.17 3.2,-13.33 0,-6.16 -1.02,-10.33 -3.2,-13.33 -2.28,-3.1 -5.77,-4.75 -9.7,-4.75 -3.88,0 -7.42,1.65 -9.7,4.75 -2.18,3.01 -3.2,7.17 -3.2,13.33 0,6.16 1.02,10.33 3.2,13.33 2.28,3.1 5.82,4.75 9.7,4.75zm0 -6.88c-1.55,0 -2.76,-0.82 -3.54,-1.89 -1.16,-1.65 -1.65,-4.46 -1.65,-9.26 0,-4.51 0.44,-7.61 1.65,-9.36 0.78,-1.11 1.99,-1.89 3.54,-1.89 1.6,0 2.76,0.78 3.54,1.89 1.26,1.79 1.65,4.85 1.65,9.26 0,4.94 -0.48,7.71 -1.65,9.36 -0.78,1.07 -1.94,1.89 -3.54,1.89zm26.91 0.73l5.72 0 0 -9.26 9.07 0 0 -5.33 -9.07 0 0 -9.26 -5.72 0 0 9.26 -9.07 0 0 5.33 9.07 0 0 9.26z"/>
  <path class="fil2" d="M160.76 118.52l3.97 0 11.37 -29.61 -3.97 0 -6.34 16.48c-1.02,2.66 -2,5.28 -2.99,7.98l-0.08 0c-0.98,-2.74 -1.92,-5.28 -2.9,-7.85l-6.3 -16.61 -4.17 0 11.41 29.61zm18.04 -27.04c0,1.43 1.15,2.58 2.58,2.58 1.43,0 2.58,-1.15 2.58,-2.58 0,-1.43 -1.15,-2.58 -2.58,-2.58 -1.43,0 -2.58,1.15 -2.58,2.58zm0.74 27.04l3.68 0 0 -20.12 -3.68 0 0 20.12zm8.84 -9.73c0,6.22 4.42,10.18 9.86,10.18 2.41,0 4.29,-0.78 5.64,-1.72l0.08 0.04 0 1.23 3.68 0 0 -31.25 -3.68 0 0 11.7 -0.08 0.04c-1.31,-0.57 -2.82,-1.06 -4.83,-1.06 -6.34,0 -10.68,4.66 -10.68,10.84zm3.72 -0.2c0,-4.13 2.66,-7.36 6.91,-7.36 1.8,0 3.6,0.57 4.95,1.27l0 11.49c-1.43,0.98 -3.23,1.72 -5.24,1.72 -4.13,0 -6.63,-3.11 -6.63,-7.12zm39.68 0.94c0.08,-0.49 0.12,-1.23 0.12,-1.84 0,-6.3 -4.25,-9.73 -9.16,-9.73 -5.4,0 -10.02,4.17 -10.02,10.51 0,6.34 4.66,10.51 10.88,10.51 2.62,0 5.4,-0.74 7.2,-1.88l0 -3.93c-1.84,1.39 -4.17,2.49 -6.95,2.49 -3.97,0 -6.91,-2.17 -7.44,-6.14l15.38 0zm-9.12 -8.26c2.41,0 5.36,1.35 5.69,5.36l-11.86 0c0.65,-3.72 3.52,-5.36 6.18,-5.36zm13.09 7.2c0,5.93 4.54,10.51 10.63,10.51 6.09,0 10.63,-4.58 10.63,-10.51 0,-5.93 -4.54,-10.51 -10.63,-10.51 -6.09,0 -10.63,4.58 -10.63,10.51zm3.68 0c0,-4.05 2.94,-7.16 6.95,-7.16 4.01,0 6.95,3.11 6.95,7.16 0,4.05 -2.94,7.16 -6.95,7.16 -4.01,0 -6.95,-3.11 -6.95,-7.16zm22.13 8.92c2.09,1.06 4.91,1.6 7.49,1.6 4.29,0 8.47,-1.76 8.47,-6.42 0,-4.17 -3.19,-5.24 -7.04,-5.89 -2.99,-0.53 -5.85,-0.53 -5.85,-2.82 0,-1.8 1.8,-2.58 4.38,-2.58 2.33,0 5.11,0.65 7.36,1.96l0 -3.68c-2,-1.06 -4.79,-1.6 -7.2,-1.6 -4.66,0 -8.22,2 -8.26,6.18 0,3.97 3.03,5.11 6.87,5.77 3.11,0.53 6.01,0.57 6.01,2.99 0,1.96 -1.8,2.78 -4.58,2.78 -2.5,0 -5.36,-0.7 -7.65,-2.13l0 3.84z"/>
  <path class="fil3" d="M127.37 153.18l0 -153.18 -109.61 0c-9.77,0 -17.75,7.99 -17.75,17.75l0 117.67c0,9.77 7.99,17.75 17.75,17.75l109.61 0z"/>
  <path class="fil4" d="M50.85 82.52l0 -14.57c0,-1.98 2.06,-3.1 3.7,-2.02l3.88 2.98c0.63,0.47 6.24,4.62 6.56,5.2 0.16,0.29 0.4,0.98 0.37,1.35 -0.09,1.12 -0.61,1.54 -1.31,2.05l-8.63 6.64c-2.97,2.43 -4.58,0.29 -4.58,-1.64zm-20.31 -21.01l0 27.73c0,1.82 1.13,3.63 2.34,4.8 1.34,1.29 3.33,1.92 5.36,1.92l38.8 0c3.11,0 5.33,-1.58 6.53,-3.56 1.42,-2.34 1.04,-5.57 1.04,-9.19 1.21,0.81 8.69,8.99 10.09,9.8 3.51,2.03 7.28,-0.78 7.28,-3.92l0 -27.45c0,-3.13 -4.42,-7.01 -8.65,-2.77 -0.99,0.99 -1.88,1.88 -2.87,2.87 -0.9,0.9 -5.26,5.38 -5.85,5.78 0,-4.62 0.77,-9.08 -3.49,-11.64 -1.05,-0.63 -2.37,-1.11 -4.07,-1.11l-38.8 0c-2.23,0 -4.12,0.76 -5.29,1.85 -1.24,1.16 -2.41,3.04 -2.41,4.87z"/>
 </g>
</svg>
