<?xml version="1.0" encoding="UTF-8"?>
<!DOCTYPE svg PUBLIC "-//W3C//DTD SVG 1.1//EN" "http://www.w3.org/Graphics/SVG/1.1/DTD/svg11.dtd">
<!-- Creator: CorelDRAW 2017 -->
<svg xmlns="http://www.w3.org/2000/svg" xml:space="preserve" width="5.36263in" height="2.42948in" version="1.1" style="shape-rendering:geometricPrecision; text-rendering:geometricPrecision; image-rendering:optimizeQuality; fill-rule:evenodd; clip-rule:evenodd"
viewBox="0 0 402.46 182.33"
 xmlns:xlink="http://www.w3.org/1999/xlink">
 <defs>
  <style type="text/css">
   <![CDATA[
    .fil4 {fill:#FEFEFE}
    .fil3 {fill:#E6B631}
    .fil0 {fill:#FFCE43}
    .fil1 {fill:#FEFEFE;fill-rule:nonzero}
    .fil2 {fill:#FEFEFE;fill-rule:nonzero}
   ]]>
  </style>
 </defs>
 <g id="Layer_x0020_1">
  <metadata id="CorelCorpID_0Corel-Layer"/>
  <path class="fil0" d="M21.13 0l360.19 0c11.62,0 21.13,9.51 21.13,21.13l0 140.06c0,11.62 -9.51,21.13 -21.13,21.13l-360.19 0c-11.62,0 -21.13,-9.51 -21.13,-21.13l0 -140.06c0,-11.62 9.51,-21.13 21.13,-21.13z"/>
  <path class="fil1" d="M159.93 60.52c0,10.26 7.85,17.83 19.04,17.83 4.34,0 8.72,-1.16 11.86,-2.89l0 -16.19 -13.49 0 0 6.36 6.07 0 0 5.25c-1.16,0.48 -2.7,0.77 -4.29,0.77 -7.18,0 -11.52,-5.11 -11.52,-11.18 0,-6.22 4.53,-11.18 11.57,-11.18 3.81,0 7.61,1.45 10.55,3.47l0 -7.71c-2.7,-1.49 -6.41,-2.65 -10.7,-2.65 -11.13,0 -19.08,7.81 -19.08,18.12zm36.82 17.3l7.33 0 0 -14.36c1.73,-2.02 3.86,-2.8 6.41,-2.8 0.67,0 1.4,0.1 1.98,0.24l0 -6.89c-0.53,-0.14 -1.06,-0.19 -1.54,-0.19 -2.94,0 -5.25,1.2 -6.89,3.52l-0.1 -0.05 0 -3.18 -7.18 0 0 23.71zm25.4 0.53c2.7,0 5.06,-0.87 6.6,-1.98l0.1 0c1.3,1.35 3.18,1.88 5.11,1.88 1.4,0 2.7,-0.29 3.52,-0.72l0 -5.49c-0.39,0.19 -0.82,0.29 -1.2,0.29 -1.01,0 -1.45,-0.77 -1.45,-1.88l0 -8.05c0,-2.99 -0.87,-5.11 -2.65,-6.55 -1.88,-1.54 -4.72,-2.26 -7.9,-2.26 -3.47,0 -6.36,0.87 -8.29,1.83l0 6.31c1.88,-1.01 4.29,-1.88 6.94,-1.88 1.73,0 2.99,0.39 3.66,1.01 0.53,0.48 0.92,1.35 0.92,2.51l0 0.92c-1.3,-0.29 -2.7,-0.43 -4.1,-0.43 -2.46,0 -4.82,0.43 -6.65,1.69 -1.69,1.16 -2.89,3.13 -2.89,5.73 0,2.46 1.06,4.34 2.8,5.54 1.54,1.06 3.47,1.54 5.49,1.54zm2.02 -5.4c-1.69,0 -3.04,-0.82 -3.04,-2.36 0,-1.83 1.88,-2.41 3.76,-2.41 0.77,0 1.83,0.1 2.6,0.34l0 3.47c-0.87,0.53 -2.07,0.96 -3.32,0.96zm24.43 4.53l0.1 -0.05c1.11,0.53 2.65,0.92 4.58,0.92 6.94,0 12.39,-4.96 12.39,-12.58 0,-7.37 -5.16,-12.19 -11.23,-12.19 -2.36,0 -4.34,0.72 -5.88,1.78l-0.1 -0.05 0 -1.2 -7.18 0 0 34.31 7.33 0 0 -10.94zm0 -5.98l0 -10.51c1.06,-0.77 2.46,-1.3 3.95,-1.3 3.61,0 5.73,2.89 5.73,6.46 0,3.52 -2.12,6.26 -5.93,6.26 -1.49,0 -2.84,-0.43 -3.76,-0.92zm21.78 6.31l7.33 0 0 -15.95c1.3,-1.01 3.08,-1.98 4.96,-1.98 1.01,0 1.88,0.29 2.51,1.01 0.58,0.67 0.82,1.54 0.82,3.33l0 13.59 7.32 0 0 -14.79c0,-3.42 -0.63,-5.49 -2.07,-7.04 -1.49,-1.54 -3.71,-2.41 -6.22,-2.41 -2.99,0 -5.49,1.25 -7.23,2.7l-0.1 -0.05 0 -15.23 -7.33 0 0 36.82zm28.34 -31.23c0,2.31 1.93,4.19 4.24,4.19 2.31,0 4.24,-1.88 4.24,-4.19 0,-2.31 -1.93,-4.19 -4.24,-4.19 -2.31,0 -4.24,1.88 -4.24,4.19zm0.58 31.23l7.33 0 0 -23.71 -7.33 0 0 23.71zm11.95 -11.81c0,7.13 5.59,12.34 13.2,12.34 2.7,0 5.49,-0.58 7.76,-1.83l0 -6.75c-1.98,1.49 -4.63,2.36 -6.94,2.36 -3.95,0 -6.7,-2.55 -6.7,-6.17 0,-3.57 2.7,-6.22 6.6,-6.22 2.27,0 4.58,0.87 6.7,2.22l0 -6.79c-1.93,-0.96 -4.39,-1.59 -7.04,-1.59 -7.42,0 -13.59,4.96 -13.59,12.43zm32.87 12.34c2.7,0 5.06,-0.87 6.6,-1.98l0.1 0c1.3,1.35 3.18,1.88 5.11,1.88 1.4,0 2.7,-0.29 3.52,-0.72l0 -5.49c-0.39,0.19 -0.82,0.29 -1.2,0.29 -1.01,0 -1.45,-0.77 -1.45,-1.88l0 -8.05c0,-2.99 -0.87,-5.11 -2.65,-6.55 -1.88,-1.54 -4.72,-2.26 -7.9,-2.26 -3.47,0 -6.36,0.87 -8.29,1.83l0 6.31c1.88,-1.01 4.29,-1.88 6.94,-1.88 1.73,0 2.99,0.39 3.66,1.01 0.53,0.48 0.92,1.35 0.92,2.51l0 0.92c-1.3,-0.29 -2.7,-0.43 -4.1,-0.43 -2.46,0 -4.82,0.43 -6.65,1.69 -1.69,1.16 -2.89,3.13 -2.89,5.73 0,2.46 1.06,4.34 2.8,5.54 1.54,1.06 3.47,1.54 5.49,1.54zm2.02 -5.4c-1.69,0 -3.04,-0.82 -3.04,-2.36 0,-1.83 1.88,-2.41 3.76,-2.41 0.77,0 1.83,0.1 2.6,0.34l0 3.47c-0.87,0.53 -2.07,0.96 -3.32,0.96zm17.11 4.87l7.33 0 0 -36.82 -7.33 0 0 36.82z"/>
  <path class="fil2" d="M166.3 141.08l4.72 0 3.99 -9.83 15.87 0 3.94 9.83 4.97 0 -14.56 -35.25 -4.43 0 -14.51 35.25zm13.19 -21.03c1.22,-3.02 2.39,-5.99 3.46,-8.86l0.1 0c1.07,2.87 2.24,5.89 3.36,8.72l2.87 7.3 -12.66 0 2.87 -7.16zm24.39 21.03l4.38 0 0 -16.41c1.7,-2.29 4.77,-3.99 7.5,-3.99 1.31,0 2.87,0.39 3.85,1.56 0.78,0.93 1.12,2.39 1.12,4.87l0 13.97 4.38 0 0 -14.8c0,-3.7 -0.68,-5.55 -2,-7.06 -1.51,-1.7 -3.75,-2.63 -6.38,-2.63 -3.36,0 -6.28,1.51 -8.37,3.6l-0.1 -0.05 0 -3.02 -4.38 0 0 23.95zm35.44 0.54c3.21,0 5.99,-1.36 7.35,-2.63l0.1 0c0.93,1.7 2.73,2.53 4.63,2.53 0.93,0 1.75,-0.19 2.34,-0.44l0 -3.65c-0.39,0.19 -0.93,0.34 -1.41,0.34 -1.31,0 -1.85,-1.07 -1.85,-2.53l0 -10.18c0,-2.97 -0.97,-5.01 -2.39,-6.28 -1.7,-1.56 -4.24,-2.19 -7.16,-2.19 -3.55,0 -6.13,0.93 -7.98,2.04l0 4.28c1.8,-1.31 4.33,-2.39 7.35,-2.39 2.04,0 3.51,0.49 4.43,1.31 0.93,0.88 1.36,2.19 1.36,3.94l0 2c-1.56,-0.39 -3.26,-0.63 -5.11,-0.63 -2.48,0 -4.92,0.44 -6.72,1.61 -1.9,1.22 -3.16,3.16 -3.16,5.84 0,2.34 0.97,4.14 2.53,5.31 1.61,1.22 3.75,1.7 5.7,1.7zm0.78 -3.9c-2.58,0 -4.58,-1.17 -4.58,-3.51 0,-2.82 2.92,-3.7 5.89,-3.7 1.51,0 3.36,0.24 4.67,0.63l0 4.48c-1.46,1.17 -3.7,2.09 -5.99,2.09zm18.5 3.36l4.38 0 0 -37.2 -4.38 0 0 37.2zm17.58 10.71l16.21 -34.67 -4.63 0 -4.19 9.06c-1.12,2.43 -2.19,4.82 -3.26,7.21l-0.1 0c-0.97,-2.19 -2.14,-4.77 -3.26,-7.21l-4.19 -9.06 -4.87 0 9.98 21.37 -6.48 13.29 4.77 0zm19.57 -12.07c2.48,1.27 5.84,1.9 8.91,1.9 5.11,0 10.08,-2.09 10.08,-7.64 0,-4.97 -3.8,-6.23 -8.37,-7.01 -3.55,-0.63 -6.96,-0.63 -6.96,-3.36 0,-2.14 2.14,-3.07 5.21,-3.07 2.78,0 6.09,0.78 8.76,2.34l0 -4.38c-2.39,-1.27 -5.7,-1.9 -8.57,-1.9 -5.55,0 -9.79,2.39 -9.83,7.35 0,4.72 3.6,6.09 8.18,6.86 3.7,0.63 7.16,0.68 7.16,3.55 0,2.34 -2.14,3.31 -5.45,3.31 -2.97,0 -6.38,-0.83 -9.1,-2.53l0 4.58zm24.05 -30.82c0,1.7 1.36,3.07 3.07,3.07 1.7,0 3.07,-1.36 3.07,-3.07 0,-1.7 -1.36,-3.07 -3.07,-3.07 -1.7,0 -3.07,1.36 -3.07,3.07zm0.88 32.18l4.38 0 0 -23.95 -4.38 0 0 23.95zm11.44 -1.36c2.48,1.27 5.84,1.9 8.91,1.9 5.11,0 10.08,-2.09 10.08,-7.64 0,-4.97 -3.8,-6.23 -8.37,-7.01 -3.55,-0.63 -6.96,-0.63 -6.96,-3.36 0,-2.14 2.14,-3.07 5.21,-3.07 2.78,0 6.09,0.78 8.76,2.34l0 -4.38c-2.39,-1.27 -5.7,-1.9 -8.57,-1.9 -5.55,0 -9.79,2.39 -9.83,7.35 0,4.72 3.6,6.09 8.18,6.86 3.7,0.63 7.16,0.68 7.16,3.55 0,2.34 -2.14,3.31 -5.45,3.31 -2.97,0 -6.38,-0.83 -9.1,-2.53l0 4.58z"/>
  <path class="fil3" d="M151.61 182.33l0 -182.33 -130.47 0c-11.62,0 -21.13,9.51 -21.13,21.13l0 140.06c0,11.62 9.51,21.13 21.13,21.13l130.47 0z"/>
  <g id="_981803680">
   <path class="fil4" d="M71.19 76.16l8.34 0c1.22,0 1.9,-1.7 2.73,-3.18 0.4,-0.72 1.79,-3.24 2.31,-3.59 0.02,0.77 5.15,17.92 5.71,19.83 0.57,1.97 2.55,2.11 3.09,-0.09 0.44,-1.8 0.85,-3.42 1.28,-5.15l2.61 -10.25c0.24,1.04 0.48,2.26 1.74,2.26l17.02 0c0,3.02 -1.18,6.44 -2.16,8.61 -0.23,0.52 -0.64,1.18 -0.94,1.67 -0.74,1.24 -2.66,3.85 -3.64,4.7l-1.41 1.2c-0.54,0.44 -1.02,0.81 -1.59,1.19 -6.64,4.39 -14.17,5.07 -21.57,2.11 -3.58,-1.43 -6.21,-3.64 -8.54,-6.4 -1.19,-1.41 -1.84,-2.42 -2.78,-4.17 -1.28,-2.39 -2.2,-6.07 -2.2,-8.74zm7.64 -2.95l-7.64 0c0.39,-4.66 2.32,-9.9 5.43,-13.16 1.71,-1.79 1.94,-2.25 4.23,-3.76 7.71,-5.11 17.79,-5.34 25.29,-0.13 2.64,1.84 3.05,2.46 4.88,4.5 2.51,2.79 4.99,8.73 4.99,12.55l-15.98 0c-0.07,-0.82 -0.78,-2.61 -1.06,-3.45 -0.55,-1.65 -0.6,-2.98 -2.06,-2.98 -0.85,0 -1.23,0.44 -1.44,1.17l-3.95 15.33c-0.02,-0.75 -0.41,-1.73 -0.63,-2.49l-3.67 -12.49c-0.69,-2.49 -0.81,-4.13 -2.47,-4.13 -1.25,0 -2.09,2.44 -3.2,4.27l-2.7 4.77zm-8.69 19.8l-3.69 3.78c-3.62,-1.83 -2.82,-3.09 -5.74,-0.18 -0.66,0.66 -1.37,1.21 -1.87,1.95l10.9 10.99c0.52,-0.36 3.69,-3.43 3.69,-3.87 0,-1.32 -1.4,-2.85 -1.91,-3.82l3.78 -3.69c2.01,1.79 4.98,3.29 7.44,4.28 9.04,3.65 20.45,2.32 28.12,-3.47l2.85 -2.36c0.45,-0.36 0.61,-0.45 1.03,-0.88l3.2 -3.92c4.83,-7.22 6.64,-15.54 4.52,-24.22 -0.21,-0.88 -0.49,-1.85 -0.81,-2.67 -0.19,-0.49 -0.29,-0.78 -0.47,-1.27 -0.71,-1.89 -2.05,-4.24 -3.2,-5.83 -0.3,-0.41 -0.42,-0.63 -0.72,-1.02 -1,-1.34 -3.14,-3.59 -4.42,-4.61 -2.8,-2.26 -3.34,-2.65 -6.63,-4.31 -9.23,-4.65 -20.65,-3.49 -29.27,2.24 -0.57,0.38 -0.97,0.65 -1.52,1.08 -3.66,2.86 -5.98,5.74 -8.31,9.93 -4.77,8.58 -4.28,20.13 0.89,28.79l2.14 3.07z"/>
   <path class="fil4" d="M35.75 121.85c0,3.61 7.54,10.77 10.77,10.77 0.62,0 9.6,-9.34 10.21,-9.95 1.72,-1.72 3.32,-3.32 5.04,-5.04l5.08 -5.17c-1.68,-1.12 -5.13,-5.23 -6.82,-6.91l-4.13 -4.21 -3.78 3.69c-0.54,0.53 -0.71,0.88 -1.21,1.39l-12.69 12.68c-0.47,0.47 -2.48,2.16 -2.48,2.74z"/>
  </g>
 </g>
</svg>
