<?xml version="1.0" encoding="UTF-8"?>
<!DOCTYPE svg PUBLIC "-//W3C//DTD SVG 1.1//EN" "http://www.w3.org/Graphics/SVG/1.1/DTD/svg11.dtd">
<!-- Creator: CorelDRAW 2017 -->
<svg xmlns="http://www.w3.org/2000/svg" xml:space="preserve" width="100%" height="100%" version="1.1" style="shape-rendering:geometricPrecision; text-rendering:geometricPrecision; image-rendering:optimizeQuality; fill-rule:evenodd; clip-rule:evenodd"
viewBox="0 0 4498.69 4663.49"
 xmlns:xlink="http://www.w3.org/1999/xlink">
 <defs>
  <style type="text/css">
   <![CDATA[
    .fil0 {fill:black}
   ]]>
  </style>
 </defs>
 <g id="Layer_x0020_1">
  <metadata id="CorelCorpID_0Corel-Layer"/>
  <path class="fil0" d="M1876.46 1477.75c62.02,0 122.03,-8.46 179.61,-23l-252.03 -206.85c-88,-71.87 -142.56,-173.91 -153.96,-287.18 -11.23,-113.36 22.38,-224.16 94.12,-311.82 80.96,-99.36 200.98,-156.35 328.87,-156.35 98.23,0 193.77,34.4 269.37,96.56l267.86 219.76c2.18,-23.05 3.52,-46.3 3.52,-69.9 0,-408.04 -330.22,-738.97 -737.38,-738.97 -407.32,0 -737.54,330.93 -737.54,738.97 0.01,407.98 330.22,738.78 737.55,738.78zm1673.56 -322.26c-145.16,0 -282.28,33.57 -405.15,92.03 -77.61,36.88 -149.52,83.56 -213.8,139.13l-742.66 -609.31c-33.69,-27.87 -74.59,-41.4 -115.33,-41.4 -52.46,0 -104.93,22.8 -140.8,66.84 -63.87,77.98 -52.47,192.98 25.48,256.72l748.19 614.05c-38.98,76.15 -68.48,157.73 -85.83,244.06 -9.3,45.85 -14.08,93.24 -16.51,141.14l449.07 -249.17c80.96,-44.84 172.4,-68.76 264.76,-68.76 198.71,0 381.93,108.37 478.31,282.7 145.83,264.09 49.96,597.88 -213.55,744.04l-392.57 217.71c111.22,45.8 232.74,71.54 360.39,71.54 523.99,0 948.66,-425.68 948.66,-950.68 0,-525.09 -424.67,-950.61 -948.66,-950.61zm33.1 985.76c-55.4,-100.24 -158.99,-156.94 -265.68,-156.94 -49.87,0 -100.24,12.28 -146.75,38.01l-998.78 554.04c-57.5,-63.74 -121.28,-121.48 -190.84,-172.23 -206.01,-150.61 -459.12,-240.62 -733.69,-240.62 -688.85,0 -1247.37,559.65 -1247.37,1250 0,690.32 558.52,1249.97 1247.37,1249.97 689.1,0 1247.71,-559.65 1247.71,-1249.97 0,-14.07 -1.76,-27.74 -2.26,-41.65 -2.85,-88.97 -15,-175.26 -35.53,-258.48l1007.33 -558.77c146.67,-81.35 199.72,-266.36 118.5,-413.37zm-2334.07 2313.96c-573.85,0 -1039.02,-466.16 -1039.02,-1041.02 0,-575 465.16,-1041.07 1039.02,-1041.07 573.78,0 1039.1,466.07 1039.1,1041.07 0,574.86 -465.33,1041.02 -1039.1,1041.02zm-666.04 -374.41l499.48 -166.46 832.6 -832.5 -333.02 -333.02 -832.5 832.5 -166.57 499.48zm499.48 -332.92l-332.92 166.46 166.46 -333.02 166.46 0 0 166.57 0 0z"/>
 </g>
</svg>
